<?xml version="1.0" encoding="utf-8"?>
<!-- Generator: Adobe Illustrator 16.0.0, SVG Export Plug-In . SVG Version: 6.00 Build 0)  -->
<!DOCTYPE svg PUBLIC "-//W3C//DTD SVG 1.1//EN" "http://www.w3.org/Graphics/SVG/1.1/DTD/svg11.dtd">
<svg version="1.1" xmlns="http://www.w3.org/2000/svg" xmlns:xlink="http://www.w3.org/1999/xlink" x="0px" y="0px" width="612px"
	 height="792px" viewBox="0 0 612 792" enable-background="new 0 0 612 792" xml:space="preserve">
<g id="Layer_1">
</g>
<g id="dente">
</g>
<g id="corpo">
</g>
<g id="coroa_1_">
	<g id="Layer_8">
	</g>
</g>
<g id="olhos">
</g>
<g id="fonte">
	<g>
		<g>
			<path d="M492.067,495.147l-20.146,3.296l-26.373,0.29l-46.426-9.884l-49.174-28.499l-23.075-28.204l-16.116-51.279l23.808-16.482
				c0,0,193.072,1.672,180.211,46.38c-2.885,10.027-5.139,26.339-3.297,43.83c0.464,4.401-18.313,2.825-18.313,2.825
				L492.067,495.147z"/>
			<path fill="#FFFFFF" d="M487.58,496.063c-11.07,4.337-35.321,2.39-49.998,1.099c-32.288-2.837-56.276-15.748-56.276-15.748
				s-26.423-13.277-20.775-16.865c26.505-16.835,127.05-7.22,127.05-7.22S489.071,495.479,487.58,496.063z"/>
			<path fill="#FFFFFF" d="M501.661,451.44c-44.319,1.282-148.895-7.466-182.226-41.436c-5.956-6.069-6.776-33.331-6.776-33.331
				s17.895-12.869,21.977-8.608c41.939,43.771,98.597,65.753,170.496,48.587c0.79-0.188,0.708-0.165,1.188-0.276
				c1.42-0.333-2.192,34.772-2.653,34.839C503.147,451.29,502.174,451.425,501.661,451.44z"/>
		</g>
		<path d="M370.086,557.049c-21.547,7.535-36.779,89.563-80.573,98.551c-19.22,3.943-32.416-10.646-82.779-92.323
			c-75.612-122.621-7.854-439.559-16.651-280.151c-3.575,64.774-0.901,23.723,2.488,29.56
			c7.455,12.844,61.942,48.631,101.888,13.057c110.434-98.347,148.959-115.379,220.934-69.228
			c36.482,23.394,16.429,105.84,17.608,147.52c0.017,0.635,0.098,6.259-0.505,6.456c-127.779,41.671-185.06-25.668-195.572-38.872
			c0,0-1.148-1.179-13.62,6.318c-5.25,3.156-4.108,9.891-3.297,16.758c4.46,37.795,24.308,76.591,103.292,96.973
			c53.447,13.796,84.383-3.442,96.372-11.719c0.867-0.601,0.349,3.441,0.326,3.958c-0.55,12.843-52.388,160.387-122.063,156.289
			C360.572,637.997,383.301,552.427,370.086,557.049z"/>
		<path fill="#FFFFFF" d="M372.534,531.645c-29.946,2.06-54.46,101.369-81.107,112.633c-16.834,7.115-33.41-17.383-75.186-79.865
			c-75.82-113.402-6.499-412.769-14.699-264.625c-3.332,60.196-0.839,22.046,2.318,27.471
			c6.948,11.936,141.202-33.515,186.804-63.733c36.086-23.912,79.602-29.746,120.873,6.593c30.276,26.658,8.241,96.959,9.34,135.693
			c0.018,0.59,0.013,0.779-0.55,0.961c-119.087,38.727-174.12-39.512-183.919-51.783c0,0-12.963,7.729-24.587,14.697
			c-4.892,2.933-6.799,15.594-6.043,21.977c4.158,35.126,34.72,85.899,108.33,104.842c49.813,12.819,85.525,0.365,96.697-7.327
			c0.81-0.558,0.985,0.508,0.997,0.988c0.284,11.292-49.896,134.363-114.734,139.541
			C374.033,631.548,391.43,530.344,372.534,531.645z"/>
		<path fill="#D2D1DC" d="M220.462,325.159c-21.292,58.549-24.989,102.388-30.486,160.052c-0.77,8.084-20.646-50.946-2.106-168.26
			c1.265-8.001,31.626-16.546,31.626-16.546S235.203,284.62,220.462,325.159z"/>
		<path fill="#D2D1DC" d="M436.759,611.44c3.594-0.934-29.276,23.666-42.488,17.216c-14.011-6.839-12.771-59.742-13.37-82.598
			c-0.566-21.625-19.367-9.437-19.367-9.437s32.713-32.999,31.548,14.749C392.582,571.855,402.519,620.333,436.759,611.44z"/>
		<path fill="#D2D1DC" d="M249.049,333.72c58.445-21.575,53.844-28.021,104.766-51.463c7.377-3.396-14.314,84.943-148.719,92.944
			c-8.087,0.482-11.411,3.921-11.411,3.921S208.582,348.66,249.049,333.72z"/>
		<g>
			<path fill="#FFCA29" d="M157.313,364.94c9.203,7.483,123.168-3.974,175.436-60.354c7.773-8.383-3.297-43.36-12.234-38.128
				c-38.898,22.775-69.415,52.84-183.36,65.516C134.044,332.319,141.521,352.1,157.313,364.94z"/>
			<path fill="#FAA21B" d="M153.941,368.948c-16.152-9.048-26.088-39.945-26.088-39.945l-2.495-8.503l0.807-0.326
				c0,0-34.486-59.155-70.688-98.979c-1.726-1.9,6.105-8.334,7.928-6.527c17.023,16.873,65.481,43.488,65.481,43.488
				s0.268-24.831-10.432-57.191c-1.078-3.261,5.525-6.969,7.594-4.228c29.305,38.826,58.805,46.291,58.805,46.291
				s10.498-40.08-2.189-93.387c-0.23-0.971,3.336-1.915,3.847-1.059c26.87,45.013,63.466,69.488,63.466,69.488
				s18.016-45.782,12.632-73.843c-0.526-2.737,10.453-3.883,10.453-3.883s22.456,52.778,25.355,45.774
				c5.292-12.78,11.198-44.251,17.502-71.707c0.505-2.202,9.013-1.779,9.025,0.481c0.43,63.185,4.78,108.052,7.012,125.435
				c0.136,1.065,3.71-2.178,4.073-1.363c10.628,23.831,14.493,46.144,8.076,59.909C322.115,346.043,186.04,386.931,153.941,368.948z
				"/>
			<polygon fill="#FFFFFF" points="169.33,366.975 156.195,364.01 145.109,331.044 156.95,329.537 			"/>
			<polygon fill="#FFFFFF" points="181.054,366.611 172.759,366.979 165.138,328.273 166.429,328.072 			"/>
			<polygon fill="#FFFFFF" points="321.321,315.439 316.303,319.476 306.715,274.929 308.367,273.885 			"/>
			<path fill="#FFCA29" d="M337.039,241.068c-33.577,21.692-109.801,71.953-209.863,81.209c-1.255,0.116-0.836,5.154,0.417,5.023
				c123.439-13.013,210.733-82.689,210.733-82.689S337.831,240.557,337.039,241.068z"/>
			<path fill="#E76F24" d="M335.515,238.097c-33.58,21.691-109.803,71.953-209.865,81.209c-1.255,0.116-0.836,5.155,0.417,5.021
				c123.438-13.011,210.731-82.688,210.731-82.688S336.304,237.586,335.515,238.097z"/>
			<path fill="#FFCA29" d="M329.48,232.709c-5.626,5.714-127.564,89.287-208.611,77.483c-0.331-0.048-0.789-0.596-0.949-0.873
				c-10.657-18.414-16.035-30.771-64.401-88.578c-1.647-1.968,7.927-6.526,7.927-6.526s54.841,41.602,78.274,48.379
				c24.04,6.954,34.456-2.779,38.679-10.713c19.65-36.923,2.305-102.694,2.305-102.694s3.371-1.935,3.847-1.059
				c15.917,29.27,43.992,56.285,63.465,69.487c52.217,35.403,66.779-102.244,66.779-102.244s8.29-1.614,8.201,0.436
				c-2.604,60.536,5.321,116.129,5.321,116.129S329.801,232.385,329.48,232.709z"/>
			<polygon fill="#FFFFFF" points="325.783,236.845 314.741,246.019 325.48,181.333 325.48,181.333 			"/>
			<polygon fill="#FFFFFF" points="146.437,311.347 131.841,312.094 94.788,269.838 94.788,269.838 			"/>
			<circle fill="#E76F24" cx="262.538" cy="126.517" r="17.765"/>
			<circle fill="#E76F24" cx="115.116" cy="182.681" r="17.766"/>
			<circle fill="#F99C1C" cx="110.991" cy="181.691" r="13.594"/>
			<circle fill="#FFCA29" cx="106.026" cy="180.02" r="8.548"/>
			<circle fill="#F99C1C" cx="259.721" cy="123.031" r="13.594"/>
			<circle fill="#FFCA29" cx="254.711" cy="120.419" r="7.611"/>
			<circle fill="#FAA21B" cx="175.486" cy="123.31" r="27.49"/>
			<circle fill="#FFCA29" cx="171.258" cy="121.878" r="21.346"/>
			<circle fill="#FFFFFF" cx="161.65" cy="117.812" r="9.811"/>
			<circle fill="#FAA21B" cx="42.725" cy="195.778" r="27.647"/>
			<circle fill="#FAA21B" cx="322.918" cy="88.529" r="27.586"/>
			<path fill="#E76F24" d="M185.205,145.426c0,0,0.123-0.146,0.254-0.333c12.939-18.418,11.673-24.124,5.767-39.943
				c-0.046-0.125-0.044-0.147-0.044-0.147s10.31,6.059,9.558,20.167C200.061,137.935,185.205,145.426,185.205,145.426z"/>
			<circle fill="#FFCA29" cx="318.149" cy="84.816" r="21.346"/>
			<circle fill="#FFFFFF" cx="310.805" cy="77.405" r="9.811"/>
			<path fill="#E76F24" d="M322.107,111.896c0,0,0.169-0.087,0.363-0.211c18.964-12.124,19.956-17.883,20.502-34.761
				c0.005-0.134,0.017-0.153,0.017-0.153s7.234,9.521,1.183,22.287C338.695,110.608,322.107,111.896,322.107,111.896z"/>
			<circle fill="#FFCA29" cx="36.4" cy="196.085" r="21.347"/>
			<circle fill="#FFFFFF" cx="26.549" cy="192.65" r="9.811"/>
			<path fill="#E76F24" d="M51.84,218.682c0,0,0.114-0.154,0.232-0.349c11.721-19.215,10.087-24.827,3.171-40.23
				c-0.054-0.123-0.054-0.146-0.054-0.146s10.68,5.38,10.843,19.507C66.181,210.245,51.84,218.682,51.84,218.682z"/>
			<path fill="#FAA21B" d="M57.041,218.353c-0.625-0.649,2.385-2.449,3.082-1.877c61.554,50.577,161.122,116.891,124.185-67.353
				c-0.114-0.568,2.163-0.438,2.309,0.123c34.447,132.106-11.601,141.219-11.601,141.219S136.448,300.694,57.041,218.353z"/>
			<path fill="#FAA21B" d="M183.153,146.691c-0.333-0.838,1.486-0.825,1.989-0.077c54.249,80.578,105.759,147.097,135.467-33.636
				c0.093-0.57,2.992,1.594,2.942,2.17c-11.134,128.351-44.528,130.784-44.528,130.784S227.985,259.429,183.153,146.691z"/>
			<path fill="#E76F24" d="M252.721,217.137c0,0,0.19,0.009,0.418-0.002c22.485-1.034,33.64-12.673,42.54-27.024c0.07-0.114,0,0,0,0
				s-0.817,14.933-17.433,26.921C267.881,224.512,252.721,217.137,252.721,217.137z"/>
			<path fill="#E76F24" d="M129.528,251.295c0,0,0.183,0.06,0.381,0.174c15.496,8.83,42.389,1.966,49.954-6.677c0.088-0.1,0,0,0,0
				c0.219-4.36,4.15,17.982-27.12,17.121C139.965,261.561,129.528,251.295,129.528,251.295z"/>
		</g>
		<path d="M416.662,321.242c0.991,13.796,0.095,23.916-15.753,26.237c-13.274,1.944-18.345-9.926-19.335-23.722
			c-0.989-13.795,0.014-24.413,15.753-26.236C410.745,295.966,415.674,307.446,416.662,321.242z"/>
		<path d="M494.955,335.526c0.99,13.796,0.095,23.916-15.753,26.238c-13.275,1.944-18.346-9.927-19.335-23.722
			s0.013-24.413,15.753-26.237C489.038,310.251,493.967,321.731,494.955,335.526z"/>
	</g>
</g>
</svg>
