<?xml version="1.0" encoding="utf-8"?>
<!-- Generator: Adobe Illustrator 16.0.0, SVG Export Plug-In . SVG Version: 6.00 Build 0)  -->
<!DOCTYPE svg PUBLIC "-//W3C//DTD SVG 1.1//EN" "http://www.w3.org/Graphics/SVG/1.1/DTD/svg11.dtd">
<svg version="1.1" xmlns="http://www.w3.org/2000/svg" xmlns:xlink="http://www.w3.org/1999/xlink" x="0px" y="0px" width="612px"
	 height="792px" viewBox="0 0 612 792" enable-background="new 0 0 612 792" xml:space="preserve">
<g id="Layer_1">
</g>
<g id="dente">
</g>
<g id="corpo">
</g>
<g id="coroa_1_">
	<g id="Layer_8">
	</g>
</g>
<g id="olhos">
</g>
<g id="fonte">
	<g>
		<g>
			<path d="M523.326,475.108l-30.378,4.969l-39.769,0.438l-70.007-14.904l-74.149-42.974l-34.796-42.529l-24.302-77.325l35.9-24.854
				c0,0,291.138,2.521,271.744,69.938c-4.351,15.121-7.749,39.717-4.972,66.092c0.699,6.637-27.615,4.26-27.615,4.26
				L523.326,475.108z"/>
			<path fill="#FFFFFF" d="M516.56,476.487c-16.694,6.539-53.262,3.604-75.394,1.657c-48.688-4.278-84.86-23.747-84.86-23.747
				s-39.844-20.021-31.327-25.432c39.968-25.386,191.581-10.887,191.581-10.887S518.809,475.606,516.56,476.487z"/>
			<path fill="#FFFFFF" d="M537.792,409.201c-66.83,1.934-224.521-11.258-274.781-62.481c-8.981-9.152-10.219-50.261-10.219-50.261
				s26.984-19.405,33.139-12.981c63.242,66.004,148.676,99.15,257.095,73.266c1.191-0.285,1.067-0.25,1.79-0.417
				c2.142-0.502-3.306,52.434-4,52.535C540.033,408.975,538.565,409.178,537.792,409.201z"/>
		</g>
		<path d="M339.388,568.449c-32.491,11.363-55.46,135.056-121.498,148.608c-28.982,5.946-48.88-16.056-124.825-139.217
			C1.001,428.537,7.892,134.849,53.13,88.857c3.218-3.272,29.795-20.044,49.384-19.603c145.011,3.267,124.152,22.619,197.035,98.015
			c0,0-104.732,79.901-44.497,26.259C421.578,45.229,449.964,45.675,558.497,115.268c55.013,35.276,24.773,159.599,26.553,222.448
			c0.024,0.958,0.146,9.438-0.763,9.736c-192.681,62.835-279.055-38.707-294.907-58.616c0,0-1.732-1.778-20.538,9.528
			c-7.917,4.759-6.195,14.914-4.972,25.269c6.726,56.992,36.654,115.493,155.756,146.227c80.594,20.803,127.242-5.19,145.321-17.671
			c1.308-0.905,0.526,5.189,0.491,5.969c-0.829,19.366-78.996,241.85-184.063,235.671
			C325.042,690.514,359.313,561.48,339.388,568.449z"/>
		<path fill="#FFFFFF" d="M343.079,530.143c-45.157,3.105-82.122,152.856-122.303,169.841
			c-25.385,10.729-50.38-26.212-113.375-120.431c-96.006-143.594-50.718-459.977-34.104-475.05
			c21.676-19.666,105.547-16.823,134.771,3.958c33.928,24.127,56.735,60.631,78.412,72.883
			c18.129,10.247,15.174-9.937,83.938-55.503c54.415-36.058,120.033-44.854,182.267,9.942
			c45.655,40.198,12.428,146.207,14.084,204.615c0.026,0.89,0.019,1.176-0.829,1.449c-179.573,58.396-262.559-59.58-277.335-78.084
			c0,0-19.547,11.654-37.075,22.162c-7.377,4.422-10.252,23.515-9.113,33.139c6.27,52.968,52.355,129.529,163.352,158.094
			c75.115,19.331,128.966,0.552,145.813-11.048c1.22-0.842,1.486,0.766,1.503,1.489c0.429,17.028-75.238,202.609-173.011,210.417
			C345.34,680.788,371.572,528.181,343.079,530.143z"/>
		<path fill="#D2D1DC" d="M117.591,130.477C78,215.671,66.75,281.05,51.003,366.966c-2.207,12.044-25.884-86.932,17.206-260.767
			c2.94-11.855,61.866-16.399,61.632-14.99C129.046,95.994,128.526,106.945,117.591,130.477z"/>
		<path fill="#D2D1DC" d="M439.925,650.469c5.419-1.408-44.146,35.686-64.069,25.96c-21.127-10.313-19.256-90.087-20.161-124.552
			c-0.854-32.608-29.204-14.229-29.204-14.229s49.329-49.761,47.572,22.24C373.31,590.777,388.294,663.877,439.925,650.469z"/>
		<path d="M409.621,212.872c1.494,20.803,0.143,36.063-23.755,39.563c-20.017,2.932-27.662-14.967-29.155-35.77
			c-1.491-20.802,0.021-36.813,23.755-39.563C400.699,174.757,408.13,192.068,409.621,212.872z"/>
		<path d="M527.68,234.412c1.494,20.804,0.144,36.063-23.754,39.564c-20.018,2.932-27.664-14.969-29.155-35.771
			c-1.492-20.803,0.019-36.813,23.754-39.563C518.758,196.299,526.19,213.609,527.68,234.412z"/>
	</g>
</g>
</svg>
