<?xml version="1.0" standalone="no"?>
<!DOCTYPE svg PUBLIC "-//W3C//DTD SVG 20010904//EN"
 "http://www.w3.org/TR/2001/REC-SVG-20010904/DTD/svg10.dtd">
<svg version="1.0" xmlns="http://www.w3.org/2000/svg"
 width="1280.000000pt" height="1280.000000pt" viewBox="0 0 1280.000000 1280.000000"
 preserveAspectRatio="xMidYMid meet">
<metadata>
Created by potrace 1.16, written by Peter Selinger 2001-2019
</metadata>
<g transform="translate(0.000000,1280.000000) scale(0.100000,-0.100000)"
fill="#000000" stroke="none">
<path d="M812 12780 c-247 -66 -432 -259 -492 -514 -20 -83 -20 -132 -18
-5897 l3 -5814 27 -80 c72 -211 231 -374 438 -447 60 -21 84 -23 334 -26 313
-4 365 4 504 73 186 94 323 258 379 455 17 63 18 268 18 5865 0 5574 -1 5803
-18 5865 -57 204 -192 367 -382 461 -136 66 -168 72 -460 75 -234 4 -267 2
-333 -16z"/>
<path d="M11300 12781 c-183 -39 -383 -127 -570 -249 -167 -109 -7135 -4907
-7240 -4985 -112 -84 -286 -254 -357 -351 -115 -157 -194 -318 -240 -496 -34
-128 -43 -362 -19 -496 49 -283 182 -531 406 -755 63 -63 151 -142 195 -176
78 -58 7126 -4908 7275 -5006 101 -66 295 -160 405 -196 155 -51 236 -64 395
-64 173 0 256 19 395 87 274 136 447 400 532 816 16 80 17 395 21 5415 2 3867
0 5357 -8 5430 -55 490 -291 861 -631 989 -156 58 -385 74 -559 37z"/>
</g>
</svg>
