<?xml version="1.0" encoding="utf-8"?>
<!-- Generator: Adobe Illustrator 22.0.0, SVG Export Plug-In . SVG Version: 6.00 Build 0)  -->
<svg version="1.1" id="Layer_1" xmlns="http://www.w3.org/2000/svg" xmlns:xlink="http://www.w3.org/1999/xlink" x="0px" y="0px"
	 viewBox="0 0 214.3 326.1" style="enable-background:new 0 0 214.3 326.1;" xml:space="preserve">
<style type="text/css">
	.st0{fill-rule:evenodd;clip-rule:evenodd;fill:#FFFFFF;}
	.st1{fill:#BBBDBF;}
	.st2{fill:#DEDEFD;}
	.st3{fill:#007AFE;}
	.st4{fill:#FFFFFF;}
	.st5{fill:#D0D2D3;}
	.st6{fill:#F7F7F7;}
	.st7{fill:#F5F5F5;}
	.st8{fill:#D8D8EF;}
	.st9{fill:#2685FC;}
</style>
<path class="st0" d="M111.5,12v171.8l0.1,33.5c0,0,0,0,0,13.4c0,13.4,7.6,12.2,20.6,12.2l31.3,0c2.4,0,2.5-0.1,2.5,2.4l-0.1,5.6
	c0.1-3,2.4,0,0,0h-35.7c-17.8,0-25.5-2.4-25.5-20.6c0-19.2,0-20.9,0-20.9V16.3l8.9,3.4"/>
<g>
	<g>
		<path class="st1" d="M192,14.2l-4.5-9.5c0,0,0.5-1.4,4.5-0.4c4,1.1,10.2,1.3,14,2c4.4,0.9,8.6,2.7,8.6,2.7l-8.8,8.3L192,14.2z"/>
	</g>
	<g>
		<path class="st2" d="M192,14.2l-4.5-9.5c0,0,0.7-2.5,4.7-1.4c4,1.1,8,3.8,11.8,4.8c5.4,1.5,10.6,1,10.6,1l-8.8,8.3L192,14.2z"/>
		<path class="st2" d="M210.6,34c-0.9-5.4-2.9-11.3-4.7-16.7L192,14.2c-3.9,4.1-7.9,8.7-11.3,13.1c-7.1,9.4-5.2,13.5-0.1,17.2
			c3.8,2.8,18.1,6,22.7,5.1C209.5,48.4,212.1,43.4,210.6,34z"/>
		<g>
			<g>
				<path class="st3" d="M198.4,30.2c0.1-1-0.7-1.7-2.4-2.1c-1.8-0.4-2.8-0.1-3,0.8c-0.1,0.6,0.1,1.1,0.6,1.4
					c0.5,0.4,1.6,0.9,3.2,1.7c1.6,0.7,2.8,1.6,3.4,2.5c0.6,1,0.8,2.1,0.5,3.3c-0.3,1.4-1.2,2.4-2.7,2.9c-1.5,0.5-3,0.6-4.7,0.2
					c-4-0.9-6-3-5.8-6.2l3.4,0.5c-0.1,1.7,0.9,2.8,3,3.2c2,0.5,3.2,0,3.5-1.4c0.1-0.6,0-1.1-0.4-1.5c-0.4-0.4-1.5-1-3.2-1.7
					c-1.7-0.8-2.9-1.6-3.5-2.5c-0.6-0.9-0.8-1.9-0.6-3c0.3-1.2,1-2,2.2-2.6c1.2-0.6,2.8-0.6,4.7-0.2c3.9,0.9,5.6,2.6,5.2,5.2
					L198.4,30.2z"/>
			</g>
			
				<rect x="195.5" y="22.8" transform="matrix(0.2218 -0.9751 0.9751 0.2218 129.4274 211.1161)" class="st3" width="3" height="3.3"/>
			
				<rect x="191.6" y="40.1" transform="matrix(0.2217 -0.9751 0.9751 0.2217 109.5809 220.7186)" class="st3" width="3" height="3.3"/>
		</g>
		<path class="st3" d="M207.1,17.9c-0.1,0.3-0.4,0.4-0.7,0.4L191,14.9c-0.3-0.1-0.6-0.4-0.5-0.6l0.1-0.4c0.1-0.3,0.4-0.4,0.7-0.4
			l15.4,3.4c0.3,0.1,0.6,0.4,0.5,0.6L207.1,17.9z"/>
		<path class="st4" d="M196.1,47.2c2.2,2.4,7.1,1.9,9,1c2.7-1.1,4.6-4.2,4.8-6.7c0.3-2.4,0.2-4.1-0.2-6.6c-0.2-0.9,0.6,2.7-2.2,6.6
			c-2.1,2.9-6.2,2.8-8.9,2.5C196.7,43.9,193.9,44.8,196.1,47.2z"/>
		<path class="st5" d="M201.6,15.3c0,0,5.2-0.7,8.2-2.6c3.3-2.2-3.6,3.6-3.6,3.6L201.6,15.3z"/>
		<path class="st6" d="M189.2,5.7c0,0,0.1,0.1,0.2,0.3c0.1,0.2,0.3,0.4,0.5,0.7c0.4,0.6,0.8,1.4,1.2,2.2c0.4,0.8,0.7,1.7,0.9,2.4
			c0.1,0.3,0.2,0.6,0.2,0.8c0,0.2,0.1,0.3,0.1,0.3s-0.1-0.1-0.2-0.3c-0.1-0.2-0.3-0.4-0.5-0.7c-0.4-0.6-0.8-1.4-1.2-2.2
			c-0.4-0.8-0.7-1.7-0.9-2.4c-0.1-0.3-0.2-0.6-0.2-0.8C189.3,5.9,189.2,5.7,189.2,5.7z"/>
		<path class="st6" d="M192,16.1c0,0-0.1,0.2-0.4,0.6c-0.2,0.4-0.6,0.9-1,1.5c-0.9,1.2-2.1,2.8-3.4,4.4c-1.3,1.6-2.6,3.1-3.7,4.2
			c-0.5,0.5-1,1-1.3,1.3c-0.3,0.3-0.5,0.5-0.5,0.5s0.1-0.2,0.4-0.6c0.2-0.4,0.6-0.9,1-1.5c0.9-1.2,2.1-2.8,3.4-4.4
			c1.3-1.6,2.6-3.1,3.7-4.2c0.5-0.5,1-1,1.3-1.3C191.8,16.3,192,16.1,192,16.1z"/>
	</g>
</g>
<g>
	<path class="st2" d="M188.6,66.9c-0.9,0-1.8,0.1-2.7,0.2c-5.1-10.2-15.6-17.3-27.9-17.3c-2.6,0-5,0.3-7.4,0.9
		c-0.7-23.9-20.3-43.1-44.4-43.1c-24.3,0-44,19.5-44.4,43.7c-3-1-6.3-1.5-9.7-1.5c-17.2,0-31.1,13.9-31.1,31.1c0,0.6,0,1.1,0,1.7
		c0,0,0,0,0,0c-8.1,0-14.7,6.6-14.7,14.7c0,8.1,6.6,14.7,14.7,14.7h167.5c12.4,0,22.5-10.1,22.5-22.5
		C211.1,77,201.1,66.9,188.6,66.9z"/>
	<path class="st7" d="M80.9,60.4c-4.3-3.5-10.9-4.1-15.7-1.3c-4.8,2.8-7.7,8.7-6.8,14.2c1.7-4.3,5.1-7.4,9-9.8
		C71.3,61.1,76.2,60.1,80.9,60.4z"/>
	<path class="st7" d="M26.3,63.8c3.6-3.4,8-6,12.8-7.3c9.6-2.6,20.4,0.1,27.7,6.9c-1.1-14.8,4.6-30,15.2-40.4
		c10.6-10.4,26.8-15.1,41-10.6c4.8,1.5,9.2,4,13.3,6.9c-7.9-7.2-18.4-11.6-29.9-11.6c-24.3,0-44,19.5-44.4,43.7
		c-3-1-6.3-1.5-9.7-1.5C41.4,49.8,31.8,55.4,26.3,63.8z"/>
	<path class="st7" d="M211.1,89.5c0-12.4-10.1-22.5-22.5-22.5c-0.9,0-1.8,0.1-2.7,0.2c-5.1-10.2-15.6-17.3-27.9-17.3
		c-2.5,0-4.8,0.3-7.1,0.8c-7.9,3.4-14.8,9.3-19.1,16.7c6.3-8.1,16.7-12.3,26.9-11c10.2,1.3,19.4,8.3,23.5,17.7c6.1-2,13.1-0.2,18,4
		c4.9,4.2,7.6,10.7,7.9,17.1c0.1,2.3-0.2,4.6-0.6,6.9C209.7,98.4,211.1,94.1,211.1,89.5z"/>
</g>
<path class="st0" d="M48,276h108.3c13,0,21.4,0.4,21.4-13c0-13.4-7.6-12.2-20.6-12.2l-32.3-0.1c-2.4,0-1.6,0.1-1.6-2.3l0.1-5.6
	c0.6,0.6-2.4,0,0,0H159c17.8,0,25.5,2.4,25.5,20.6c0,19.2-10.3,20.9-28,20.9H48V276"/>
<g>
	<g id="XMLID_41_">
		<g id="XMLID_46_">
			<g id="XMLID_50_">
				<path id="XMLID_3_" class="st2" d="M160,276.1c1.7-8,9.1-14.1,17.6-14.1c0.1,0,4.7,0.5,6.8,1.4c6.4,2.7,10.9,9.1,10.9,16.4
					c0,4.1,2.9,13.4,0,16.3c-0.9,0.9-4.1,0.9-4.9,0c-2.9-2.9,0-12.2,0-16.3c0-4.7-2.5-8.8-6.2-11.1c-1.9-1.2-6.7-1.9-6.8-1.9
					c-5.6,0-10.3,3.6-12.1,8.6c0,0.1-0.1,0.3-0.1,0.4"/>
				<polyline id="XMLID_2_" class="st2" points="164.6,284.3 164.6,296.1 159.6,296.1 159.6,284.5 				"/>
			</g>
			<g id="XMLID_47_">
				<path id="XMLID_48_" class="st2" d="M202.9,320.8c0,1.1-0.9,1.9-1.9,1.9h-47c-1.1,0-1.9-0.9-1.9-1.9v-30.5
					c0-1.1,0.9-1.9,1.9-1.9h47c1.1,0,1.9,0.9,1.9,1.9V320.8z"/>
			</g>
		</g>
	</g>
	<path class="st8" d="M202.9,320.8v-18.7c-15.5,13.1-37.8,18-50.4,19.8c0.3,0.5,0.9,0.8,1.5,0.8h47
		C202,322.7,202.9,321.9,202.9,320.8z"/>
	<path class="st9" d="M181.7,300.4c0-2.3-1.9-4.2-4.2-4.2s-4.2,1.9-4.2,4.2c0,1.4,0.7,2.6,1.7,3.4l-1.3,9.5h7.7l-1.3-9.5
		C181,303,181.7,301.8,181.7,300.4z"/>
	<path class="st4" d="M153.7,292v6.6c0.2-2.8,1.5-8.9,9.9-8.9H156C154.7,289.7,153.7,290.7,153.7,292z"/>
	<path class="st9" d="M173.7,313.2c0,0,5.7-1.6,6.3-9.5l1.3,9.5H173.7z"/>
</g>
</svg>
