<svg id="Capa_1" enable-background="new 0 0 400.316 400.316" height="512" viewBox="0 0 400.316 400.316" width="512" xmlns="http://www.w3.org/2000/svg"><path d="m120.096 33.36c0-18.395-14.965-33.36-33.36-33.36s-33.36 14.965-33.36 33.36c0 3.69 2.989 6.672 6.672 6.672s6.672-2.982 6.672-6.672c0-11.035 8.98-20.016 20.016-20.016s20.016 8.98 20.016 20.016-8.98 20.016-20.016 20.016c-3.683 0-6.672 2.982-6.672 6.672 0 .013.007.02.007.033v38.41l-12.65 25.293c-.46.927-.701 1.948-.701 2.982v33.36h-6.672c-3.683 0-6.672 2.982-6.672 6.672v226.845c0 3.69 2.989 6.672 6.672 6.672h53.375c3.683 0 6.672-2.982 6.672-6.672v-226.845c0-3.69-2.989-6.672-6.672-6.672h-6.672v-33.36c0-1.034-.24-2.062-.701-2.982l-12.635-25.266v-32.473c15.205-3.102 26.681-16.579 26.681-32.685zm-26.688 293.564c0 3.69-2.989 6.672-6.672 6.672s-6.672-2.982-6.672-6.672v-40.032c0-3.69 2.989-6.672 6.672-6.672s6.672 2.982 6.672 6.672zm0-73.391c0 3.69-2.989 6.672-6.672 6.672s-6.672-2.982-6.672-6.672v-6.672c0-3.69 2.989-6.672 6.672-6.672s6.672 2.982 6.672 6.672zm0-40.031c0 3.69-2.989 6.672-6.672 6.672s-6.672-2.982-6.672-6.672v-6.672c0-3.69 2.989-6.672 6.672-6.672s6.672 2.982 6.672 6.672zm-13.344-53.376v-31.785l6.672-13.344 6.672 13.344v31.785z"/><path d="m166.799 266.877h66.719v40.032h-66.719z"/><path d="m166.799 393.644c0 3.69 2.989 6.672 6.672 6.672h53.375c3.683 0 6.672-2.982 6.672-6.672v-73.391h-66.719z"/><path d="m280.221 260.205h66.719v53.375h-66.719z"/><path d="m340.268 173.47h-6.672v-33.36c0-3.69-2.989-6.672-6.672-6.672h-6.672v-42.88c13.197-7.893 19.929-16.867 20.022-26.721.1-10.588-7.753-20.543-23.352-29.583-3.183-1.848-7.266-.754-9.121 2.429-1.848 3.189-.761 7.266 2.429 9.114 10.822 6.265 16.747 12.63 16.693 17.907-.027 2.982-2.102 9.107-15.659 16.626-1.154.641-4.597 2.549-4.363 6.725v46.383h-6.672c-3.683 0-6.672 2.982-6.672 6.672v33.36h-6.672c-3.683 0-6.672 2.982-6.672 6.672v66.719h66.719v-66.719c.008-3.69-2.981-6.672-6.664-6.672zm-33.359-26.688h13.344v26.688h-13.344z"/><path d="m280.221 393.644c0 3.69 2.989 6.672 6.672 6.672h53.375c3.683 0 6.672-2.982 6.672-6.672v-66.719h-66.719z"/><path d="m200.159 0c-29.43 0-53.375 23.946-53.375 53.375 0 27.168 20.416 49.612 46.703 52.915v27.148h-6.672c-3.683 0-6.672 2.982-6.672 6.672v33.36h-6.672c-3.683 0-6.672 2.982-6.672 6.672v73.391h66.719v-73.391c0-3.69-2.989-6.672-6.672-6.672h-6.672v-33.36c0-3.69-2.989-6.672-6.672-6.672h-6.672v-27.148c26.287-3.303 46.703-25.747 46.703-52.915.001-29.429-23.944-53.375-53.374-53.375zm-6.673 173.47v-26.688h13.344v26.688zm6.673-133.438c-7.359 0-13.344 5.985-13.344 13.344 0 3.69-2.989 6.672-6.672 6.672s-6.672-2.982-6.672-6.672c0-14.718 11.969-26.688 26.688-26.688 3.683 0 6.672 2.982 6.672 6.672s-2.989 6.672-6.672 6.672z"/></svg>