<?xml version="1.0"?>
<svg xmlns="http://www.w3.org/2000/svg" xmlns:xlink="http://www.w3.org/1999/xlink" version="1.1" id="Capa_1" x="0px" y="0px" viewBox="0 0 335.412 335.412" style="enable-background:new 0 0 335.412 335.412;" xml:space="preserve" width="512" height="512" class=""><g transform="matrix(-1 1.22465e-16 -1.22465e-16 -1 335.412 335.412)"><g>
	<polygon style="fill:#E47474" points="266.971,97.176 209.502,97.176 209.502,230.922 125.91,230.922 125.91,97.176    68.441,97.176 167.706,0  " data-original="#00EFD1" class="" data-old_color="#00EFD1"/>
	<g>
		<path style="fill:#E47474" d="M209.502,272.718H125.91c-5.771,0-10.449-4.678-10.449-10.449s4.678-10.449,10.449-10.449h83.592    c5.771,0,10.449,4.678,10.449,10.449S215.273,272.718,209.502,272.718z" data-original="#00ACEA" class="active-path" data-old_color="#00ACEA"/>
		<path style="fill:#E47474" d="M209.502,304.065H125.91c-5.771,0-10.449-4.678-10.449-10.449c0-5.771,4.678-10.449,10.449-10.449    h83.592c5.771,0,10.449,4.678,10.449,10.449C219.951,299.387,215.273,304.065,209.502,304.065z" data-original="#00ACEA" class="active-path" data-old_color="#00ACEA"/>
		<path style="fill:#E47474" d="M209.502,335.412H125.91c-5.771,0-10.449-4.678-10.449-10.449s4.678-10.449,10.449-10.449h83.592    c5.771,0,10.449,4.678,10.449,10.449S215.273,335.412,209.502,335.412z" data-original="#00ACEA" class="active-path" data-old_color="#00ACEA"/>
	</g>
</g></g> </svg>
