<?xml version="1.0" encoding="utf-8"?>
<!-- Generator: Adobe Illustrator 16.0.0, SVG Export Plug-In . SVG Version: 6.00 Build 0)  -->
<!DOCTYPE svg PUBLIC "-//W3C//DTD SVG 1.1//EN" "http://www.w3.org/Graphics/SVG/1.1/DTD/svg11.dtd">
<svg version="1.1" id="Layer_1" xmlns="http://www.w3.org/2000/svg" xmlns:xlink="http://www.w3.org/1999/xlink" x="0px" y="0px"
	 width="612px" height="569px" viewBox="0 0 612 569" enable-background="new 0 0 612 569" xml:space="preserve">
<g opacity="0.1">
	<g>
		<polygon fill="#96D09D" points="212.376,425.35 167.221,415.309 347.395,115.735 392.548,125.774 		"/>
	</g>
	<g>
		<polygon fill="#70B77B" points="212.375,426.016 167.219,415.976 98.511,326.546 143.665,336.586 		"/>
	</g>
	<g>
		<polygon fill="#96D09D" points="45.154,494.317 0,484.279 98.527,325.893 143.682,335.934 		"/>
	</g>
	<g>
		<polygon fill="#70B77B" points="392.548,125.774 212.375,426.016 143.665,336.586 45.154,494.317 143.682,335.934 212.376,425.35 
					"/>
	</g>
	<polygon fill="#96D09D" points="296.078,138.867 410.913,161.833 401.489,68.197 	"/>
</g>
<g opacity="0.1">
	<g enable-background="new    ">
		<g>
			<polygon fill="#4FBA74" points="316.968,481.739 256.061,468.194 499.081,64.12 559.987,77.662 			"/>
		</g>
		<g>
			<polygon fill="#307B46" points="316.964,482.636 256.057,469.097 163.382,348.471 224.287,362.01 			"/>
		</g>
		<g>
			<polygon fill="#4FBA74" points="91.411,574.764 30.506,561.223 163.402,347.587 224.309,361.13 			"/>
		</g>
		<g>
			<polygon fill="#4FB872" points="559.987,77.662 316.964,482.636 224.287,362.01 91.411,574.764 224.309,361.13 316.968,481.739 
							"/>
		</g>
	</g>
	<polygon fill="#4FBA74" points="429.865,95.32 584.759,126.298 572.049,0 	"/>
</g>
<g opacity="0.1">
	<g>
		<polygon fill="#96D09D" points="412.087,491.807 366.932,481.767 547.104,182.192 592.259,192.231 		"/>
	</g>
	<g>
		<polygon fill="#70B77B" points="412.085,492.474 366.93,482.434 298.221,393.004 343.376,403.042 		"/>
	</g>
	<g>
		<polygon fill="#96D09D" points="244.865,560.773 199.71,550.734 298.237,392.352 343.393,402.391 		"/>
	</g>
	<g>
		<polygon fill="#70B77B" points="592.259,192.231 412.085,492.474 343.376,403.042 244.865,560.773 343.393,402.391 
			412.087,491.807 		"/>
	</g>
	<polygon fill="#96D09D" points="495.788,205.324 610.622,228.291 601.201,134.654 	"/>
</g>
</svg>
