<?xml version="1.0" encoding="utf-8"?>
<!-- Generator: Adobe Illustrator 16.0.0, SVG Export Plug-In . SVG Version: 6.00 Build 0)  -->
<!DOCTYPE svg PUBLIC "-//W3C//DTD SVG 1.1//EN" "http://www.w3.org/Graphics/SVG/1.1/DTD/svg11.dtd">
<svg version="1.1" id="Capa_1" xmlns="http://www.w3.org/2000/svg" xmlns:xlink="http://www.w3.org/1999/xlink" x="0px" y="0px"
	 width="425.197px" height="399.2px" viewBox="0 0 425.197 399.2" enable-background="new 0 0 425.197 399.2" xml:space="preserve">
<g>
	<g>
		<g>
			<path fill="#ECF8FE" stroke="#001C36" stroke-miterlimit="10" d="M263.437,67.691c-17.904,0-34.059,16.25-58.217,16.25
				c-24.164,0-40.324-16.25-58.232-16.25c-35.393,0-73.758,50.517-68.561,91.055c5.777,45.194,56.096,181.445,90.826,181.445
				c17.146,0,17.061-34.037,25.826-70.572c4.008-16.699,12.02-18.703,16.035,1.336c7.494,37.496,14.021,69.236,30.061,69.236
				c34.73,0,86.043-145.118,90.836-181.445C337.356,118.227,297.937,67.691,263.437,67.691z"/>
			<path opacity="0.7" fill="#FFFFFF" d="M157.847,277.173c16.521,1.334,13.25-48.533,47.422-50.563
				c19.635-1.167,28.301,8.599,31.193,23.734c3.063,16.012,1.934,30.973,19.156,29.945c17.221-1.029,64.26-75.249,62.986-122.329
				c-0.588-21.523-9.697-45.73-19.814-64.665c-6.656-12.432-19.953-19.557-33.963-19.047c-17.344,0.632-32.84,12.175-47.535,20.157
				c-19.805,10.753-34.367-7.229-52.221-12.053c-17.064-4.611-32.785-0.074-44.068,14.028
				c-13.623,17.036-13.865,42.227-8.918,62.559C115.696,173.766,141.331,275.837,157.847,277.173z"/>
			<path fill="#FFFFFF" d="M203.983,105.064c11.723,1.237,21.455-1.612,32.623-4.799c10.852-3.096,22.775-4.965,33.234,0.498
				c21.393,11.177,31.518,38.821,35.563,61.176c2.414,13.438,4.135,27.14,2.096,40.733c-0.617,4.139-1.568,8.169-2.721,12.133
				c8.455-19.341,14.283-39.857,13.826-56.843c-0.588-21.523-9.697-45.73-19.814-64.665c-6.656-12.432-19.953-19.557-33.963-19.047
				c-17.344,0.632-32.84,12.175-47.535,20.157c-19.805,10.753-34.367-7.229-52.221-12.053c-2.07-0.561-4.117-0.979-6.139-1.269
				C170.435,93.735,187.446,103.31,203.983,105.064z"/>
			<path fill="#DCF2FD" d="M171.649,89.563c8.908,7.22,20.477,9.231,31.646,7.254c13.369-2.37,28.17-9.449,33.123-20.891
				c-9.219,4.027-19.227,8.015-31.199,8.015c-22.902,0-38.611-14.59-55.441-16.112C157.124,75.024,163.614,83.043,171.649,89.563z"
				/>
			<path fill="#DCF2FD" d="M279.989,271.384c-6.535,9.717-24.172,22.025-37.781,18.34c-13.357-3.619-14.502-22.393-17.043-33.346
				c-1.197-5.146-2.004-14.244-7.568-16.697c-5.58-2.465-12.629-2.045-17.883,0.998c-10.551,6.114-19.064,18.617-20.912,30.721
				c-1.732,11.293-3.785,27.334-18.367,27.635c-7.672,0.16-11.592-8.262-16.088-13.461c-7.275-8.4-39.779-65.839-64.893-120.255
				c9.211,50.504,56.623,174.872,89.799,174.872c17.146,0,17.061-34.037,25.826-70.572c4.008-16.699,12.02-18.703,16.035,1.336
				c7.494,37.496,14.021,69.236,30.061,69.236c25.104,0,58.85-75.752,77.447-131.496
				C306.267,233.982,294.312,250.103,279.989,271.384z"/>
			<g>
				<path fill="#001C36" d="M231.456,80.108c0,0-0.797,0.26-2.191,0.715c-0.68,0.243-1.578,0.467-2.479,0.855
					c-0.92,0.368-1.957,0.784-3.094,1.237c-2.316,0.896-5.014,2.114-8.002,3.177c-2.945,1.17-6.188,2.167-9.438,3.119
					c-1.6,0.55-3.297,0.772-4.906,1.167c-1.633,0.313-3.209,0.782-4.787,0.945c-1.572,0.188-3.088,0.37-4.525,0.542
					c-1.439,0.135-2.781,0.421-4.053,0.377c-5.031,0.087-8.391,0.146-8.391,0.146s3.334-0.283,8.34-0.708
					c1.254-0.041,2.578-0.418,3.988-0.648c1.404-0.264,2.889-0.545,4.422-0.834c1.535-0.264,3.064-0.833,4.645-1.25
					c1.557-0.496,3.189-0.816,4.729-1.467c3.115-1.149,6.211-2.33,9.025-3.677c2.857-1.239,5.428-2.616,7.729-3.692
					c1.168-0.558,2.236-1.069,3.186-1.522c0.953-0.478,1.773-0.742,2.453-1.038c1.367-0.547,2.139-0.86,2.139-0.86
					c0.932-0.375,1.986,0.075,2.361,1.004s-0.078,1.988-1.006,2.361c-0.035,0.014-0.074,0.028-0.109,0.041L231.456,80.108z"/>
			</g>
			<path fill="#001C36" d="M126.937,83.741c-2.104-0.154-4.666,1.774-6.25,3.02c-2.213,1.747-3.607,3.754-4.875,6.234
				c-0.074,0.14,0.129,0.264,0.213,0.126c1.334-2.163,3.307-3.981,5.324-5.509c1.75-1.326,4.303-1.85,5.799-3.362
				C127.339,84.054,127.19,83.76,126.937,83.741z"/>
			<path fill="#001C36" d="M129.315,85.668c-2.635,0.475-5.537,1.876-6.855,4.303c-0.07,0.127,0.082,0.31,0.225,0.214
				c2.156-1.545,4.439-2.505,7.049-2.978C130.737,87.026,130.313,85.488,129.315,85.668z"/>
		</g>
		<g>
			<g>
				<g>
					<path fill="#1076A3" stroke="#000D26" stroke-linecap="round" stroke-linejoin="round" stroke-miterlimit="10" d="
						M310.005,135.066c-1.738-5.174-14.211-14.821-44.48-14.821c-25.857,0-42.49,6.052-44.477,14.821
						c-0.131,0.564-0.174,1.122-0.277,1.682c-6.666-14.651-22.76-13.418-30.141-1.991c-0.021,0.037-0.047,0.051-0.082,0.08
						c-2.23-8.644-18.768-14.591-44.395-14.591c-30.27,0-42.758,9.647-44.488,14.821c-3.695,11.122,7.197,58.59,31.664,60.782
						c34.002,3.05,58.125-18.381,58.443-46.476c6.143-9.582,21.098-11.832,28.199,0.099c1.77,26.92,25.451,49.326,58.369,46.376
						C302.808,193.657,313.708,146.188,310.005,135.066z"/>
					<path fill="#144F73" d="M180.858,140.18c5.773,25.499-14.506,50.041-44.633,47.346c-19.051-1.713-27.547-38.69-24.654-47.346
						c1.346-4.036,11.063-11.55,34.652-11.55C166.353,128.63,179.308,133.346,180.858,140.18z"/>
					<path fill="#144F73" d="M230.812,140.18c-5.768,25.499,14.504,50.041,44.641,47.346c19.057-1.713,27.539-38.69,24.646-47.346
						c-1.346-4.036-11.057-11.55-34.639-11.55C245.315,128.63,232.362,133.346,230.812,140.18z"/>
					<path fill="#FFFFFF" d="M290.378,169.165c0,0,0.236-9.339,0.934-16.521c0.549-5.542-1.295-16.032,1.232-16.032
						c2.096,0,5.393,5.542,4.957,10.194C296.735,155.011,290.378,169.165,290.378,169.165z"/>
					<path fill="#FFFFFF" d="M168.396,174.298c0,0,5.555-10.194,4.932-21.654c-0.297-5.557-1.305-16.032,1.227-16.032
						c2.096,0,4.945,5.524,4.959,10.194C179.56,160.087,168.396,174.298,168.396,174.298z"/>
				</g>
			</g>
			<g>
				<g>
					<path fill="#FFFFFF" stroke="#000D26" stroke-linecap="round" stroke-miterlimit="10" d="M150.089,204.706
						c8.469-12.469,22.518,1.691,51.746,1.691c22.816,0,50.438-14.982,56.479-1.944c5.289,11.403-17.809,37.284-57.045,37.284
						C163.702,241.737,142.003,216.628,150.089,204.706z"/>
					<path fill="none" stroke="#000D26" stroke-linecap="round" stroke-miterlimit="10" d="M258.313,204.453
						c0,0-14.189,19.489-54.814,19.489c-40.629,0-53.154-19.489-53.154-19.489"/>
					
						<line fill="none" stroke="#000D26" stroke-linecap="round" stroke-miterlimit="10" x1="234.659" y1="232.212" x2="234.659" y2="200.771"/>
					
						<line fill="none" stroke="#000D26" stroke-linecap="round" stroke-miterlimit="10" x1="203.731" y1="241.737" x2="203.731" y2="208.282"/>
					
						<line fill="none" stroke="#000D26" stroke-linecap="round" stroke-miterlimit="10" x1="174.56" y1="234.719" x2="174.56" y2="203.325"/>
				</g>
			</g>
		</g>
	</g>
</g>
</svg>
