<svg width="527.42" height="527.42" xmlns="http://www.w3.org/2000/svg">

 <g>
  <title>background</title>
  <rect fill="none" id="canvas_background" height="402" width="582" y="-1" x="-1"/>
 </g>
 <g>
  <title>Layer 1</title>
  <g transform="rotate(-180 263.709716796875,264.7099304199219) " id="svg_1">
   <g id="svg_2">
    <path id="svg_3" d="m4.925,272.773l263.77,216.474c6.591,5.288 9.593,3.137 6.707,-4.807l-69.104,-206.862c-2.889,-7.94 -2.861,-20.809 0.061,-28.736l68.982,-203.849c2.923,-7.929 -0.082,-10.104 -6.707,-4.859l-263.647,213.57c-6.625,5.244 -6.653,13.785 -0.062,19.069z"/>
    <path id="svg_4" d="m255.845,272.773l263.77,216.474c6.591,5.288 9.593,3.137 6.707,-4.807l-69.104,-206.862c-2.889,-7.94 -2.861,-20.809 0.061,-28.736l68.981,-203.849c2.923,-7.929 -0.082,-10.104 -6.707,-4.859l-263.647,213.57c-6.624,5.244 -6.652,13.785 -0.061,19.069z"/>
   </g>
  </g>
  <g id="svg_5"/>
  <g id="svg_6"/>
  <g id="svg_7"/>
  <g id="svg_8"/>
  <g id="svg_9"/>
  <g id="svg_10"/>
  <g id="svg_11"/>
  <g id="svg_12"/>
  <g id="svg_13"/>
  <g id="svg_14"/>
  <g id="svg_15"/>
  <g id="svg_16"/>
  <g id="svg_17"/>
  <g id="svg_18"/>
  <g id="svg_19"/>
 </g>
</svg>