<svg id="Layer_1" data-name="Layer 1" xmlns="http://www.w3.org/2000/svg" viewBox="0 0 96.79 79.75"><defs><style>.cls-1{fill:#fff;}.cls-2{fill:#ededed;}.cls-3{fill:#dedefd;}.cls-4{fill:#e59c9e;}.cls-5{fill:#359cf9;}.cls-6{fill:#706f6f;}</style></defs><title>brush--teeth</title><path class="cls-1" d="M38.35,22.29c-5.82-.26-10.57-6.87-18.76-2.24s-7.79,20.6-5.15,34.21,9.24,26.68,12.81,26.68,5.55-17,10.17-16.77,5,17.3,12.68,16.77,6.08-10.43,12.16-20.6S73,24.41,64.77,20.05,44.16,22.56,38.35,22.29Z" transform="translate(-2 -1.2)"/><path class="cls-2" d="M64.77,20.05a13.1,13.1,0,0,0-1.27-.58,77.84,77.84,0,0,1-.27,26.64C60.32,61.17,54.6,72.8,49.66,74c-2.75.69-5.67-1.18-7.71-3,1.78,4.76,3.78,10.18,8.15,9.87,7.67-.52,6.08-10.43,12.16-20.6S73,24.41,64.77,20.05Z" transform="translate(-2 -1.2)"/><path class="cls-2" d="M36.36,64.42a1.89,1.89,0,0,0-1.76-.69c-3.25.26-6.16,7.48-8.89,7.75s-4.4-4.41-6.69-7.84c-.89-1.33-1.81-1.63-2.61-1.5,3.15,10.37,8,18.8,10.84,18.8C30.53,80.94,32.47,66.52,36.36,64.42Z" transform="translate(-2 -1.2)"/><path class="cls-1" d="M83.51,28a3.89,3.89,0,0,0-7.77,0,3.83,3.83,0,0,0,.89,2.47,28.87,28.87,0,0,1-2.24,4.44,21.14,21.14,0,0,1-3.74,4.81A22.79,22.79,0,0,1,61,44c-2.5.53-1.44,4.35,1.05,3.82a28,28,0,0,0,11.39-5.3c1.79-1.44,3.12-3.73,4.36-5.62a29.84,29.84,0,0,0,2.54-5.09A3.89,3.89,0,0,0,83.51,28Z" transform="translate(-2 -1.2)"/><path class="cls-3" d="M54.5,20.07a4.43,4.43,0,0,0,1.07-2.9,4.49,4.49,0,0,0-7.37-3.46,4.48,4.48,0,0,0-7.35.18,4.45,4.45,0,0,0-4.18-.36A4.5,4.5,0,0,0,28,15.3a3.87,3.87,0,0,0,0,.48A5.58,5.58,0,1,0,25.8,26.45a5.77,5.77,0,0,0,1.62-.24,5.57,5.57,0,0,0,8.83,1.92,3.88,3.88,0,0,0,4.44-.52,5.48,5.48,0,0,0,7.58-1.08,4.49,4.49,0,0,0,6.23-6.46Z" transform="translate(-2 -1.2)"/><path class="cls-3" d="M23.68,10.8A2.71,2.71,0,1,0,21,8.1,2.71,2.71,0,0,0,23.68,10.8Z" transform="translate(-2 -1.2)"/><path class="cls-3" d="M34.25,7a1.61,1.61,0,1,0-1.61-1.61A1.61,1.61,0,0,0,34.25,7Z" transform="translate(-2 -1.2)"/><path class="cls-1" d="M15.14,54.38a3.81,3.81,0,0,0-2.18.68,27.46,27.46,0,0,0-4-3.08c-.78-.48-1.6-.88-2.37-1.39A2,2,0,0,1,6,50.1L5.93,50a1,1,0,0,1,.16-.29c.9-1.46,3-2.28,4.47-2.89,1.85-.75,3.75-1.34,5.58-2.13a2,2,0,0,0,.71-2.72,2,2,0,0,0-2.71-.71c-3.87,1.69-9.87,2.65-11.77,7C1.22,50.91,2.9,53,5.08,54.36c1.13.69,2.29,1.27,3.37,2a30.42,30.42,0,0,1,2.86,2.48,3.89,3.89,0,1,0,3.83-4.51Z" transform="translate(-2 -1.2)"/><path class="cls-4" d="M31.76,49.68H42.62S41.62,54,37.19,54,31.76,49.68,31.76,49.68Z" transform="translate(-2 -1.2)"/><path class="cls-5" d="M96.87,41.28,61,15.85l-.53.74a1.61,1.61,0,0,1-.24.28L95.65,42c.94.67,2.65-.71,2.65-.71h0A1.22,1.22,0,0,1,96.87,41.28Z" transform="translate(-2 -1.2)"/><path class="cls-5" d="M98.28,39.3,60.6,12.59h0l-15.49-11a2.23,2.23,0,0,0-3.1.53l-.64.9a2.23,2.23,0,0,0,.53,3.1l.52.37A4.22,4.22,0,0,1,44,5.78c2.13-.35,14.33,9,14.59,9.91a3.78,3.78,0,0,1-.6,1.74,2.23,2.23,0,0,0,2.22-.56,1.61,1.61,0,0,0,.24-.28l.53-.74L96.87,41.28a1.22,1.22,0,0,0,1.42,0,1.15,1.15,0,0,0,.27-.27A1.21,1.21,0,0,0,98.28,39.3Z" transform="translate(-2 -1.2)"/><path class="cls-1" d="M58.62,15.69C58.36,14.76,46.16,5.43,44,5.78a4.22,4.22,0,0,0-1.61.73c-1.85,1.24-3.73,3.72-3.48,4.89.33,1.51,2.54,3.36,2.54,3.36l1.36-1.25-.66,1.65A4.56,4.56,0,0,0,44,17.08c1.52,1,2.11,1.33,2.11,1.33l1.52-1.73L47,18.41a11.28,11.28,0,0,0,1.32,1.17,2.23,2.23,0,0,0,1.65.67L52.81,17l-2.18,4a13,13,0,0,0,2.91,2.18c.78.29,3.31-3.39,4.48-5.72A3.78,3.78,0,0,0,58.62,15.69Z" transform="translate(-2 -1.2)"/><path class="cls-6" d="M30.13,40.26c0,1.65-.94,3-2.1,3s-2.11-1.34-2.11-3,.94-3,2.11-3S30.13,38.6,30.13,40.26Z" transform="translate(-2 -1.2)"/><path class="cls-1" d="M29.55,39a1,1,0,1,1-1-1A1,1,0,0,1,29.55,39Z" transform="translate(-2 -1.2)"/><path class="cls-6" d="M48.46,40.26c0,1.65-1,3-2.11,3s-2.11-1.34-2.11-3,.95-3,2.11-3S48.46,38.6,48.46,40.26Z" transform="translate(-2 -1.2)"/><path class="cls-1" d="M47.87,39a1,1,0,1,1-1-1A1,1,0,0,1,47.87,39Z" transform="translate(-2 -1.2)"/></svg>