<?xml version="1.0" encoding="utf-8"?>
<!-- Generator: Adobe Illustrator 22.0.0, SVG Export Plug-In . SVG Version: 6.00 Build 0)  -->
<svg version="1.1" id="Layer_1" xmlns="http://www.w3.org/2000/svg" xmlns:xlink="http://www.w3.org/1999/xlink" x="0px" y="0px"
	 viewBox="0 0 194.2 97.8" style="enable-background:new 0 0 194.2 97.8;" xml:space="preserve">
<style type="text/css">
	.st0{fill:#DEDEFD;}
	.st1{fill:#F5F5F5;}
</style>
<g>
	<path class="st0" d="M179.3,50.2c-2.2-11.5-12.3-20.1-24.5-20.1c-5.1,0-9.9,1.6-13.9,4.2c-7.3-13.2-21.3-22.1-37.5-22.1
		c-21.4,0-39.2,15.8-42.3,36.3c-1.8-0.4-3.6-0.6-5.6-0.6c-10.1,0-18.8,6-22.7,14.6c-2.4-1.2-5.2-1.9-8.1-1.9
		C14.6,60.7,6.3,69,6.3,79.2c0,10.2,8.3,18.5,18.5,18.5h30.8h7.2H134h2.3h32.6c13.8,0,24.9-11.2,24.9-24.9
		C193.9,62.8,187.9,54.1,179.3,50.2z"/>
	<path class="st1" d="M77.2,58c-4.2-3.5-10.6-4-15.4-1.3c-4.7,2.7-7.5,8.5-6.6,13.9c1.7-4.2,5-7.2,8.8-9.6
		C67.8,58.6,72.6,57.6,77.2,58z"/>
	<path class="st1" d="M132.8,63.3c-0.3-5.5-4.3-10.5-9.5-12.1c-5.2-1.6-11.3,0.3-14.7,4.6c4.3-1.6,8.7-1.2,13,0
		C126,56.9,130,59.7,132.8,63.3z"/>
	<path class="st1" d="M64.7,60.4C65,44,75.6,28.5,90.1,21.1c11.3-5.7,25-6.3,36.8-1.9c-6.7-4.4-14.8-7-23.5-7
		c-21.4,0-39.2,15.8-42.3,36.3c-1.8-0.4-3.6-0.6-5.6-0.6c-4.7,0-9.1,1.3-12.9,3.6c3.1-0.7,6.3-0.8,9.4-0.1
		C57.2,52.7,61.9,55.9,64.7,60.4z"/>
	<path class="st1" d="M193.9,72.9c0-10.1-6-18.7-14.6-22.7c-2.2-11.5-12.3-20.1-24.5-20.1c-5.1,0-9.9,1.6-13.9,4.2
		c-0.2-0.3-14.3,12.1-18.2,20.6c6.4-7.4,14.1-13.2,23.7-15.4c9.5-2.2,20.8,1.2,25.6,9.7c-9.4-1.9-19.6,1.9-26.1,8.9
		c9.2-8.5,24-8.4,34.7-1.7c7,4.4,11.7,11.9,13.1,20C193.8,75.2,193.9,74.1,193.9,72.9z"/>
</g>
</svg>
