<?xml version="1.0" encoding="utf-8"?>
<!-- Generator: Adobe Illustrator 16.0.0, SVG Export Plug-In . SVG Version: 6.00 Build 0)  -->
<!DOCTYPE svg PUBLIC "-//W3C//DTD SVG 1.1//EN" "http://www.w3.org/Graphics/SVG/1.1/DTD/svg11.dtd">
<svg version="1.1" id="Layer_1" xmlns="http://www.w3.org/2000/svg" xmlns:xlink="http://www.w3.org/1999/xlink" x="0px" y="0px"
	 width="612px" height="569px" viewBox="0 0 612 569" enable-background="new 0 0 612 569" xml:space="preserve">
<g>
	<g>
		<polygon fill="#F2979D" points="398.246,149.414 443.401,159.455 263.228,459.028 218.074,448.989 		"/>
	</g>
	<g>
		<polygon fill="#EA858B" points="398.248,148.748 443.403,158.788 512.111,248.218 466.957,238.178 		"/>
	</g>
	<g>
		<polygon fill="#F2979D" points="565.468,80.446 610.622,90.484 512.096,248.871 466.94,238.831 		"/>
	</g>
	<g>
		<polygon fill="#E9848A" points="218.074,448.989 398.248,148.748 466.957,238.178 565.468,80.446 466.94,238.831 398.246,149.414 
					"/>
	</g>
	<polygon fill="#F2979D" points="314.545,435.896 199.709,412.93 209.133,506.566 	"/>
</g>
<g>
	<g enable-background="new    ">
		<g>
			<polygon fill="#E37374" points="293.654,93.024 354.562,106.569 111.541,510.644 50.635,497.102 			"/>
		</g>
		<g>
			<polygon fill="#B8585D" points="293.658,92.128 354.565,105.667 447.24,226.294 386.335,212.753 			"/>
		</g>
		<g>
			<polygon fill="#E37374" points="519.211,0 580.116,13.541 447.22,227.177 386.313,213.634 			"/>
		</g>
		<g>
			<polygon fill="#E37374" points="50.635,497.102 293.658,92.128 386.335,212.753 519.211,0 386.313,213.634 293.654,93.024 			"/>
		</g>
	</g>
	<polygon fill="#E37374" points="180.757,479.443 25.863,448.465 38.573,574.764 	"/>
</g>
<g>
	<g>
		<polygon fill="#F1969D" points="198.535,82.957 243.69,92.997 63.519,392.572 18.363,382.533 		"/>
	</g>
	<g>
		<polygon fill="#E9848A" points="198.537,82.29 243.692,92.33 312.401,181.76 267.246,171.722 		"/>
	</g>
	<g>
		<polygon fill="#F1969D" points="365.758,13.99 410.912,24.029 312.385,182.413 267.229,172.373 		"/>
	</g>
	<g>
		<polygon fill="#E9848A" points="18.363,382.533 198.537,82.29 267.246,171.722 365.758,13.99 267.229,172.373 198.535,82.957 		
			"/>
	</g>
	<polygon fill="#F1969D" points="114.834,369.44 0,346.473 9.421,440.109 	"/>
</g>
</svg>
