<svg id="Layer_1" data-name="Layer 1" xmlns="http://www.w3.org/2000/svg" viewBox="0 0 139.08 248.25"><defs><style>.cls-1{fill:#007afe;fill-rule:evenodd;}.cls-2{fill:#fff;}.cls-3{fill:#ededed;}.cls-4{fill:#e59c9e;}.cls-5{fill:#d0eaeb;}.cls-6{fill:#706f6f;}</style></defs><title>happy--teeth</title><path class="cls-1" d="M127.4,7V33.72h4.31V227.13c0,13.05.49,21.35-14,21.35s-13.16-7.6-13.16-20.65l0-31.29c0-2.35.06-2.54-2.54-2.54l-6,.09c-2.61,0,0-2.35,0,0v35.66c0,17.76,2.56,25.5,22.25,25.5,20.66,0,22.58-10.28,22.58-28V33.72h4.43V7.07Q141,8.78,136.5,10.7C133.35,9.39,130.33,8.16,127.4,7Z" transform="translate(-6.17 -7)"/><path class="cls-2" d="M97.24,140.2c11.16,4.35,26.32,1.3,28.5,14.07s-15,29.63-18.24,39.41,2.45,21.47-3.81,22.83-12.79-4.9-16.33-10.87-5.71-19.3-10.07-19.3,1.36,24.73-4.9,25.82-26.67-20.93-19.86-45.93,9.79-34.78,21.23-36.69S86.08,135.85,97.24,140.2Z" transform="translate(-6.17 -7)"/><path class="cls-3" d="M71.41,130.08c-24.94,35.76-17.48,76.66,4.15,68.81.1,6.3,0,12.73-3.17,13.27-6.26,1.09-26.67-20.93-19.86-45.93C58.84,143,61.87,132.94,71.41,130.08Z" transform="translate(-6.17 -7)"/><path class="cls-3" d="M79,187.06c6.2-.95,13.43,15.46,17.59,16.15s4.75-8.43,10.72-8.83c-2.78,9.63,2.51,20.8-3.6,22.13s-12.79-4.9-16.33-10.87C84.31,200.48,82.28,189.89,79,187.06Z" transform="translate(-6.17 -7)"/><path class="cls-2" d="M30.59,142.56a5.11,5.11,0,1,1,9.05,3.24,35.61,35.61,0,0,0,2.94,5.81,28.05,28.05,0,0,0,4.91,6.33c3.38,2.87,8.39,4.7,12.67,5.62,3.29.7,1.89,5.71-1.38,5a36.8,36.8,0,0,1-15-7c-2.35-1.88-4.09-4.88-5.73-7.37a38.44,38.44,0,0,1-3.33-6.67A5.11,5.11,0,0,1,30.59,142.56Z" transform="translate(-6.17 -7)"/><path class="cls-2" d="M104.31,172.59c3.68,2.37,8.52,4.6,13,4.94a28.1,28.1,0,0,0,7.94-1,36.93,36.93,0,0,0,6.2-2,5.1,5.1,0,1,1,2.21,4.7,38.16,38.16,0,0,1-7.07,2.38c-2.92.61-6.27,1.51-9.27,1.19a36.77,36.77,0,0,1-15.53-5.62C98.93,175.3,101.48,170.77,104.31,172.59Z" transform="translate(-6.17 -7)"/><path class="cls-4" d="M79.12,164.76l-13.53-4.51s-.55,5.78,5,7.62S79.12,164.76,79.12,164.76Z" transform="translate(-6.17 -7)"/><path class="cls-5" d="M51.16,122.23s3.21,10.44,6.68,7.24S51.16,122.23,51.16,122.23Z" transform="translate(-6.17 -7)"/><path class="cls-5" d="M46.3,138.45s3.21,10.44,6.68,7.24S46.3,138.45,46.3,138.45Z" transform="translate(-6.17 -7)"/><path class="cls-5" d="M33.85,172.16s3.21,10.44,6.69,7.24S33.85,172.16,33.85,172.16Z" transform="translate(-6.17 -7)"/><path class="cls-5" d="M19.47,149.92s3.22,10.44,6.69,7.24S19.47,149.92,19.47,149.92Z" transform="translate(-6.17 -7)"/><path class="cls-5" d="M12.06,169.06s3.22,10.43,6.69,7.23S12.06,169.06,12.06,169.06Z" transform="translate(-6.17 -7)"/><path class="cls-5" d="M18.32,129.26S21.54,139.7,25,136.5,18.32,129.26,18.32,129.26Z" transform="translate(-6.17 -7)"/><path class="cls-5" d="M26.89,117.24s3.21,10.43,6.68,7.23S26.89,117.24,26.89,117.24Z" transform="translate(-6.17 -7)"/><path class="cls-5" d="M6.17,140.51s3.21,10.44,6.69,7.24S6.17,140.51,6.17,140.51Z" transform="translate(-6.17 -7)"/><path class="cls-5" d="M68.64,125.34s3.22,10.44,6.69,7.24S68.64,125.34,68.64,125.34Z" transform="translate(-6.17 -7)"/><path class="cls-5" d="M64.94,136.59s3.21,10.44,6.69,7.24S64.94,136.59,64.94,136.59Z" transform="translate(-6.17 -7)"/><path class="cls-5" d="M37.56,152.56s3.21,10.44,6.68,7.24S37.56,152.56,37.56,152.56Z" transform="translate(-6.17 -7)"/><path class="cls-5" d="M54.63,159.72s3.21,10.44,6.68,7.24S54.63,159.72,54.63,159.72Z" transform="translate(-6.17 -7)"/><path class="cls-5" d="M51.16,185.63s3.21,10.43,6.68,7.23S51.16,185.63,51.16,185.63Z" transform="translate(-6.17 -7)"/><path class="cls-5" d="M29.78,192.33s3.21,10.43,6.68,7.23S29.78,192.33,29.78,192.33Z" transform="translate(-6.17 -7)"/><path class="cls-5" d="M6.17,115.63s3.21,10.44,6.69,7.24S6.17,115.63,6.17,115.63Z" transform="translate(-6.17 -7)"/><path class="cls-6" d="M81.07,155.86a12.15,12.15,0,0,1,11.77.69c.83.54.06,1.88-.78,1.33a10.58,10.58,0,0,0-10.21-.69c-.9.42-1.69-.91-.78-1.33Z" transform="translate(-6.17 -7)"/><path class="cls-6" d="M69.93,153a7.09,7.09,0,0,0-6.2-3.11c-1,0-1-1.5,0-1.55a8.67,8.67,0,0,1,7.53,3.88c.57.83-.77,1.6-1.33.78Z" transform="translate(-6.17 -7)"/></svg>