<?xml version="1.0" encoding="utf-8"?>
<!-- Generator: Adobe Illustrator 16.0.0, SVG Export Plug-In . SVG Version: 6.00 Build 0)  -->
<!DOCTYPE svg PUBLIC "-//W3C//DTD SVG 1.1//EN" "http://www.w3.org/Graphics/SVG/1.1/DTD/svg11.dtd">
<svg version="1.1" id="Layer_1" xmlns="http://www.w3.org/2000/svg" xmlns:xlink="http://www.w3.org/1999/xlink" x="0px" y="0px"
	 width="450px" height="269px" viewBox="0 0 450 269" enable-background="new 0 0 450 269" xml:space="preserve">
<g>
	<defs>
		<rect id="SVGID_1_" x="-256" y="-173" width="960" height="560"/>
	</defs>
	<clipPath id="SVGID_2_">
		<use xlink:href="#SVGID_1_"  overflow="visible"/>
	</clipPath>
	<path clip-path="url(#SVGID_2_)" fill="#FFFFFF" d="M388.021,99.021c1.367,7.228,5.304,12.721,11.272,16.933
		c6.216,4.386,14.06,9.884,21.998,9.139c0.953-0.09,0.962-1.591,0-1.5c-7.111,0.667-14.111-4.222-19.858-7.998
		c-6.267-4.117-10.557-9.525-11.966-16.973C389.289,97.675,387.843,98.076,388.021,99.021"/>
	<path clip-path="url(#SVGID_2_)" fill="#FFFFFF" d="M390.186,106.679c5.575,8.084,13.092,14.153,22.154,17.927
		c0.89,0.371,1.278-1.08,0.398-1.446c-8.667-3.609-15.929-9.512-21.258-17.238C390.937,105.132,389.636,105.882,390.186,106.679"/>
	<path clip-path="url(#SVGID_2_)" fill="#FFFFFF" d="M50.553,180.914l-8.158,4.357c-1.167,0.624-2.632,0.18-3.256-0.987
		c-0.623-1.167-0.178-2.633,0.989-3.257l8.158-4.357c1.167-0.624,2.632-0.179,3.255,0.988
		C52.165,178.825,51.72,180.29,50.553,180.914"/>
	<path clip-path="url(#SVGID_2_)" fill="#FFFFFF" d="M53.865,184.311l-9.82,5.246c-1.167,0.624-2.632,0.179-3.256-0.988
		c-0.623-1.167-0.179-2.632,0.988-3.256l9.821-5.246c1.167-0.624,2.632-0.179,3.255,0.988
		C55.478,182.222,55.032,183.687,53.865,184.311"/>
	<path clip-path="url(#SVGID_2_)" fill="#FFFFFF" d="M47.473,177.805l-6.483,3.464c-1.167,0.623-2.632,0.179-3.256-0.989
		c-0.624-1.167-0.179-2.632,0.988-3.255l6.484-3.464c1.167-0.624,2.632-0.179,3.255,0.988
		C49.085,175.716,48.64,177.181,47.473,177.805"/>
	<path clip-path="url(#SVGID_2_)" fill="#FFFFFF" d="M44.235,175.023l-4.457,2.381c-1.168,0.624-2.633,0.18-3.256-0.988
		c-0.624-1.166-0.179-2.632,0.988-3.256l4.458-2.381c1.167-0.624,2.632-0.179,3.255,0.988
		C45.848,172.935,45.402,174.399,44.235,175.023"/>
	<path clip-path="url(#SVGID_2_)" fill="#FFFFFF" d="M408.438,61.55c-2.388-6.603-10.04-19.741-24.586-22.97
		c-12.696-2.818-19.668-0.386-27.529,3.366c-18.103,8.642-31.529,24.598-38.494,36.656c-14.643,25.352-31.259,63.867-44.364,89.009
		c-5.45,10.455-23.797,50.717-31.138,50.717c-2.746,0-6.373-4.678-7.065-5.561c-15.031,0-19.531,0.306-33.25,0.306
		c4.998,9.402,13.394,23.408,23.089,29.392c7.797,4.812,12.644,5.119,20.02,5.119c13.487,0,21.571-3.482,28.238-10.914
		c6.427-7.165,20.125-35.509,20.125-35.509s30.169-67.291,41.479-89.104c3.144-6.063,12.335-21.495,16.858-21.495
		c4.461,0,2.664,3.381,13.206,12.398c8.745,7.481,16.283,13.135,25.184,15.91c8.735,2.726,3.055-10.045,3.055-10.045
		s6.442,6.739,9.434,8.534c2.228,1.336,5.282,1.301,12.975-3.616C426.759,106.654,418.472,89.292,408.438,61.55"/>
	<path clip-path="url(#SVGID_2_)" fill="#FFFFFF" d="M189.54,125.402c-0.79-1.287-3.773-6.312-8.815-13.157
		c-1.609-2.185-3.823-4.608-6.543-7.008c-1.456-1.285-17.456,16.69-16.046,18.848c1.411,2.158,2.474,4.283,3.733,6.124
		c12.426,18.173,26.267,57.531,36.364,77.477c11.634-0.521,20.89-0.783,33.755-0.588
		C227.972,198.754,203.429,148.011,189.54,125.402"/>
	<path clip-path="url(#SVGID_2_)" fill="#FFFFFF" d="M170.374,100.438c-14.478-9.642-39.553-15.539-62.546,3.242
		c-23.641,19.311-13.027,41.306-9.862,54.629c2.769,11.651,3.441,37.488-2.729,47.177c-1.657,2.602-4.109,6.739-13.592,5.58
		c-5.518-0.675-13.894-9.332-17.913-13.171c-3.575-3.416-14.119-15.385-14.119-15.385l-3.371,5.059c0,0,11.59,22.759,25.393,31.926
		c12.482,8.29,22.95,5.201,28.554,2.213c7.903-4.215,10.696-12.075,12.433-18.756c3.577-13.747,3.024-38.775,1.113-51.489
		c-1.714-11.396-0.486-17.507,2.4-25.499c3.652-10.114,19.295-15.387,28.519-12.151c2.093,0.733,7.717,4.554,9.254,5.453
		C158.194,112.247,162.986,105.368,170.374,100.438"/>
	<path clip-path="url(#SVGID_2_)" fill="#FFFFFF" d="M343.648,107c-7.36,14.182-30.128,63.355-45.398,100.685h38.582
		c26.274,0,53.474-22.877,53.474-51.098C390.306,131.476,366.904,111.297,343.648,107 M348.893,201.306
		c-5.273,1.312-7.502-6.819-2.241-8.128c15.207-3.784,24.17-17.968,29.79-31.617c2.041-4.955,10.192-2.771,8.129,2.241
		C377.817,180.2,367.18,196.756,348.893,201.306"/>
	<path clip-path="url(#SVGID_2_)" fill="#FFFFFF" d="M272.775,59.606c-24.875,0-46.225,16.184-55.438,39.282
		c-5.437-2.324-11.36-3.614-17.568-3.614c-19.131,0-35.614,12.135-43.168,29.625c-5.004-2.529-10.597-4.229-16.488-3.949
		c-11.752,0.557-21.748,14.295-21.78,17.883c-0.075,8.398,1.94,20.549,2,29.167c0.117,16.851-0.999,28.749-4.334,39.686h129.75
		c0,0,11.75-20.186,67.313-133.246C302.042,61.659,290.254,59.606,272.775,59.606"/>
	<path clip-path="url(#SVGID_2_)" fill="#FFFFFF" d="M88.156,145.407c-16.153,0-26.061,13.936-26.061,31.286
		s12.247,27.374,24.655,27.641c4.5,0.098,5.673-5.788,6-7.584C99.011,174.005,88.97,145.407,88.156,145.407"/>
</g>
</svg>
