<svg xmlns="http://www.w3.org/2000/svg" viewBox="0 0 385.77 210.23"><defs><style>.cls-1{fill:#339dd1;}</style></defs><title>nubibuz-logotipo---blue</title><g id="fancy1"><g id="_Group_" data-name="&lt;Group&gt;"><g id="_Group_2" data-name="&lt;Group&gt;"><path class="cls-1" d="M644,272c1.37,7.23,5.3,12.72,11.27,16.93,6.22,4.39,14.06,9.89,22,9.14,1-.09,1-1.59,0-1.5-7.11.67-14.11-4.22-19.86-8-6.26-4.12-10.55-9.53-12-17-.18-.95-1.63-.54-1.45.4Z" transform="translate(-292.24 -210.36)"/></g><g id="_Group_3" data-name="&lt;Group&gt;"><path class="cls-1" d="M646.19,279.68a49.92,49.92,0,0,0,22.15,17.93c.89.37,1.28-1.08.4-1.45a48.08,48.08,0,0,1-21.26-17.24c-.54-.79-1.84,0-1.29.76Z" transform="translate(-292.24 -210.36)"/></g><rect id="_Rectangle_" data-name="&lt;Rectangle&gt;" class="cls-1" x="294.31" y="351.57" width="14.06" height="4.81" rx="2.41" ry="2.41" transform="translate(-423.49 -26.59) rotate(-28.11)"/><g id="_Group_4" data-name="&lt;Group&gt;"><rect id="_Rectangle_2" data-name="&lt;Rectangle&gt;" class="cls-1" x="295.85" y="355.41" width="15.95" height="4.81" rx="2.41" ry="2.41" transform="translate(-425 -24.97) rotate(-28.11)"/><rect id="_Rectangle_3" data-name="&lt;Rectangle&gt;" class="cls-1" x="293.02" y="348.01" width="12.16" height="4.81" rx="2.41" ry="2.41" transform="translate(-422.07 -28.07) rotate(-28.11)"/><rect id="_Rectangle_4" data-name="&lt;Rectangle&gt;" class="cls-1" x="291.94" y="344.69" width="9.87" height="4.81" rx="2.41" ry="2.41" transform="translate(-420.77 -29.51) rotate(-28.11)"/><g id="_Group_5" data-name="&lt;Group&gt;"><path id="_Path_" data-name="&lt;Path&gt;" class="cls-1" d="M664.44,234.55c-2.39-6.6-10-19.74-24.59-23-12.69-2.82-19.67-.39-27.53,3.37-18.1,8.64-31.53,24.59-38.49,36.65-14.64,25.35-31.26,63.87-44.37,89-5.45,10.46-23.79,50.72-31.13,50.72-2.75,0-6.38-4.68-7.07-5.56-15,0-19.53.3-33.25.3,5,9.41,13.39,23.41,23.09,29.39,7.8,4.82,12.64,5.12,20,5.12,13.49,0,21.57-3.48,28.24-10.91,6.43-7.17,20.12-35.51,20.12-35.51s30.17-67.29,41.48-89.1c3.15-6.07,12.34-21.5,16.86-21.5s2.67,3.38,13.21,12.4c8.74,7.48,16.28,13.13,25.18,15.91,8.74,2.72,3-10,3-10s6.45,6.73,9.44,8.53c2.23,1.33,5.28,1.3,13-3.62C682.76,279.66,674.47,262.29,664.44,234.55Z" transform="translate(-292.24 -210.36)"/><path id="_Path_2" data-name="&lt;Path&gt;" class="cls-1" d="M445.54,298.4A112.62,112.62,0,0,0,438,287c-1.61-2.18,2.72,1.4,0-1-1.46-1.28-19.41,13.84-18,16s-2.26,1.16-1,3c12.43,18.17,19.9,46.05,30,66,11.63-.52,20.13-2.2,33-2C478,360.66,459.43,321,445.54,298.4Z" transform="translate(-292.24 -210.36)"/><path id="_Path_3" data-name="&lt;Path&gt;" class="cls-1" d="M428,275c-14.48-9.64-41.18-17.1-64.17,1.68C340.19,296,350.8,318,354,331.31c2.76,11.65,3.44,37.49-2.73,47.18-1.66,2.6-4.11,6.73-13.6,5.58-5.51-.68-13.89-9.34-17.91-13.18-3.57-3.41-14.12-15.38-14.12-15.38l-3.37,5.06s11.59,22.76,25.39,31.93c12.49,8.29,23,5.2,28.56,2.21,7.9-4.22,10.69-12.08,12.43-18.76,3.58-13.75,3-38.77,1.11-51.49C368,313.07,365.25,312.31,367,304c4-19,24.43-20.42,33.65-17.19,2.1.74,7.72,4.56,9.26,5.46C414.19,285.25,420.61,279.93,428,275Z" transform="translate(-292.24 -210.36)"/></g></g><path id="_Compound_Path_" data-name="&lt;Compound Path&gt;" class="cls-1" d="M605.65,288c-7.36,14.18-30.13,63.35-45.4,100.69h38.58c26.28,0,53.48-22.88,53.48-51.1C652.31,312.48,628.9,292.3,605.65,288Zm5.24,94.31c-5.27,1.31-7.5-6.82-2.24-8.13,15.21-3.79,24.17-18,29.79-31.62,2-4.95,10.19-2.77,8.13,2.24C639.82,361.2,629.18,377.76,610.89,382.31Z" transform="translate(-292.24 -210.36)"/><path id="_Path_4" data-name="&lt;Path&gt;" class="cls-1" d="M507,251c-21.84,4.68-26.73,13.43-35,32.44a43.24,43.24,0,0,0-15.78-3,42.76,42.76,0,0,0-38.76,24.38,32,32,0,0,0-14.81-3.25c-10.55.46-19.53,11.77-19.55,14.72-.07,6.92,1.74,16.92,1.79,24C385,354.2,384,364,381,373H497.51c-.08.16,7.06-18.53,56.49-113.12C544.1,249.36,521,248,507,251Z" transform="translate(-292.24 -210.36)"/><path id="_Path_5" data-name="&lt;Path&gt;" class="cls-1" d="M337.94,322c-12.3,0-19.85,10.41-19.85,23.36s9.33,20.44,18.78,20.64c3.43.07,4.32-4.32,4.57-5.66C346.21,343.35,338.56,322,337.94,322Z" transform="translate(-292.24 -210.36)"/></g></g></svg>