<?xml version="1.0"?>
<svg xmlns="http://www.w3.org/2000/svg" height="512px" viewBox="-16 0 512 512" width="512px" class=""><g><path d="m420 120.472656v-25.101562c0-52.585938-42.621094-95.371094-95-95.371094h-310c-8.28125 0-15 6.746094-15 15.058594v50.195312c0 21.042969 7.621094 40.320313 20.238281 55.21875zm0 0" data-original="#000000" class="active-path" data-old_color="#000000" fill="#FFFFFF"/><path d="m420 180.707031v-30.117187h-360v30.117187c-33.085938 0-60 27.019531-60 60.234375 0 33.210938 26.914062 60.234375 60 60.234375 0 32.265625-.160156 34.894531.578125 44.425781 12.371094-8.9375 27.542969-14.207031 43.921875-14.207031 8.28125 0 15 6.746094 15 15.058594s-6.71875 15.058594-15 15.058594c-25.03125 0-45.398438 20.449219-45.398438 45.578125 0 40.59375 49.121094 60.75 77.5 32.226562 5.859376-5.871094 15.359376-5.882812 21.21875 0 5.851563 5.882813 5.851563 15.421875 0 21.304688-7.070312 7.097656-15.320312 12.617187-24.28125 16.371094 30.730469 22.640624 68.140626 35.007812 106.460938 35.007812 99.25 0 180-81.066406 180-180.707031v-30.117188c33.085938 0 60-27.023437 60-60.234375 0-33.214844-26.914062-60.234375-60-60.234375zm-195 90.351563h30c8.285156 0 15 6.742187 15 15.058594 0 8.316406-6.714844 15.058593-15 15.058593h-30c-8.285156 0-15-6.742187-15-15.058593 0-8.316407 6.714844-15.058594 15-15.058594zm-26.363281-40.605469c-65.335938 16.398437-61.050781 15.511719-63.648438 15.511719-6.71875 0-12.835937-4.566406-14.539062-11.410156-2.011719-8.070313 2.875-16.246094 10.914062-18.261719l60-15.058594c8.03125-2.023437 16.179688 2.886719 18.1875 10.957031 2.011719 8.066406-2.875 16.242188-10.914062 18.261719zm86.363281 130.957031c-24.8125 0-45 20.269532-45 45.179688 0 8.316406-6.714844 15.058594-15 15.058594s-15-6.742188-15-15.058594c0-41.519532 33.644531-75.296875 75-75.296875 8.285156 0 15 6.742187 15 15.058593 0 8.320313-6.714844 15.058594-15 15.058594zm63.636719-130.957031-60 15.058594c-8.027344 2.015625-16.175781-2.882813-18.1875-10.957031-2.011719-8.070313 2.875-16.246094 10.914062-18.261719l60-15.058594c8.03125-2.023437 16.179688 2.886719 18.1875 10.957031 2.011719 8.066406-2.875 16.242188-10.914062 18.261719zm0 0" data-original="#000000" class="active-path" data-old_color="#000000" fill="#FFFFFF"/></g> </svg>
