<?xml version="1.0"?>
<svg xmlns="http://www.w3.org/2000/svg" id="Layer_1" enable-background="new 0 0 510.442 510.442" height="512px" viewBox="0 0 510.442 510.442" width="512px" class=""><g><g><ellipse cx="214.209" cy="49.558" rx="49.551" ry="49.551" transform="matrix(.29 -.957 .957 .29 104.709 240.218)" data-original="#000000" class="active-path" data-old_color="#000000" fill="#FFFFFF"/><path d="m352.427 373.818 103.292 75.416c9.216 6.728 22.144 4.715 28.875-4.504 6.729-9.218 4.713-22.146-4.504-28.875l-108.737-79.39c-3.538-2.583-7.805-3.975-12.186-3.975h-176.001l-131.627-187.515c-6.557-9.341-19.444-11.599-28.786-5.041-9.341 6.557-11.598 19.445-5.041 28.786l137.798 196.306c3.869 5.511 10.18 8.792 16.914 8.792h80.188v87.75c-36.268 3.949-63.709 21.564-63.709 30.527 0 10.133 35.06 18.347 78.309 18.347s78.309-8.214 78.309-18.347c0-8.937-27.278-26.476-63.386-30.494 0-10.113 0-76.308 0-87.784h70.292z" data-original="#000000" class="active-path" data-old_color="#000000" fill="#FFFFFF"/><g><path d="m485.413 340.277-94.848-66.337c-4.23-2.959-9.267-4.545-14.43-4.545h-83.708c-1.427-10.195-4.066-29.042-5.245-37.463-3.213 1.851-9.508 5.478-12.773 7.36-12.081 6.961-27.28 3.595-35.384-7.344l-36.836-49.605 45.394 39.858c7.24 6.357 17.706 7.376 26.026 2.583l84.763-48.841c10.549-6.079 14.807-19.459 9.108-30.217-5.984-11.296-20.082-15.29-31.063-8.963l-71.291 41.078-33.306-29.244 29.503 16.465 15.266-8.796-2.199-15.706c-2.271-15.436-16.626-26.107-32.062-23.836l-59.24 4.138c-15.436 2.271-26.107 16.626-23.836 32.062 1.393 9.284 13.257 86.707 20.315 132.748 3.005 19.605 19.869 34.076 39.703 34.076h148.936l88.814 62.116c11.225 7.851 26.663 5.283 34.74-5.753 8.356-11.419 5.249-27.724-6.347-35.834z" data-original="#000000" class="active-path" data-old_color="#000000" fill="#FFFFFF"/></g><path d="m338.472 119.964c-.549-12.613 5.516-28.052 16.662-28.052 10.938 0 17.546 15.129 16.608 29.032-.188 2.787 3.463 4.049 4.939 1.678 4.791-7.698 6.64-17.094 5.999-25.927-.493-6.801.944-13.674 4.582-19.441 2.142-3.395 3.252-7.505 2.888-11.893-.771-9.307-8.333-16.827-17.644-17.552-4.025-.313-7.814.613-11.027 2.437-3.911 2.22-8.783 2.219-12.695-.001-3.212-1.823-6.998-2.748-11.022-2.436-9.379.729-16.967 8.349-17.66 17.73-.306 4.14.698 8.028 2.641 11.293 3.688 6.198 5.804 13.252 5.375 20.452-.488 8.186 1.148 16.825 5.326 24.151 1.396 2.443 5.151 1.361 5.028-1.471z" data-original="#000000" class="active-path" data-old_color="#000000" fill="#FFFFFF"/></g></g> </svg>
