<?xml version="1.0" encoding="utf-8"?>
<!-- Generator: Adobe Illustrator 16.0.0, SVG Export Plug-In . SVG Version: 6.00 Build 0)  -->
<!DOCTYPE svg PUBLIC "-//W3C//DTD SVG 1.1//EN" "http://www.w3.org/Graphics/SVG/1.1/DTD/svg11.dtd">
<svg version="1.1" id="Слой_1" xmlns="http://www.w3.org/2000/svg" xmlns:xlink="http://www.w3.org/1999/xlink" x="0px" y="0px"
	 width="638.964px" height="859.456px" viewBox="0 0 638.964 859.456" enable-background="new 0 0 638.964 859.456"
	 xml:space="preserve">
<g>
	<g>
		<g>
			<g>
				<path fill="#EAEAEB" d="M396.397,493.932H141.186c-13.178,0-23.86-10.008-23.86-22.354V152.98
					c0-12.346,10.683-22.354,23.86-22.354h255.211c13.178,0,23.86,10.008,23.86,22.354v318.598
					C420.257,483.924,409.575,493.932,396.397,493.932z"/>
			</g>
			<g>
				<g>
					<g>
						<rect x="153.497" y="160.791" fill="#4AAFFF" width="77.914" height="8.321"/>
					</g>
				</g>
			</g>
			<g>
				<g>
					<g>
						<rect x="153.497" y="179.075" fill="#FFFFFF" width="57.205" height="8.321"/>
					</g>
				</g>
			</g>
			<g>
				<g>
					<g>
						<rect x="153.497" y="197.359" fill="#FFFFFF" width="140.646" height="8.321"/>
					</g>
				</g>
			</g>
			<g>
				<g>
					<g>
						<rect x="288.024" y="249.945" fill="#4AAFFF" width="96.503" height="8.321"/>
					</g>
				</g>
			</g>
			<g>
				<g>
					<g>
						<rect x="253.856" y="268.229" fill="#FFFFFF" width="130.671" height="8.321"/>
					</g>
				</g>
			</g>
			<g>
				<g>
					<g>
						<rect x="210.325" y="286.514" fill="#FFFFFF" width="174.202" height="8.322"/>
					</g>
				</g>
			</g>
			<g>
				<g>
					<g>
						<rect x="278.256" y="339.139" fill="#4AAFFF" width="106.271" height="8.321"/>
					</g>
				</g>
			</g>
			<g>
				<g>
					<g>
						<rect x="237.497" y="357.423" fill="#FFFFFF" width="147.03" height="8.322"/>
					</g>
				</g>
			</g>
			<g>
				<g>
					<g>
						<rect x="243.32" y="375.708" fill="#FFFFFF" width="141.207" height="8.32"/>
					</g>
				</g>
			</g>
		</g>
		<g>
			<g>
				<path fill="#353A3D" d="M207.925,784.154c0,0,6.574,9.217,15.797,11.207c9.222,1.99,18.307,5.157,18.376,10.61
					s-26.664,8.705-37.218,3.207c-15.751-8.203-17.353-5.73-19.099-9.829c-1.746-4.104,2.098-15.068,1.984-16.373
					C187.625,781.365,207.925,784.154,207.925,784.154z"/>
			</g>
			<g>
				<path fill="#81807E" d="M206.904,779.609c0,0,1.199,4.451,1.021,4.545c-0.179,0.094-20.782,2.395-20.159-1.178
					c0.505-2.896,1.227-6.046,1.227-6.046L206.904,779.609z"/>
			</g>
			<g>
				<path fill="#353A3D" d="M138.584,783.543c0,0,4.689,8.816,12.702,11.818c8.565,3.209,15.434,6.899,15.277,12.212
					c-0.155,5.313-20.938,10.697-36.057,0.5c-9.552-6.441-12.579-6.473-14.112-10.53c-1.532-4.057,2.661-14.598,2.604-15.873
					C118.929,780.096,138.584,783.543,138.584,783.543z"/>
			</g>
			<g>
				<path fill="#81807E" d="M138.819,778.968c0,0-0.057,4.491-0.234,4.575c-0.177,0.086-20.091,1.623-19.585-1.873
					c0.402-2.774,1.933-6.13,1.933-6.13L138.819,778.968z"/>
			</g>
			<g>
				<path fill="#2D3133" d="M211.833,509.686c0,0,18.501,76.454,22.727,99.741c3.597,19.82,6.464,40.463,4.74,54.771
					c-2.134,17.714-28.9,109.521-27.782,114.717c1.119,5.194-28.01,0.831-28.01,0.831s20.358-102.41,16.292-121.47
					c-3.013-14.117-29.401-107.898-33.446-103.088c-4.044,4.811-9.06,88.508-12.055,102.402
					c-2.995,13.893-12.19,123.667-12.19,123.667s-20.559,2.842-26.05-1.512c0,0-2.5-93.734-0.591-119.782
					c0.728-9.926-12.415-119.027,4.437-162.946C128.81,473.807,211.833,509.686,211.833,509.686z"/>
			</g>
			<g>
				<path fill="#DECBC4" d="M292.362,440.185c-13.186-1.735-54.671,15.481-58.439,14.182c-2.594-0.892-8.677-19.463-13.022-33.519
					c-2.57-8.314-4.532-15.05-4.805-15.605l-0.016-0.029c0.042,0.372,0.715,6.729-0.142,15.079c-0.054,0.541-0.118,1.09-0.186,1.646
					c-0.019,0.145-0.038,0.288-0.058,0.436c-0.388,2.99-0.98,6.182-1.868,9.407c-1.317,4.763-1.939,11.032-2.174,17.646v0.027
					c-0.003,0.051-0.003,0.099-0.009,0.153c-0.004,0.152-0.014,0.303-0.014,0.456c0,0.061-0.006,0.123-0.006,0.187
					c-0.369,12.037,0.519,25.015,0.888,31.921c0.58,10.699-3.177,15.516-3.285,15.653c-0.003,0.003-0.003,0.003-0.003,0.003
					l-3.975-0.522l-2.872-0.379l-0.035-0.006l-3.836-0.504l-15.045-1.982l-5.448-0.717l-1.289-0.172l-9.531-1.255l-26.875-3.543
					l-2.948-0.388l-1.215-0.159l-10.135-1.339l-4.579-0.601l-0.017-0.003c0,0-3.892-25.85-4.188-39.821
					c-0.27-12.834-7.603-38.892-8.799-43.059c-0.006-0.03-0.016-0.058-0.025-0.087c-0.009-0.039-0.02-0.078-0.031-0.114
					c-0.022-0.072-0.039-0.132-0.055-0.184c-0.007-0.03-0.017-0.06-0.026-0.09c0-0.009-0.003-0.019-0.006-0.024
					c-0.004-0.009-0.007-0.018-0.007-0.027c-0.01-0.029-0.01-0.044-0.01-0.044s-21.935,21.589-26.191,31.009
					c-1.298,2.858-5.266,10.632-10.317,20.097c-3.455-6.177-5.618-10.471-5.618-11.546c0-0.132,0.003-0.272,0.006-0.42
					c0.324-9.314,10.744-47.082,18.965-71.755c6.385-12.022,11.891-21.746,13.657-22.932c2.676-1.802,13.936-6.317,23.762-9.972
					c0.324-0.12,0.645-0.237,0.959-0.354c0.916-0.339,1.82-0.67,2.698-0.991c0.439-0.159,0.871-0.314,1.298-0.469
					c0.234-0.084,0.465-0.164,0.695-0.246c0.189-0.068,0.375-0.135,0.562-0.2h0.003c4.913-1.751,8.647-2.974,9.416-3.015
					c0.129-0.01,0.334-0.007,0.612,0.002c0.324,0.006,0.744,0.024,1.244,0.055c6.073,0.333,24.201,1.925,30.034,2.443
					c1.061,0.094,1.718,0.154,1.817,0.162c0.01,0,0.013,0,0.013,0s2.778,1.187,6.961,2.979l0.004,0.003l0.388,0.165
					c2.529,1.087,5.455,2.534,8.548,4.12c6.063,3.113,12.763,6.752,18.317,9.23c5.448,2.426,12.906,5.81,13.541,6.284l27.599,74.562
					l47.879-8.199L292.362,440.185z"/>
			</g>
			<g>
				<path fill="#495055" d="M209.226,497.823c0,0,2.021,2.267,2.606,11.862c0,0-83.139-9.087-91.929-12.668
					c0,0-0.343-10.574,1.521-10.758C123.473,486.058,209.226,497.823,209.226,497.823z"/>
			</g>
			<g>
				<path fill="#EEA886" d="M138.327,329.37c0.258,12.225,25.521,18.911,25.521,18.911s10.567-12.411,8.044-13.6
					c-0.991-0.467-1.394-2.32-1.518-4.397c-0.114-1.978,0.021-4.159,0.144-5.544c0.075-0.865,0.146-1.421,0.146-1.421
					s-3.609-3.567-8.201-7.818c-8.025-7.434-19.057-16.956-19.074-13.168c-0.001,0.2,0.029,0.44,0.093,0.719
					C145.421,311.576,138.327,329.37,138.327,329.37z"/>
			</g>
			<g>
				<path fill="#353A3D" d="M140.421,488.134c0,0-1.814,10.721-1.972,13.516l-3.846-0.72c0,0,1.06-11.343,1.683-13.243
					L140.421,488.134z"/>
			</g>
			<g>
				<path fill="#353A3D" d="M202.29,496.572c0,0,1.457,9.745,1.492,13.426l-4.068-0.496c0,0-0.834-12.169-1.299-13.439
					L202.29,496.572z"/>
			</g>
			<g>
				<path fill="#A77860" d="M148.056,311.459c0,0,0,0,0.002,0.002c0.05,0.071,1.121,1.574,2.95,3.729
					c3.878,4.569,11.169,12.078,19.366,15.094c-0.114-1.978,0.021-4.159,0.144-5.544c0.839-0.02,1.678-0.111,2.51-0.283
					c-2.248-3.679-5.493-7.535-5.493-7.535l-5.071-1.421L148.056,311.459z"/>
			</g>
			<g>
				<path fill="#EEA886" d="M143.207,302.498c2.186,4.454,4.261,7.682,4.85,8.961c0,0,0,0,0.002,0.002
					c0.383,0.834,1.427,2.191,2.95,3.729c4.163,4.202,11.902,9.744,19.51,9.55c0.839-0.02,1.678-0.111,2.51-0.283
					c3.071-0.629,6.698-1.967,8.694-5.627c15.761-28.91,4.351-52.551,4.351-52.551s-43.096-11.417-49.839,0.737
					C131.502,275.541,138.072,292.032,143.207,302.498z"/>
			</g>
			<g>
				<path fill="#434343" d="M186.073,266.279c0,0,4.002-0.207,4.991-7.316c0.979-7.023-0.999-8.97-0.999-8.97
					s-17.791-6.978-24.181-7.885c-6.389-0.908-22.099-1.778-25.781,2.166c0,0-8.947-1.948-11.385,11.968
					c-3.867,22.075,13.177,43.512,13.177,43.512s-0.146-14.422,3.25-16.333c3.395-1.911,6.325,2.634,6.325,2.634l6.944,1.165
					c0,0-10.548-21.337,2.104-22.128C173.172,264.303,178.83,267.517,186.073,266.279z"/>
			</g>
			<g>
				<path fill="#EEA886" d="M151.279,280.305c-0.66-6.353-12.925-8.779-12.104-2.119c0.821,6.659,6.861,13.058,9.651,12.833
					C151.617,290.793,151.783,285.148,151.279,280.305z"/>
			</g>
			<g>
				<path fill="#5B83C2" d="M66.15,442.367c0-0.132,0.003-0.272,0.006-0.42c0.237-9.291,5.117-46.492,13.338-71.164
					c3.99-11.981,4.911-20.35,6.456-21.386c2.676-1.799,26.487-8.397,36.59-12.108c0.324-0.12,0.645-0.237,0.959-0.354
					c0.916-0.339,1.82-0.67,2.698-0.991c0.439-0.159,0.871-0.314,1.298-0.469c0.234-0.084,0.465-0.164,0.695-0.246
					c0.189-0.068,0.375-0.135,0.562-0.2c0.016,0.015,0.031,0.032,0.054,0.051c0.901,0.942,5.574,5.918,11.153,13.353
					c10.434,13.902,24.022,36.408,21.942,57.192c-0.666,6.672-1.493,16.25-2.878,27c-0.119,0.919-0.244,1.843-0.369,2.78
					c-0.336,2.475-0.704,4.999-1.105,7.558c-0.24,1.534-0.493,3.081-0.76,4.636c-2.763,16.113-11.422,27.1-19.111,40.239
					c-0.067,0.111-0.132,0.222-0.198,0.333c-0.036,0.063-0.074,0.127-0.109,0.189c-0.164,0.279-0.327,0.562-0.49,0.844
					c-0.263,0.459-0.526,0.925-0.789,1.391c-0.15,0.268-0.298,0.534-0.445,0.805c-1.471,2.645-2.91,5.351-4.308,8.068
					c-0.903,1.754-1.791,3.513-2.657,5.267c-0.09,0.183-0.179,0.363-0.269,0.546c0,0-1.417,3.081-3.231,7.039
					c-0.666,1.453-1.387,3.023-2.111,4.603c-0.497,1.084-0.997,2.174-1.478,3.231c-0.427,0.924-0.837,1.826-1.229,2.678
					c-0.871,1.908-1.634,3.576-2.162,4.744c-0.395,0.871-0.661,1.463-0.747,1.664c-2.645,6.2-4.555,10.985-5.437,13.224
					c-0.352,0.9-0.538,1.387-0.538,1.387l-26.596-13.751c-5.048-2.369-2.41-15.123-0.513-20.101
					c1.577-4.142,3.798-8.582,6.302-13.17c1.024-1.876,2.096-3.777,3.191-5.692c-8.323-13.624-16.753-27.673-22.096-37.222
					C68.313,447.736,66.15,443.442,66.15,442.367z M108.437,403.378c-0.006-0.03-0.016-0.058-0.025-0.087
					c-0.009-0.039-0.02-0.078-0.031-0.114c-0.017-0.063-0.036-0.123-0.055-0.184c-0.007-0.03-0.017-0.06-0.026-0.09
					c0-0.009-0.003-0.019-0.006-0.024c-0.004-0.009-0.007-0.018-0.007-0.027c0,0-12.938,18.945-11.961,35.402
					c0.15,2.562,2.868,9.035,6.827,17.334c0,0.007,0.003,0.01,0.006,0.016c1.439,3.023,3.045,6.287,4.75,9.695
					c0.063-0.141,0.125-0.285,0.188-0.426c2.475-5.657,4.084-10.967,4.084-15.603C112.181,449.271,111.088,413.161,108.437,403.378z
					"/>
			</g>
			<g>
				<path fill="#5B83C2" d="M310.034,414.918l-60.222,12.286l-28.707-70.332c-0.635-0.472-8.865-4.621-14.314-7.051
					c-5.673-2.53-12.852-5.653-19.22-8.407c-3.042-1.318-5.907-2.549-8.327-3.591l-0.199,0.147c0,0,3.555,11.088,8.154,38.767
					c0,0.003,0,0.007,0.003,0.01c0.157,0.931,0.311,1.877,0.468,2.844c0.016,0.11,0.035,0.226,0.055,0.336
					c0.103,0.64,0.208,1.288,0.312,1.946c0.012,0.078,0.025,0.155,0.038,0.23c0.07,0.441,0.141,0.887,0.208,1.337
					c0.173,1.093,0.346,2.206,0.52,3.341c2.051,13.474,4.929,36.402,7.695,59.55v0.009c2.186,18.244,7.167,36.967,8.749,50.938
					c0,0.01,0.004,0.018,0.004,0.027c0.313,2.738,1.061,6.387,2.07,10.503c0.112,0.466,0.23,0.938,0.35,1.415
					c4.455,17.635,13.105,42.597,13.105,42.597l2.519-2.18l7.462-6.455c1.718-1.482,2.368-3.76,1.677-5.846
					c-4.139-12.505-18.202-56.765-20.779-87.885c-0.003-0.009-0.003-0.019-0.003-0.027c-0.808-9.776,2.244-18.985,4.013-27.718
					c0.032,0.075,0.061,0.15,0.09,0.229c1.48,3.858,3.122,8.053,4.775,12.137v0.003c4.439,10.966,8.98,21.127,10.871,21.775
					c4.209,1.45,83.505-18.861,84.053-21.776L310.034,414.918z"/>
			</g>
			<g>
				<path fill="#4E70A6" d="M135.765,365.364l12.291,6.493l-5.251,5.018l13.982,70.725c2.851-16.577,4.147-32.32,5.113-41.975
					c3.216-32.132-31.019-68.379-33.148-70.6c-1.644,0.585-3.42,1.23-5.255,1.91L135.765,365.364z"/>
			</g>
			<g>
				<path fill="#4E70A6" d="M178.856,337.658c0,0,4.591,14.051,9.943,49.123c2.052,13.473,4.931,36.404,7.698,59.549l2.861-66.236
					l-5.855-5.942l5.205-6.095l-11.138-26.643c-3.042-1.317-5.906-2.549-8.328-3.592L178.856,337.658z"/>
			</g>
			<g>
				<path fill="#F5E2D9" d="M128.136,335.168l10.19-5.798c0,0,0.285,5.235,25.521,18.911l-7.167,18.912L128.136,335.168z"/>
			</g>
			<g>
				<path fill="#F5E2D9" d="M170.562,332.008c0,0-0.397,5.65-6.714,16.273l13.988,17.083l1.02-27.706L170.562,332.008z"/>
			</g>
			<g>
				<path fill="#323657" d="M163.81,348.281c0,0-2.711,10.158-1.734,13.002c0,0,5.96,2.032,10.245-0.508
					C172.321,360.775,169.286,353.665,163.81,348.281z"/>
			</g>
			<g>
				<g>
					<path fill="#AD9F99" d="M177.824,494.785c1.517-7.166,0.073-28.644,0.011-29.555l-1.299,0.078
						c0.016,0.222,1.496,22.229,0.012,29.24L177.824,494.785z"/>
				</g>
			</g>
			<g>
				<path fill="#69737A" d="M167.21,491.48c0,0,12.232,1.369,16.278,2.314l-0.53,12.846l-16.02-1.602L167.21,491.48z"/>
			</g>
			<g>
				<path fill="#323657" d="M169.887,359.862c0,0,13.644,32.28,11.418,68.411c-2.308,37.461-6.092,51.045-6.092,51.045l-8.413,9.883
					l-3.71-12.147c0,0,11.289-47.761,4.002-94.234c-1.32-8.422-3.282-24.38-3.282-24.38L169.887,359.862z"/>
			</g>
			<g>
				<path fill="#EEA886" d="M128.888,512.307c0,0,2.928,5.485,5.855,6.4c2.928,0.914,7.197,5.371,7.197,5.371l-20.615,10.171
					c0,0-5.489-10.058-5.733-16.457S128.888,512.307,128.888,512.307z"/>
			</g>
			<g>
				<path fill="#DECBC4" d="M130.845,512.82l1.366,2.572c0,0-13.093,8.971-16.622,9.543l-1.212-3.43L130.845,512.82z"/>
			</g>
			<g>
				<path fill="#5B83C2" d="M132.211,512.934c0,0-9.813,7.602-18.078,11.105L86.325,477.18l14.409-26.096
					C100.734,451.084,131.56,508.362,132.211,512.934z"/>
			</g>
			<g>
				<path fill="#2F4363" d="M215.275,405.336c0.455,8.668,0.388,16.367,0.388,16.367s0,0.003,0,0.006
					c0.003,0.042,0.013,0.276,0.032,0.664c0.02-0.147,0.039-0.291,0.058-0.436c1.48,3.858,3.122,8.053,4.775,12.137
					c0.385-4.732,0.484-9.143,0.372-13.227c-0.663-24.307-8.823-37.053-8.823-37.053C213.948,388.03,214.845,397.12,215.275,405.336
					z"/>
			</g>
			<g>
				<path fill="#2F4363" d="M90.672,496.827l22.262,25.19l-19.07-30.883C92.768,493.05,91.697,494.951,90.672,496.827z"/>
			</g>
			<g>
				<path fill="#323657" d="M252.341,465.246h51.397c3.523,0,6.588-2.259,7.417-5.467l22.326-86.357
					c1.163-4.5-2.477-8.833-7.418-8.833h-51.397c-3.523,0-6.588,2.26-7.418,5.467l-22.325,86.357
					C243.76,460.912,247.4,465.246,252.341,465.246z"/>
			</g>
			<g>
				<g>
					<path fill="#EEA886" d="M315.208,441.238c-2.515-2.181-7.366-3.447-11.521-6.047c-4.154-2.602-0.685-5.281-0.685-5.281
						c-4.27-1.374-3.81-3.199-3.263-4.443c0.738-1.68,5.399-1.203,5.399-1.203s-4.18-0.866-5.899-1.579
						c-1.719-0.712-1.135-3.521,1.51-4.409c2.646-0.888,13.424,1.603,13.424,1.603s-1.758-0.808-7.073-3.307
						c-5.316-2.5-6.483-4.772-3.349-5.864c2.18-0.76,6.46,0.832,14.679,6.005c6.188,3.896,5.686,4.403,5.686,4.403
						S318.211,443.844,315.208,441.238z"/>
				</g>
			</g>
		</g>
		<g>
			<g>
				<g>
					<path fill="#4AAFFF" d="M367.951,75.526c33.772-14.971,72.826-7.012,97.13,17.169c5.884,5.854,10.903,12.658,14.774,20.323
						c11.723,23.215,10.273,49.096-1.525,70.224c-8.177,14.642-21.322,27.002-38.497,34.614c-1.707,0.758-3.434,1.459-5.167,2.101
						c-7.859,2.903-15.938,4.621-24.004,5.228c-33.83,2.56-67.357-14.376-82.735-44.82
						C308.078,141.06,325.998,94.124,367.951,75.526z M346.94,171.937c11.527,22.827,36.664,35.522,62.027,33.606
						c6.045-0.457,12.105-1.743,17.996-3.924c1.301-0.48,2.595-1.006,3.877-1.573c12.875-5.707,22.729-14.976,28.859-25.951
						c8.848-15.842,9.937-35.245,1.145-52.649c-2.901-5.745-6.665-10.847-11.074-15.237c-18.218-18.13-47.501-24.098-72.823-12.874
						C345.492,107.277,332.059,142.468,346.94,171.937z"/>
				</g>
			</g>
			<g>
				<g>
					<path fill="#2273B5" d="M459.7,174.095l18.63,9.147c11.799-21.128,13.248-47.009,1.525-70.224
						c-3.871-7.665-8.891-14.469-14.774-20.323l-15.311,13.513c4.409,4.391,8.173,9.492,11.074,15.237
						C469.636,138.85,468.547,158.253,459.7,174.095z"/>
				</g>
			</g>
			<g>
				<g>
					<path fill="#4DAFFF" d="M426.963,201.619l7.702,18.338c1.733-0.642,3.46-1.343,5.167-2.101
						c17.175-7.612,30.32-19.973,38.497-34.614l-18.63-9.147c-6.13,10.976-15.984,20.244-28.859,25.951
						C429.558,200.613,428.264,201.139,426.963,201.619z"/>
				</g>
			</g>
			<g>
				<g>
					<path fill="#4DAFFF" d="M410.662,225.185c8.065-0.606,16.145-2.324,24.004-5.228l-7.702-18.338
						c-5.891,2.181-11.951,3.467-17.996,3.924L410.662,225.185z"/>
				</g>
			</g>
		</g>
		<g>
			<polygon fill="#4DAFFF" points="429.71,277.076 586.632,277.076 586.632,274.154 432.83,274.154 432.83,211.874 429.71,211.874 
							"/>
		</g>
		<g>
			<rect x="504.033" y="243.742" fill="#E0E0E0" width="82.601" height="17.532"/>
		</g>
		<g>
			<g>
				<g>
					<path fill="#4AAFFF" d="M246.104,44.032c6.853-17.951,25.166-28.978,44.467-28.434c4.673,0.132,9.402,0.941,14.045,2.496
						c14.059,4.711,24.14,15.202,28.281,27.597c2.87,8.589,2.889,18.093-0.597,27.222c-0.346,0.907-0.723,1.801-1.127,2.674
						c-1.833,3.953-4.238,7.529-7.096,10.674c-11.977,13.192-31.852,18.768-50.29,12.591
						C249.986,90.875,237.591,66.333,246.104,44.032z M277.646,88.745c13.824,4.632,28.725,0.451,37.705-9.438
						c2.14-2.357,3.945-5.039,5.318-8.005c0.303-0.654,0.585-1.323,0.846-2.004c2.612-6.844,2.598-13.97,0.446-20.408
						c-3.105-9.294-10.662-17.16-21.203-20.69c-3.479-1.166-7.026-1.772-10.529-1.873c-14.469-0.409-28.201,7.858-33.34,21.317
						C250.507,64.365,259.8,82.766,277.646,88.745z"/>
				</g>
			</g>
			<g>
				<g>
					<path fill="#1A598C" d="M321.961,48.891l10.936-3.199c-4.142-12.395-14.223-22.886-28.281-27.597
						c-4.643-1.555-9.372-2.364-14.045-2.496l-0.342,10.729c3.503,0.101,7.051,0.707,10.529,1.873
						C311.299,31.73,318.856,39.597,321.961,48.891z"/>
				</g>
			</g>
			<g>
				<g>
					<path fill="#2273B5" d="M320.669,71.303l10.504,4.284c0.404-0.873,0.781-1.767,1.127-2.674
						c3.485-9.129,3.467-18.633,0.597-27.222l-10.936,3.199c2.151,6.438,2.166,13.564-0.446,20.408
						C321.254,69.979,320.972,70.648,320.669,71.303z"/>
				</g>
			</g>
			<g>
				<g>
					<path fill="#4DAFFF" d="M324.078,86.261c2.857-3.145,5.263-6.721,7.096-10.674l-10.504-4.284
						c-1.373,2.966-3.179,5.647-5.318,8.005L324.078,86.261z"/>
				</g>
			</g>
		</g>
	</g>
</g>
<g>
</g>
<g>
</g>
<g>
</g>
<g>
</g>
<g>
</g>
<g>
</g>
<g>
</g>
<g>
</g>
<g>
</g>
<g>
</g>
<g>
</g>
<g>
</g>
<g>
</g>
<g>
</g>
<g>
</g>
</svg>
