<svg height="512pt" viewBox="0 0 512 512" width="512pt" xmlns="http://www.w3.org/2000/svg"><path d="m500.355469 164.761719c-15.503907-15.523438-40.726563-15.523438-56.199219-.03125l-1.023438 1.015625-56.914062-56.984375c-3.589844 18.046875-12.410156 34.625-25.703125 47.933593l-4.128906 4.136719 45.636719 45.691407-21.316407 21.144531-45.53125-45.59375-39.734375 39.789062 45.34375 45.402344-21.316406 21.140625-45.238281-45.300781-20.375 20.398437c-5.609375 5.609375-10.238281 12.050782-13.789063 19.148438-.421875.851562-.878906 1.683594-1.371094 2.484375l41.835938 41.894531-162.511719 161.195312c-4.011719 3.976563-5.21875 9.929688-3.070312 15.160157 2.152343 5.234375 7.1875 8.613281 12.835937 8.613281h71.179688c3.664062 0 7.117187-1.414062 9.726562-3.984375l291.660156-286.949219c7.511719-7.519531 11.648438-17.515625 11.648438-28.152344 0-10.632812-4.136719-20.632812-11.644531-28.152343zm0 0"/><path d="m32.058594 79.179688c0 8.296874 6.71875 15.023437 15.003906 15.023437s15-6.726563 15-15.023437v-17.054688h17.058594c8.285156 0 15-6.726562 15-15.023438 0-8.296874-6.714844-15.023437-15-15.023437h-17.058594v-17.054687c0-8.296876-6.714844-15.023438-15-15.023438s-15.003906 6.726562-15.003906 15.023438v17.054687h-17.058594c-8.285156 0-15 6.726563-15 15.023437 0 8.296876 6.714844 15.023438 15 15.023438h17.058594zm0 0"/><path d="m87.519531 194.796875h-8.507812v-8.5c0-8.300781-6.714844-15.023437-15-15.023437-8.285157 0-15 6.722656-15 15.023437v8.5h-8.511719c-8.285156 0-15 6.726563-15 15.023437 0 8.296876 6.714844 15.023438 15 15.023438h8.511719v8.5c0 8.296875 6.714843 15.023438 15 15.023438 8.285156 0 15-6.726563 15-15.023438v-8.5h8.507812c8.285157 0 15.003907-6.726562 15.003907-15.023438 0-8.296874-6.71875-15.023437-15.003907-15.023437zm0 0"/><path d="m120.515625 94.644531h8.507813v8.5c0 8.296875 6.71875 15.023438 15.003906 15.023438s15-6.726563 15-15.023438v-8.5h8.507812c8.285156 0 15-6.726562 15-15.023437s-6.714844-15.019532-15-15.019532h-8.507812v-8.503906c0-8.296875-6.714844-15.023437-15-15.023437s-15.003906 6.726562-15.003906 15.023437v8.503906h-8.507813c-8.285156 0-15 6.722657-15 15.019532 0 8.300781 6.714844 15.023437 15 15.023437zm0 0"/><path d="m183.988281 254.460938 19.3125 19.335937c4.339844 4.347656 11.660157 3.15625 14.40625-2.34375 4.738281-9.488281 10.976563-18.152344 18.46875-25.652344l106.664063-106.808593c26.960937-26.996094 26.960937-70.761719 0-97.757813l-19.308594-19.335937c-4.34375-4.347657-11.664062-3.160157-14.410156 2.339843-4.738282 9.492188-10.972656 18.152344-18.464844 25.65625l-106.667969 106.808594c-26.960937 26.992187-26.960937 70.761719 0 97.757813zm0 0"/></svg>