<?xml version="1.0"?>
<svg xmlns="http://www.w3.org/2000/svg" xmlns:xlink="http://www.w3.org/1999/xlink" version="1.1" id="Capa_1" x="0px" y="0px" width="512px" height="512px" viewBox="0 0 380.685 380.685" style="enable-background:new 0 0 380.685 380.685;" xml:space="preserve"><g><g>
	<path d="M379.452,152.367C385.354,74.498,326.843,6.326,248.951,0.412C171.077-5.502,102.904,53.033,96.99,130.913   c-1.87,24.655,2.748,48.328,12.351,69.369L94.504,215.63l15.372,14.697L0.823,341.762l39.509,38.923L149.53,269.077l16.905,16.51   l14.222-14.674c14.488,6.447,30.162,10.677,46.811,11.955C305.325,288.77,373.526,230.258,379.452,152.367z M230.931,237.323   c-22.319-1.686-42.223-10.969-57.547-25.051l2.201,36.971l-2.201-36.971c-20.914-19.217-33.207-47.438-30.895-77.897   c4.009-52.778,50.228-92.456,102.977-88.436c52.771,4.014,92.438,50.21,88.441,103   C329.875,201.676,283.691,241.354,230.931,237.323z" data-original="#000000" class="active-path" data-old_color="#000000" fill="#000000"/>
	<path d="M288.908,83.752c-16.093-18.752-43.442-4.13-47.323-1.917c-12.479-8.517-29.906-16.022-43.941-5.327   c-10.092,7.686-15.883,17.596-17.254,29.459c-2.08,17.858,6.797,35.216,11.409,40.816c2.347,2.847,3.172,16.655,3.753,26.758   c1.255,21.488,2.37,40.032,13.338,42.367c2.812,0.604,5.496,0.105,7.762-1.405c5.926-3.95,7.784-13.827,9.945-25.282   c2.766-14.727,5.299-25.957,11.875-25.521c1.975,0.145,2.812,0.86,3.334,1.487c3.323,4.038,1.871,16.04,0.813,24.789   c-1.522,12.734-2.858,23.726,5.519,26.165c0.744,0.221,1.674,0.396,2.742,0.396c1.685,0,3.718-0.442,5.926-1.767   c12.873-7.738,22.981-41.147,26.886-59.179c10.247-7.971,16.928-19.606,18.427-32.195C303.28,113.7,301.933,98.932,288.908,83.752z    M293.103,122.327c-1.267,10.654-7.157,20.483-16.139,26.955c-0.918,0.68-1.568,1.667-1.777,2.777   c-5.345,25.852-15.662,50.477-23.052,54.916c-0.325,0.198-0.743,0.419-1.115,0.453c-1.022-2.405,0.023-11.084,0.674-16.347   c1.452-12.119,2.963-24.626-2.858-31.696c-2.324-2.817-5.693-4.461-9.713-4.758c-0.396-0.023-0.79-0.035-1.186-0.035   c-14.07,0-17.498,18.224-20.286,32.968c-1.371,7.413-3.276,17.557-6.019,19.381c-0.139,0.092-0.278,0.186-0.812,0.069   c-4.207-0.884-5.578-24.085-6.17-33.991c-0.988-16.655-1.777-27.112-5.821-31.992c-3.125-3.782-11.142-18.88-9.382-33.991   c1.08-9.318,5.699-17.132,13.728-23.26c17.753-13.588,47.637,17.584,47.938,17.893c1.743,1.824,4.612,1.905,6.437,0.18   c1.812-1.737,1.905-4.607,0.175-6.437c-0.407-0.441-3.404-3.584-8.063-7.459c7.262-3.346,23.272-8.888,32.358,1.714   C290.616,99.705,294.45,110.998,293.103,122.327z" data-original="#000000" class="active-path" data-old_color="#000000" fill="#000000"/>
</g></g> </svg>
