<?xml version="1.0" encoding="utf-8"?>
<!-- Generator: Adobe Illustrator 16.0.0, SVG Export Plug-In . SVG Version: 6.00 Build 0)  -->
<!DOCTYPE svg PUBLIC "-//W3C//DTD SVG 1.1//EN" "http://www.w3.org/Graphics/SVG/1.1/DTD/svg11.dtd">
<svg version="1.1" xmlns="http://www.w3.org/2000/svg" xmlns:xlink="http://www.w3.org/1999/xlink" x="0px" y="0px" width="134px"
	 height="157px" viewBox="0 0 134 157" enable-background="new 0 0 134 157" xml:space="preserve">
<g id="BACKGROUND">
	<rect x="-25" y="-31.5" fill="#FFFFFF" width="500" height="500"/>
</g>
<g id="OBJECTS">
	<g>
		<path fill="#339DD1" d="M125.271,53.226c-9.879,23.265-19.121,35.374-19.758,56.088c-0.637,20.715-5.099,43.341-10.835,43.979
			c-5.36,0.596-7.011-41.538-28.685-41.538c-21.673,0-23.325,42.134-28.685,41.538c-2.126-0.236-4.077-3.494-5.723-8.557
			c-6.457-19.86-0.573-41.576,14.304-56.233c31.875-31.404,85.095-43.526,68.979-82.09
			C128.226,11.796,133.864,32.989,125.271,53.226z M16.964,75.365c-3.066-6.527-6.613-13.575-10.25-22.14
			c-9.879-23.264-0.956-47.802,16.89-48.12c16.605-0.297,22.945,14.138,42.388,14.138c19.443,0,25.783-14.435,42.388-14.138
			c0.78,0.014,1.537,0.09,2.283,0.194C121.235,50.742,55.054,29.813,16.964,75.365z M42.753,34.281l-10.846-2.92l-2.92-10.846
			l-2.92,10.846l-10.846,2.92l10.846,2.921l2.92,10.846l2.92-10.846L42.753,34.281z"/>
		<linearGradient id="SVGID_1_" gradientUnits="userSpaceOnUse" x1="75.6528" y1="103.5313" x2="118.026" y2="121.1868">
			<stop  offset="0.014" style="stop-color:#3A64B1"/>
			<stop  offset="1" style="stop-color:#7EDBFF"/>
		</linearGradient>
		<path fill="url(#SVGID_1_)" d="M46.052,131.363L46.052,131.363c3.802-9.983,9.582-19.609,19.94-19.609
			c21.674,0,23.325,42.134,28.685,41.538c5.736-0.638,10.198-23.264,10.835-43.979c0.376-12.231,3.764-21.472,8.5-31.771
			C53.716,96.502,46.052,131.363,46.052,131.363z"/>
	</g>
</g>
<g id="DESIGNED_BY_FREEPIK">
</g>
</svg>
