<?xml version="1.0" encoding="utf-8"?>
<!-- Generator: Adobe Illustrator 16.0.0, SVG Export Plug-In . SVG Version: 6.00 Build 0)  -->
<!DOCTYPE svg PUBLIC "-//W3C//DTD SVG 1.1//EN" "http://www.w3.org/Graphics/SVG/1.1/DTD/svg11.dtd">
<svg version="1.1" id="Layer_1" xmlns="http://www.w3.org/2000/svg" xmlns:xlink="http://www.w3.org/1999/xlink" x="0px" y="0px"
	 width="134px" height="157px" viewBox="0 0 134 157" enable-background="new 0 0 134 157" xml:space="preserve">
<g id="OBJECTS">
	<g>
		<path fill="#339DD1" d="M126.279,52.526c-9.879,23.265-19.121,35.374-19.758,56.089s-5.1,43.34-10.836,43.979
			c-5.359,0.596-7.01-41.539-28.684-41.539c-21.673,0-23.325,42.135-28.685,41.539c-2.126-0.236-4.077-3.494-5.723-8.557
			c-6.457-19.861-0.573-41.576,14.304-56.234c31.874-31.403,85.095-43.525,68.979-82.089
			C129.234,11.096,134.871,32.29,126.279,52.526z M17.972,74.666c-3.066-6.527-6.613-13.575-10.25-22.14
			c-9.879-23.264-0.956-47.802,16.89-48.12C41.217,4.108,47.557,18.543,67,18.543c19.443,0,25.783-14.435,42.388-14.138
			c0.779,0.014,1.537,0.09,2.283,0.194C122.242,50.042,56.063,29.113,17.972,74.666z M43.761,33.582l-10.846-2.92l-2.92-10.846
			l-2.92,10.846l-10.846,2.92l10.846,2.921l2.92,10.846l2.92-10.846L43.761,33.582z"/>
		
			<linearGradient id="SVGID_1_" gradientUnits="userSpaceOnUse" x1="85.0215" y1="78.2227" x2="127.3949" y2="60.5671" gradientTransform="matrix(1 0 0 -1 -8.3599 181.0547)">
			<stop  offset="0.014" style="stop-color:#3A64B1"/>
			<stop  offset="1" style="stop-color:#7EDBFF"/>
		</linearGradient>
		<path fill="url(#SVGID_1_)" d="M47.06,130.664L47.06,130.664c3.802-9.984,9.582-19.609,19.94-19.609
			c21.673,0,23.324,42.135,28.685,41.537c5.736-0.637,10.197-23.264,10.834-43.979c0.377-12.23,3.764-21.473,8.5-31.771
			C54.724,95.803,47.06,130.664,47.06,130.664z"/>
	</g>
</g>
<g id="DESIGNED_BY_FREEPIK">
</g>
</svg>
