<?xml version="1.0" encoding="utf-8"?>
<!-- Generator: Adobe Illustrator 16.0.0, SVG Export Plug-In . SVG Version: 6.00 Build 0)  -->
<!DOCTYPE svg PUBLIC "-//W3C//DTD SVG 1.1//EN" "http://www.w3.org/Graphics/SVG/1.1/DTD/svg11.dtd">
<svg version="1.1" xmlns="http://www.w3.org/2000/svg" xmlns:xlink="http://www.w3.org/1999/xlink" x="0px" y="0px" width="100px"
	 height="100px" viewBox="0 0 100 100" enable-background="new 0 0 100 100" xml:space="preserve">
<g id="Layer_1" display="none">
	<rect x="7.375" y="7" display="inline" fill="#3A77BC" width="84.875" height="84.875"/>
</g>
<g id="Layer_2">
	<g>
		<g>
			<path fill="#FBAD45" d="M77,23.333c0,0.986,0.828,1.787,1.854,1.787c1.021,0,1.849-0.8,1.849-1.787s-0.827-1.786-1.849-1.786
				C77.828,21.547,77,22.347,77,23.333z"/>
			<ellipse fill="#FBAD45" cx="73.412" cy="76.437" rx="4.168" ry="4.019"/>
			<ellipse fill="#3773A9" cx="63.808" cy="77.009" rx="1.423" ry="1.374"/>
			<ellipse fill="#FBAD45" cx="19.226" cy="38.124" rx="4.043" ry="3.899"/>
			<ellipse fill="#5BBC6C" cx="32.187" cy="16.968" rx="2.163" ry="2.086"/>
			<ellipse fill="#5BBC6C" cx="53.821" cy="44.106" rx="29.807" ry="28.748"/>
		</g>
		<g>
			<path opacity="0.79" fill="#EDAD3B" d="M44.286,22.808c0,0-2.957,12.857,4.466,14.151c7.423,1.294,12.275,1.708,11.611-10.124
				C59.698,15.004,46.1,13.674,44.286,22.808z"/>
			<path fill="#FECC69" d="M62.69,31.43c-2.246-3.022-0.66-7.406-0.66-7.406l-3.241,4.407c-0.239,6.037,4.517,11.522,6.643,9.876
				C67.557,36.662,64.938,34.452,62.69,31.43z"/>
			<path fill="#EBA372" d="M59.787,20.404c-0.915,1.382-1.056,3.617,0.119,4.341c1.176,0.724,3.221-0.338,4.135-1.721
				c0.916-1.383,0.707-3.09-0.469-3.814C62.396,18.488,60.702,19.021,59.787,20.404z"/>
			<g>
				<g>
					<path fill="#D6854D" d="M63.142,20.512c-0.522,0.07-0.979,0.311-1.288,0.745c-0.429,0.603-0.22,1.722,0.555,1.912
						c0.619,0.152,1.371-0.482,1.226-1.133c-0.18-0.803-1.279-0.744-1.721-0.215c-0.314,0.376,0.225,0.92,0.541,0.541
						c0.105-0.126,0.584-0.297,0.346-0.031c-0.231,0.259-0.365-0.046-0.385-0.26c-0.029-0.325,0.148-0.539,0.417-0.685
						c0.078-0.042,0.479-0.131,0.31-0.109C63.623,21.213,63.63,20.447,63.142,20.512L63.142,20.512z"/>
				</g>
			</g>
			<path fill="#D6854D" d="M44.396,85.106h0.895c0,0,0.755,3.831-1.035,4.261L44.396,85.106z"/>
			<path fill="#EBA372" d="M39.221,83.919c0,0-1.258,1.943,0.419,4.071l-0.559,1.377c0,0-0.559-0.647-1.063,0
				c-0.504,0.648,0.447,1.666,0.447,1.666s-0.426,0.587,0.291,0.972c0.716,0.383,1.954-0.264,1.954-0.264s0.021,0.364,0.504,0.385
				c0.482,0.019,1.048-0.606,1.048-0.606s-0.021,0.262,0.378,0.262c0.398,0,1.657-1.517,1.951-2.569c0.293-1.052,0-5.117,0-5.117
				L39.221,83.919z"/>
			<path fill="#D6854D" d="M38.466,91.033c0,0,0.174,0.542,1.154,0.274c0.979-0.272,1.676-2.241,1.676-2.241
				S39.984,92.188,38.466,91.033z"/>
			<path fill="#D6854D" d="M40.71,91.741c0,0,1.181-0.57,1.46-1.582c0.281-1.01,0.281-1.274,0.281-1.274S42.697,90.962,40.71,91.741
				z"/>
			<path fill="#D6854D" d="M42.263,91.52c0,0,0.838-0.873,1.062-1.508c0.224-0.635,0.378-1.026,0.378-1.026
				S43.438,90.828,42.263,91.52z"/>
			<path fill="#E34173" d="M67.943,70.134c0,0,2.886,1.941,1.11,5.789c-1.684,3.647-23.624,4.729-29.749-1.419
				c-6.123-6.15,9.351-4.37,9.351-4.37H67.943z"/>
			<path fill="#E34173" d="M38.319,82.757c0,0-1.007,2.469,0,3.234c1.006,0.771,6.167,1.417,7.592-0.282
				c1.426-1.698-0.33-4.653-0.33-4.653L38.319,82.757z"/>
			<path fill="#CC2561" d="M43.097,43.324l0.607,27.942c0,0,13.98,5.286,24.22,0.767c0,0,2.736-0.928,0.445-13.038
				c-2.394-12.642-2.909-15.671-2.909-15.671H43.097z"/>
			<path fill="#9B1C4C" d="M68.369,58.995l-26.4,4.556c0,0,24.564-2.54,26.92-1.314L68.369,58.995z"/>
			<path fill="#EBA372" d="M70.872,43.676c-0.189-5.7-1.246-8.175-7.175-9.55c-7.176-1.663-5.857-7.058-5.857-7.058l-3.266-0.174
				l-0.005-0.059l-0.251,0.045l-0.251-0.013l0.003,0.059l-3.215,0.588c0,0-0.352,5.773-7.238,8.337
				c-5.423,2.019-5.998,3.462-5.983,8.087C48.713,43.788,59.8,43.3,70.872,43.676z"/>
			<g>
				<path fill="#D6854D" d="M50.578,28.881c0.255-1.093,0.277-1.366,0.277-1.366l3.215-0.588l-0.003-0.059l0.251,0.013l0.251-0.045
					l0.005,0.059l3.266,0.174c0,0-0.235,1.164-0.039,2.661C57.186,31.174,54.141,33.001,50.578,28.881z"/>
			</g>
			<path fill="#CC2561" d="M59.002,32.02c-0.021-0.009-0.042-0.018-0.063-0.028C58.96,32.001,58.98,32.011,59.002,32.02z"/>
			<path fill="#CC2561" d="M58.254,31.687c-0.001,0-0.004-0.001-0.006-0.002C58.25,31.685,58.253,31.686,58.254,31.687z"/>
			<path fill="#CC2561" d="M58.939,31.992c-0.042-0.019-0.085-0.038-0.125-0.056C58.857,31.957,58.899,31.975,58.939,31.992z"/>
			<path fill="#CC2561" d="M58.275,31.696c-0.007-0.003-0.014-0.006-0.021-0.01C58.262,31.69,58.269,31.693,58.275,31.696z"/>
			<path fill="#CC2561" d="M58.687,31.88c-0.15-0.068-0.288-0.128-0.411-0.184C58.417,31.759,58.556,31.822,58.687,31.88z"/>
			<path fill="#CC2561" d="M58.814,31.937c-0.041-0.018-0.085-0.037-0.128-0.057C58.728,31.898,58.771,31.917,58.814,31.937z"/>
			<path fill="#CC2561" d="M59.072,32.052c-0.023-0.011-0.048-0.021-0.07-0.032C59.024,32.031,59.051,32.042,59.072,32.052z"/>
			<path fill="#CC2561" d="M59.288,32.147c-0.03-0.014-0.059-0.026-0.087-0.038C59.256,32.133,59.288,32.147,59.288,32.147z"/>
			<path fill="#CC2561" d="M59.201,32.109c-0.014-0.006-0.026-0.011-0.038-0.018C59.175,32.097,59.188,32.103,59.201,32.109z"/>
			<path fill="#CC2561" d="M59.163,32.092c-0.01-0.004-0.02-0.009-0.03-0.013C59.144,32.083,59.153,32.088,59.163,32.092z"/>
			<path fill="#CC2561" d="M59.133,32.079c-0.017-0.008-0.037-0.017-0.061-0.027C59.093,32.061,59.114,32.07,59.133,32.079z"/>
			<path fill="#CC2561" d="M45.699,45.536l18.911-0.081c0,0-0.867-11.321-5.322-13.307c0,0-3.58,2.261-10.401,0
				c0,0-4.4,2.303-8.553,4.569c-3.458,1.886-4.995,5.575-4.342,20.775c3.394,1.698,4.485,5.461,3.451,8.851
				c-0.505,1.298-1.14,2.844-2.388,3.792c0.352,3.448,0.661,8.006,0.327,11.436c0,0-0.53,2.588,4.084,2.751
				c4.614,0.161,6.738-0.431,4.459-10.788C43.647,63.174,44.396,49.258,45.699,45.536z"/>
			<path fill="#CC2561" d="M57.324,31.272c-0.005-0.002-0.009-0.004-0.012-0.005C57.315,31.268,57.319,31.271,57.324,31.272z"/>
			<path fill="#CC2561" d="M57.507,31.353c-0.022-0.009-0.042-0.018-0.062-0.027C57.464,31.335,57.484,31.344,57.507,31.353z"/>
			<path fill="#CC2561" d="M58.248,31.685c-0.032-0.015-0.064-0.029-0.095-0.042C58.184,31.656,58.216,31.669,58.248,31.685z"/>
			<path fill="#E34173" d="M39.442,66.342c1.034-3.39-0.057-7.152-3.451-8.851c0.097,2.272,0.244,4.804,0.44,7.625
				c0,0,0.327,2.118,0.623,5.018C38.303,69.186,38.938,67.64,39.442,66.342z"/>
			<path fill="#CC2561" d="M57.313,31.267C57.307,31.264,57.307,31.264,57.313,31.267L57.313,31.267z"/>
			<path fill="#CC2561" d="M57.445,31.326c-0.062-0.027-0.1-0.044-0.121-0.054C57.348,31.282,57.388,31.301,57.445,31.326z"/>
			<path fill="#CC2561" d="M58.153,31.642c-0.059-0.027-0.115-0.051-0.166-0.074C58.043,31.592,58.097,31.616,58.153,31.642z"/>
			<path fill="#CC2561" d="M57.987,31.568c-0.007-0.004-0.015-0.006-0.021-0.009C57.973,31.562,57.979,31.564,57.987,31.568z"/>
			<path fill="#CC2561" d="M57.849,31.506c-0.083-0.036-0.158-0.071-0.227-0.101C57.686,31.434,57.762,31.467,57.849,31.506z"/>
			<path fill="#CC2561" d="M57.622,31.405c-0.043-0.019-0.083-0.037-0.115-0.052C57.54,31.37,57.579,31.386,57.622,31.405z"/>
			<path fill="#CC2561" d="M57.966,31.559c-0.042-0.019-0.08-0.036-0.117-0.053C57.886,31.523,57.925,31.541,57.966,31.559z"/>
			<path fill="#E34173" d="M69.33,53.957c-2.956,1.07-4.678,3.926-4.522,6.951c0.153-0.019,0.306-0.04,0.454-0.059
				c3.535-0.458,6.177-3.366,6.177-6.808c0-0.104,0.002-0.209,0.002-0.313C70.802,53.433,70.004,53.633,69.33,53.957z"/>
			<path fill="#CC2561" d="M69.949,37.202c-1.362-2.607-8.271-4.127-8.271-4.127l1.779,9.665l0.828,9.818
				c-11.598-0.17-22.988,3.173-22.988,3.173c-1.409,2.62-1.129,4.95-0.678,6.395c0.282,0.905,1.18,1.497,2.157,1.42
				c3.854-0.311,14.848-1.705,22.031-2.637c-0.155-3.025,1.566-5.881,4.522-6.951c0.674-0.324,1.472-0.524,2.11-0.228
				C71.476,47.662,72.422,41.935,69.949,37.202z"/>
			<path fill="#9B1C4C" d="M44.589,54.712c0.369-5.29,1.11-9.176,1.11-9.176c-0.929,3.229-1.429,6.376-1.653,9.31
				C44.212,54.764,44.397,54.713,44.589,54.712z"/>
			<path fill="#9B1C4C" d="M44.099,63.375c0.448,5.123,1.483,8.444,1.483,8.444c-0.665-2.692-1.002-5.609-1.132-8.486
				C44.334,63.365,44.217,63.379,44.099,63.375z"/>
			<polygon fill="#9B1C4C" points="64.801,44.159 65.18,41.247 64.947,44.996 			"/>
			<path fill="#9B1C4C" d="M44.99,49.527c0,0,0.167-2.752,1.901-3.992c0,0-1.714,1.9-2.018,5.926
				C44.873,51.462,44.6,50.438,44.99,49.527z"/>
			<path fill="#EBA372" d="M40.702,62.236c0,0-4.54,0.961-4.812-0.436c0,0-0.137-0.525,0.299-0.808c0,0-0.411-0.095-0.467-0.663
				c-0.056-0.564,0.39-0.782,0.39-0.782s-0.557-0.174-0.495-0.741c0.063-0.565,0.428-0.666,0.428-0.666s-0.332,0-0.432-0.567
				c-0.1-0.564,0.379-0.75,0.379-0.75s-0.102-0.322,3.925-0.322c0,0-2.266-0.102-2.601-0.879c-0.336-0.778,3.397-0.233,3.732,0
				c0.336,0.231,0.336,0.231,0.336,0.231S39.427,58.464,40.702,62.236z"/>
			<path fill="#E34173" d="M41.207,56.063c0.223-0.31,0.129-0.561-0.217-0.736c-0.353-0.181-0.871-0.3-1.565-0.109
				c-1.483,0.404-1.759,6.905-0.168,7.443c0,0,0.937,0.19,1.483-0.216c0.544-0.404,0,0,0,0S39.672,58.208,41.207,56.063z"/>
			<path fill="#9B1C4C" d="M41.298,55.73c0,0,11.525-3.973,22.988-3.173c0,0,1.239-5.647,0.324-11.068c0,0,1.118,9.872-1.709,10.438
				S49.771,51.604,41.298,55.73z"/>
			<path fill="#EBA372" d="M61.437,13.846c0.06,0.136,2.275,9.573-1.112,13.339c-3.387,3.766-9.807,2.076-11.586-1.448
				c-1.536-3.041-2.195-8.915,0.125-12.679C51.184,9.294,58.41,6.842,61.437,13.846z"/>
			<g>
				<g>
					<path fill="#D6854D" d="M56.606,16.738c-0.045,1.814-0.091,3.628-0.136,5.442c0.094-0.123,0.188-0.246,0.281-0.369
						c-0.352,0.09-0.703,0.18-1.055,0.27c-0.479,0.123-0.275,0.861,0.203,0.738c0.352-0.09,0.703-0.18,1.055-0.27
						c0.168-0.043,0.277-0.201,0.281-0.369c0.045-1.814,0.091-3.628,0.136-5.442C57.385,16.244,56.619,16.245,56.606,16.738
						L56.606,16.738z"/>
				</g>
			</g>
			<g>
				<path fill="#F4826C" d="M61.107,22.347c0.039,0.575-0.528,1.079-1.266,1.125c-0.737,0.047-1.366-0.38-1.406-0.955
					c-0.04-0.574,0.525-1.079,1.263-1.126C60.436,21.345,61.066,21.773,61.107,22.347z"/>
			</g>
			<g>
				<path fill="#F4826C" d="M52.303,22.14c0.039,0.575-0.525,1.078-1.264,1.126c-0.737,0.047-1.367-0.38-1.407-0.955
					c-0.039-0.575,0.527-1.079,1.264-1.126C51.634,21.138,52.265,21.565,52.303,22.14z"/>
			</g>
			
				<ellipse transform="matrix(0.9979 -0.0644 0.0644 0.9979 -1.602 3.6147)" fill="#EBA26F" cx="55.243" cy="26.646" rx="0.326" ry="0.146"/>
			<path fill="#FECC69" d="M52.213,17.384c-0.087-0.22,0.018-0.466,0.238-0.565c0.473-0.212,1.238-0.642,1.575-1.304
				c0.504-0.991,1.635-0.567,1.257,0.607c-0.345,1.072-1.654,1.659-2.692,1.551C52.418,17.656,52.273,17.541,52.213,17.384
				L52.213,17.384z"/>
			<path fill="#FECC69" d="M61.078,17.384c0.086-0.22-0.019-0.466-0.239-0.565c-0.473-0.212-1.237-0.642-1.574-1.304
				c-0.504-0.991-1.636-0.567-1.258,0.607c0.345,1.072,1.654,1.659,2.691,1.551C60.872,17.656,61.018,17.541,61.078,17.384
				L61.078,17.384z"/>
			<g>
				<g>
					<path opacity="0.4" fill="#D6854D" d="M53.709,19.453c0.001,0.31-0.095,0.616-0.278,0.871
						c-0.225,0.312-0.608,0.667-1.212,0.702c-1.463,0.083,0.102-1.796,0.835-1.908C53.607,19.032,53.707,19.13,53.709,19.453z"/>
					<path opacity="0.4" fill="#D6854D" d="M58.603,19.453c-0.002,0.31,0.093,0.616,0.275,0.871
						c0.226,0.312,0.611,0.667,1.213,0.702c1.464,0.083-0.101-1.796-0.834-1.908C58.703,19.032,58.604,19.13,58.603,19.453z"/>
				</g>
				<g>
					<path fill="#303030" d="M53.669,19.235c0.095,0.402-0.119,0.792-0.477,0.87c-0.358,0.078-0.726-0.186-0.819-0.588
						L53.669,19.235z"/>
					<path fill="#D6854D" d="M53.658,19.188c0,0-0.064-0.972-0.909-0.772c-0.731,0.172-0.376,1.101-0.376,1.101L53.658,19.188z"/>
					<path fill="#303030" d="M51.896,19.569c0,0,1.659-0.12,2.152-0.502C54.049,19.067,52.504,19.466,51.896,19.569z"/>
				</g>
				<g>
					<path fill="#303030" d="M58.592,19.235c-0.095,0.402,0.119,0.792,0.477,0.87c0.359,0.078,0.723-0.186,0.818-0.588
						L58.592,19.235z"/>
					<path fill="#D6854D" d="M58.603,19.188c0,0,0.063-0.972,0.909-0.772c0.731,0.172,0.375,1.101,0.375,1.101L58.603,19.188z"/>
					<path fill="#303030" d="M60.363,19.569c0,0-1.656-0.12-2.151-0.502C58.212,19.067,59.756,19.466,60.363,19.569z"/>
				</g>
			</g>
			<path fill="#FECC69" d="M56.384,10.283c0,0,1.287,5.287-7.438,6.257c0,0-1.119,0.917-0.391,2.913
				c0.641,1.758,2.289,5.861,0.622,8.509c-0.359,0.571-1.194,0.639-1.661,0.146l0,0c-0.325-0.344-0.364-0.857-0.093-1.244
				c0.879-1.257,2.453-4.249,0.461-7.519c0,0-1.875-0.566-2.168,1.092c-0.294,1.659,1.51,2.589,1.51,2.589s0.629,2.508-0.167,6.312
				c-0.797,3.802,2.224,4.126,2.14,7.767c-0.084,3.641-4.864,3.595-5.493-1.705c0,0-3.508,0.938-5.354,2.978
				c0,0,0.08-0.8,2.82-6.357c2.741-5.556,1.006-8.199,1.006-8.199s-0.335,1.456-1.789,0.377c0,0,1.678,0.432,1.286-2.265
				c-0.392-2.698-0.587-8.982,3.971-11.652c0,0-1.371,1.43-1.874,0.972c-0.503-0.458,1.37-0.972,1.37-0.972
				s-1.705,0.108-1.649-0.485c0.056-0.593,1.929-0.189,1.929-0.189s-1.817-1.187-0.951-1.888c0.868-0.702,1.902,1.375,1.902,1.375
				s3.615-3.135,10.08-1.521c6.462,1.614,4.324-0.462,4.324-0.462s0.815,0.337,0.627,1.531c-0.188,1.193-1.026,1.052-1.026,1.052
				s3.67,3.068,2.942,7.33c-0.726,4.262,1.007,6.365,0.924,7.552c-0.085,1.187-2.656,1.362-2.403-1.309
				c0.25-2.67,0.501-5.771-0.731-7.631C59.877,13.777,56.721,12.603,56.384,10.283z"/>
			<g>
				<path fill="#EBA372" d="M47.867,19.394c1.002,1.326,1.284,3.548,0.157,4.34c-1.126,0.792-3.234-0.146-4.236-1.472
					c-1.002-1.326-0.901-3.042,0.225-3.834C45.139,17.635,46.865,18.068,47.867,19.394z"/>
				<g>
					<g>
						<path fill="#D6854D" d="M45.065,20.541c0.35,0.002,0.726,0.159,0.85,0.507c0.079,0.221,0.087,0.625-0.233,0.537
							c-0.069-0.019-0.175-0.114-0.185-0.188c-0.008-0.061,0.375,0.063,0.411,0.097c0.364,0.332,0.907-0.208,0.541-0.541
							c-0.491-0.448-1.605-0.484-1.708,0.36c-0.084,0.702,0.698,1.164,1.313,1.023c0.809-0.185,0.763-1.317,0.425-1.865
							c-0.284-0.462-0.891-0.692-1.415-0.695C44.571,19.772,44.571,20.538,45.065,20.541L45.065,20.541z"/>
					</g>
				</g>
			</g>
			<path fill="#FECC69" d="M62.69,31.43c-0.628-0.846-0.958-1.799-1.104-2.732c-0.886,0.452-1.798,0.879-2.629,1.412
				c-0.032,0.028-0.066,0.055-0.1,0.083c0.605,5.287,4.659,9.598,6.574,8.115C67.557,36.662,64.938,34.452,62.69,31.43z"/>
			<path fill="#EBA372" d="M49.072,16.324c0,0,5.407-1.266,6.171-4.665C55.243,11.659,52.764,15.001,49.072,16.324z"/>
			<path fill="#FFFFFF" d="M51.729,23.477l-0.202,0.394l-4.454-5.248c0,0,0.391,0.073,1.034,0.695
				C48.751,19.94,51.729,23.477,51.729,23.477z"/>
			<polygon fill="#FFFFFF" points="48.024,23.734 51.261,25.853 51.286,26.499 47.791,23.868 			"/>
			<polygon fill="#FFFFFF" points="61.308,23.269 63.141,18.953 61.559,23.734 			"/>
			<polygon fill="#FFFFFF" points="62.05,24.684 61.308,25.772 61.496,24.801 			"/>
			<g>
				<path fill="#FFFFFF" d="M51.383,23.947c0.052-0.333,0.236-0.633,0.518-0.833c1.15-0.823,4.251-2.932,5.434-2.654
					c1.47,0.344,4.238,2.063,4.344,3.357c0.104,1.295-0.818,5.624-5.108,5.705c-3.433,0.065-4.896-2.228-5.346-3.147
					c-0.109-0.224-0.144-0.476-0.104-0.721L51.383,23.947z"/>
				<path fill="#E5E5E5" d="M52.165,23.438c-0.863,0.994-1.117,2.194-0.104,3.616c0.874,1.181,3.131,2.625,5.021,2.13
					c0.31-1.073,1.304-4.56,1.351-5.369C56.476,24.214,54.181,23.879,52.165,23.438z"/>
				<path opacity="0.4" fill="#E5E5E5" d="M57.219,20.567c-1.756,0.626-3.927,1.572-5.054,2.87c2.016,0.442,4.311,0.776,6.269,0.376
					c0.001-0.03,0.001-0.058,0-0.08C58.401,23.096,57.471,21.095,57.219,20.567z"/>
				<g>
					<g>
						<path fill="#E5E5E5" d="M53.009,23.571c1.216-0.927,2.606-1.724,4.073-2.161c0.432-0.128,0.248-0.804-0.186-0.675
							c-1.527,0.455-2.976,1.267-4.241,2.231C52.302,23.237,52.649,23.845,53.009,23.571L53.009,23.571z"/>
					</g>
				</g>
				<g>
					<g>
						<path fill="#E5E5E5" d="M53.32,23.833c1.216-0.927,2.605-1.724,4.072-2.162c0.432-0.129,0.248-0.804-0.186-0.675
							c-1.527,0.456-2.975,1.268-4.24,2.232C52.613,23.499,52.961,24.107,53.32,23.833L53.32,23.833z"/>
					</g>
				</g>
				<g>
					<g>
						<path fill="#E5E5E5" d="M57.857,21.366c1.094,0.379,2.246,1.038,2.948,1.974c0.267,0.356,0.875,0.008,0.604-0.354
							c-0.82-1.095-2.083-1.85-3.366-2.295C57.615,20.542,57.434,21.219,57.857,21.366L57.857,21.366z"/>
					</g>
				</g>
				<g>
					<g>
						<path fill="#E5E5E5" d="M57.746,21.671c1.094,0.38,2.246,1.04,2.949,1.975c0.268,0.356,0.876,0.008,0.604-0.354
							c-0.822-1.094-2.084-1.85-3.367-2.296C57.504,20.848,57.322,21.524,57.746,21.671L57.746,21.671z"/>
					</g>
				</g>
				<g>
					<g>
						<path fill="#C2C1C1" d="M51.798,24.714c3.108,0.833,6.704,1.053,9.687-0.292c0.411-0.186,0.055-0.789-0.354-0.604
							c-2.791,1.258-6.243,0.999-9.147,0.221C51.547,23.922,51.362,24.597,51.798,24.714L51.798,24.714z"/>
					</g>
				</g>
				<g>
					<g>
						<path fill="#C2C1C1" d="M51.636,26.366c3.108,0.833,6.705,1.053,9.688-0.292c0.411-0.186,0.055-0.789-0.354-0.604
							c-2.792,1.259-6.244,1-9.148,0.222C51.385,25.574,51.2,26.25,51.636,26.366L51.636,26.366z"/>
					</g>
				</g>
			</g>
			<polygon fill="#C2C1C1" points="51.854,23.533 51.604,23.947 51.487,23.851 51.729,23.438 			"/>
			<polygon fill="#C2C1C1" points="51.372,25.884 51.518,26.342 51.365,26.361 51.214,25.91 			"/>
			<polygon fill="#C2C1C1" points="61.196,23.317 61.445,23.731 61.563,23.635 61.323,23.222 			"/>
			<polygon fill="#C2C1C1" points="61.374,24.934 61.229,25.392 61.381,25.411 61.533,24.959 			"/>
			<path fill="#E34173" d="M50.146,30.051c0,0,4.481,3.084,8.526,0.374c0,0,0.321,0.074,0.778,0.57
				c0.877,0.954,0.466,2.442-0.778,3.01c-2.131,0.974-6.145,1.512-9.699-1.012c-0.557-0.396-0.853-1.275-0.654-1.914
				c0.012-0.042,0.028-0.085,0.046-0.129c0.449-1.095,1.184-1.641,1.998-1.428L50.146,30.051z"/>
			<path fill="#C62527" d="M58.673,30.425c0,0-0.238-0.07-0.474-0.151l0.167,0.347L58.673,30.425z"/>
			<path fill="#B21E53" d="M58.673,30.425c0,0,0.369,0.162-0.063,0.445c-0.431,0.283-4.449,2.286-8.728-0.762
				c0,0-0.192-0.168,0-0.351s0.409-0.058,0.409-0.058l-0.146,0.352c0,0,2.542,1.664,5.288,1.474c0,0,1.644-0.051,2.932-0.904
				l-0.167-0.347L58.673,30.425z"/>
			<path fill="#9B1C4C" d="M41.794,55.497c0,0-0.644-0.191-1.167,1.042c-0.525,1.235-0.875,6.689,0.8,7.108l0.795-0.085
				c0,0-1.107,0.407-1.613-1.72C40.102,59.715,40.676,56.192,41.794,55.497"/>
			<g>
				<g>
					<path fill="#EDAD3B" d="M47.701,9.995c1.269-0.87,2.758-1.205,4.271-1.338c0.893-0.079,0.899-1.479,0-1.4
						c-1.752,0.154-3.505,0.52-4.979,1.529C46.255,9.293,46.954,10.507,47.701,9.995L47.701,9.995z"/>
				</g>
			</g>
			<g>
				<g>
					<path fill="#EDAD3B" d="M47.988,10.733c0.674-0.471,1.414-0.753,2.201-0.976c0.867-0.245,0.498-1.595-0.373-1.35
						c-0.893,0.251-1.771,0.583-2.535,1.116C46.547,10.037,47.246,11.251,47.988,10.733L47.988,10.733z"/>
				</g>
			</g>
			<g>
				<g>
					<path fill="#EDAD3B" d="M59.868,10.914c0.805,0.72,1.496,1.682,1.659,2.766c0.134,0.89,1.482,0.511,1.35-0.372
						c-0.194-1.294-1.057-2.522-2.019-3.384C60.188,9.324,59.194,10.311,59.868,10.914L59.868,10.914z"/>
				</g>
			</g>
			<g>
				<g>
					<path fill="#EDAD3B" d="M59.279,11.412c0.805,0.72,1.496,1.682,1.658,2.765c0.133,0.891,1.481,0.511,1.35-0.372
						c-0.193-1.294-1.056-2.522-2.018-3.383C59.599,9.822,58.605,10.809,59.279,11.412L59.279,11.412z"/>
				</g>
			</g>
			<g>
				<g>
					<path fill="#EDAD3B" d="M49.353,14.788c-1.082,0.362-1.833,1.382-2.018,2.484c-0.148,0.883,1.201,1.261,1.35,0.372
						c0.084-0.502,0.258-0.903,0.634-1.25c0.093-0.085,0.222-0.16,0.354-0.231c0.197-0.105-0.1,0.025,0.053-0.026
						C50.576,15.852,50.212,14.5,49.353,14.788L49.353,14.788z"/>
				</g>
			</g>
			<g>
				<g>
					<path fill="#EDAD3B" d="M48.69,14.472c-1.082,0.363-1.833,1.382-2.018,2.485c-0.148,0.883,1.201,1.261,1.35,0.372
						c0.084-0.502,0.258-0.903,0.635-1.25c0.092-0.085,0.221-0.161,0.354-0.231c0.197-0.105-0.1,0.025,0.053-0.026
						C49.914,15.536,49.549,14.184,48.69,14.472L48.69,14.472z"/>
				</g>
			</g>
			<g>
				<g>
					<path fill="#EDAD3B" d="M40.475,33.477c-0.25,0.484-0.521,0.952-0.826,1.402c-0.507,0.75,0.706,1.45,1.209,0.707
						c0.305-0.451,0.577-0.919,0.826-1.402C42.097,33.383,40.889,32.675,40.475,33.477L40.475,33.477z"/>
				</g>
			</g>
			<g>
				<g>
					<path fill="#EDAD3B" d="M41.592,30.641c-0.191,0.658-0.422,1.3-0.688,1.932c-0.148,0.353,0.157,0.77,0.489,0.861
						c0.404,0.111,0.713-0.137,0.861-0.489c0.266-0.632,0.498-1.273,0.688-1.932C43.193,30.144,41.842,29.775,41.592,30.641
						L41.592,30.641z"/>
				</g>
			</g>
			<g>
				<g>
					<path fill="#EDAD3B" d="M41.051,33.992c-0.235,0.446-0.489,0.877-0.771,1.294c-0.507,0.751,0.707,1.451,1.209,0.707
						c0.282-0.417,0.536-0.849,0.771-1.294C42.681,33.901,41.473,33.193,41.051,33.992L41.051,33.992z"/>
				</g>
			</g>
			<g>
				<g>
					<path fill="#EDAD3B" d="M42.224,31.047c-0.166,0.57-0.36,1.128-0.582,1.679c-0.143,0.354,0.153,0.769,0.489,0.861
						c0.4,0.11,0.718-0.135,0.861-0.489c0.222-0.55,0.417-1.109,0.582-1.679C43.826,30.55,42.475,30.182,42.224,31.047
						L42.224,31.047z"/>
				</g>
			</g>
			<g>
				<g>
					<path fill="#EDAD3B" d="M47.186,35.346c0.067,0.14,0.222,0.627,0.291,0.937c0.145,0.645,0.092,1.334-0.382,1.825
						c-0.626,0.65,0.362,1.641,0.99,0.99c1.17-1.214,0.989-3.037,0.31-4.459C48.006,33.824,46.799,34.535,47.186,35.346
						L47.186,35.346z"/>
				</g>
			</g>
			<g>
				<g>
					<path fill="#EDAD3B" d="M46.786,36.737c0.029,0.544-0.044,1.043-0.438,1.447c-0.63,0.646,0.359,1.637,0.99,0.99
						c0.646-0.662,0.897-1.525,0.848-2.437C48.138,35.839,46.738,35.834,46.786,36.737L46.786,36.737z"/>
				</g>
			</g>
			<g>
				<g>
					<path fill="#EDAD3B" d="M63.399,34.516c0.134,0.093-0.039-0.039,0.134,0.106c0.187,0.158,0.358,0.333,0.521,0.516
						c0.446,0.495,0.736,1.119,0.756,1.788c0.026,0.901,1.427,0.903,1.4,0c-0.044-1.468-0.916-2.793-2.104-3.619
						C63.362,32.791,62.664,34.004,63.399,34.516L63.399,34.516z"/>
				</g>
			</g>
			<g>
				<g>
					<path fill="#EDAD3B" d="M63.564,36.186c0.407,0.348,0.757,0.749,0.78,1.308c0.038,0.899,1.438,0.903,1.4,0
						c-0.039-0.929-0.492-1.701-1.19-2.298C63.872,34.612,62.877,35.598,63.564,36.186L63.564,36.186z"/>
				</g>
			</g>
			<path fill="#D6854D" d="M36.045,58.141h0.904C36.949,58.141,36.471,57.825,36.045,58.141z"/>
			<path fill="#D6854D" d="M36.045,59.566h0.904C36.949,59.566,36.471,59.252,36.045,59.566z"/>
			<path fill="#D6854D" d="M36.175,60.993h0.904C37.079,60.993,36.6,60.677,36.175,60.993z"/>
			<path fill="#9B1C4C" d="M41.728,63.551l9.829-0.972C51.557,62.579,44.729,63.979,41.728,63.551"/>
			<g>
				<g>
					<path fill="#F178AC" d="M48.767,31.334c-0.186,0.817-0.212,1.64,0.193,2.396c0.427,0.796,1.635,0.089,1.209-0.707
						c-0.218-0.406-0.15-0.884-0.053-1.317C50.315,30.827,48.966,30.454,48.767,31.334L48.767,31.334z"/>
				</g>
			</g>
			<g>
				<g>
					<path fill="#F178AC" d="M49.475,29.94c-0.185,0.216-0.338,0.431-0.458,0.688c-0.379,0.813,0.827,1.524,1.209,0.707
						c0.067-0.146,0.134-0.282,0.239-0.405C51.049,30.249,50.063,29.254,49.475,29.94L49.475,29.94z"/>
				</g>
			</g>
			<g>
				<g>
					<path fill="#F178AC" d="M50.336,33.604c0.034,0.214,0.081,0.42,0.146,0.627c0.265,0.86,1.616,0.493,1.35-0.372
						c-0.063-0.208-0.111-0.413-0.146-0.627c-0.061-0.377-0.524-0.582-0.861-0.489C50.427,32.853,50.275,33.228,50.336,33.604
						L50.336,33.604z"/>
				</g>
			</g>
			<g>
				<g>
					<path fill="#F178AC" d="M50.766,30.937c-0.282,0.593-0.44,1.184-0.485,1.84c-0.061,0.902,1.34,0.896,1.4,0
						c0.026-0.396,0.123-0.775,0.294-1.133C52.361,30.833,51.154,30.122,50.766,30.937L50.766,30.937z"/>
				</g>
			</g>
			<g>
				<g>
					<path fill="#F178AC" d="M52.575,33.436c0,0.385,0,0.771,0,1.156c0,0.903,1.4,0.903,1.4,0c0-0.385,0-0.771,0-1.156
						C53.976,32.533,52.575,32.533,52.575,33.436L52.575,33.436z"/>
				</g>
			</g>
			<g>
				<g>
					<path fill="#F178AC" d="M52.575,31.991c0,0.241,0,0.482,0,0.723c0,0.903,1.4,0.903,1.4,0c0-0.241,0-0.482,0-0.723
						C53.976,31.088,52.575,31.088,52.575,31.991L52.575,31.991z"/>
				</g>
			</g>
			<g>
				<g>
					<path fill="#F178AC" d="M54.842,33.533c-0.061,0.341-0.164,0.621-0.351,0.913c-0.486,0.764,0.726,1.466,1.209,0.707
						c0.244-0.384,0.412-0.799,0.491-1.248C56.349,33.022,54.999,32.645,54.842,33.533L54.842,33.533z"/>
				</g>
			</g>
			<g>
				<g>
					<path fill="#F178AC" d="M54.586,32.395c0.143,0.264,0.217,0.526,0.266,0.822c0.145,0.889,1.493,0.511,1.35-0.372
						c-0.067-0.413-0.208-0.789-0.406-1.157C55.367,30.893,54.158,31.6,54.586,32.395L54.586,32.395z"/>
				</g>
			</g>
			<g>
				<g>
					<path fill="#F178AC" d="M56.79,33.661c-0.008,0.2-0.025,0.387-0.063,0.583c-0.168,0.882,1.182,1.258,1.35,0.372
						c0.061-0.317,0.101-0.633,0.113-0.955C58.227,32.757,56.826,32.761,56.79,33.661L56.79,33.661z"/>
				</g>
			</g>
			<g>
				<g>
					<path fill="#F178AC" d="M56.501,32.259c0.135,0.301,0.214,0.62,0.27,0.944c0.153,0.889,1.502,0.511,1.35-0.372
						c-0.077-0.451-0.224-0.862-0.41-1.279C57.342,30.729,56.136,31.442,56.501,32.259L56.501,32.259z"/>
				</g>
			</g>
			<g>
				<g>
					<path fill="#F178AC" d="M58.532,32.968c-0.072,0.156-0.146,0.313-0.254,0.448c-0.236,0.299-0.293,0.697,0,0.99
						c0.246,0.246,0.753,0.3,0.99,0c0.186-0.234,0.346-0.46,0.473-0.731C60.12,32.862,58.914,32.15,58.532,32.968L58.532,32.968z"/>
				</g>
			</g>
			<g>
				<g>
					<path fill="#F178AC" d="M58.383,31.704c0.172,0.312,0.228,0.604,0.213,0.958c-0.036,0.903,1.364,0.899,1.4,0
						c0.023-0.596-0.118-1.145-0.404-1.666C59.157,30.206,57.947,30.912,58.383,31.704L58.383,31.704z"/>
				</g>
			</g>
			<g>
				<g>
					<path fill="#F178AC" d="M39.751,56.874c0.217,0.002,0.424,0.016,0.637,0.055c0.882,0.161,1.259-1.188,0.372-1.35
						c-0.335-0.062-0.668-0.102-1.009-0.105C38.848,55.465,38.849,56.865,39.751,56.874L39.751,56.874z"/>
				</g>
			</g>
			<g>
				<g>
					<path fill="#F178AC" d="M38.849,57.01c0.161-0.044,0.323-0.089,0.489-0.11c0.378-0.051,0.7-0.28,0.7-0.7
						c0-0.344-0.321-0.75-0.7-0.7c-0.292,0.039-0.576,0.083-0.861,0.161C37.606,55.897,37.976,57.248,38.849,57.01L38.849,57.01z"/>
				</g>
			</g>
			<g>
				<g>
					<path fill="#F178AC" d="M39.222,56.829c-0.336,0.024-0.668,0.071-0.997,0.147c-0.879,0.204-0.506,1.554,0.372,1.35
						c0.209-0.049,0.411-0.081,0.625-0.097C40.117,58.164,40.123,56.764,39.222,56.829L39.222,56.829z"/>
				</g>
			</g>
			<g>
				<g>
					<path fill="#F178AC" d="M40.632,56.955c-0.285-0.059-0.572-0.098-0.862-0.124c-0.899-0.081-0.892,1.32,0,1.4
						c0.167,0.015,0.326,0.04,0.49,0.073C41.141,58.486,41.517,57.137,40.632,56.955L40.632,56.955z"/>
				</g>
			</g>
			<g>
				<g>
					<path fill="#F178AC" d="M39.454,59.622c0.242,0.012,0.483,0.024,0.725,0.037c0.903,0.045,0.898-1.355,0-1.4
						c-0.242-0.012-0.483-0.024-0.725-0.037C38.551,58.177,38.556,59.577,39.454,59.622L39.454,59.622z"/>
				</g>
			</g>
			<g>
				<g>
					<path fill="#F178AC" d="M38.292,59.559c0.242,0.013,0.483,0.027,0.725,0.04c0.903,0.047,0.898-1.354,0-1.4
						c-0.242-0.013-0.483-0.026-0.725-0.04C37.39,58.108,37.395,59.509,38.292,59.559L38.292,59.559z"/>
				</g>
			</g>
			<g>
				<g>
					<path fill="#F178AC" d="M39.504,61.347c0.229,0.008,0.451,0,0.678-0.022c0.89-0.088,0.898-1.488,0-1.4
						c-0.228,0.022-0.45,0.03-0.678,0.022C38.601,59.915,38.604,61.314,39.504,61.347L39.504,61.347z"/>
				</g>
			</g>
			<g>
				<g>
					<path fill="#F178AC" d="M38.131,61.062c0.257,0.097,0.513,0.167,0.782,0.217c0.882,0.164,1.259-1.185,0.372-1.35
						c-0.27-0.051-0.525-0.121-0.782-0.217C37.656,59.395,37.294,60.748,38.131,61.062L38.131,61.062z"/>
				</g>
			</g>
			<g>
				<g>
					<path fill="#F178AC" d="M38.46,62.637c0.311,0.102,0.627,0.148,0.953,0.157c0.903,0.024,0.901-1.375,0-1.4
						c-0.208-0.006-0.383-0.042-0.581-0.106C37.972,61.006,37.606,62.358,38.46,62.637L38.46,62.637z"/>
				</g>
			</g>
			<g>
				<g>
					<path fill="#F178AC" d="M41.207,37.223c2.943,0.223,3.963,4.182,4.143,6.563c0.034,0.447,0.734,0.451,0.7,0
						c-0.21-2.786-1.402-7.003-4.843-7.264C40.756,36.489,40.759,37.189,41.207,37.223L41.207,37.223z"/>
				</g>
			</g>
			<g>
				<g>
					<path fill="#F178AC" d="M65.529,40.923c0.096-0.794,0.141-1.625-0.012-2.414c-0.086-0.443-0.761-0.255-0.676,0.187
						c0.14,0.72,0.075,1.502-0.012,2.227C64.776,41.371,65.477,41.366,65.529,40.923L65.529,40.923z"/>
				</g>
			</g>
			<g>
				<g>
					<path fill="#F178AC" d="M37.538,85.195c-0.014,0.219-0.012,0.431,0.005,0.649c0.071,0.894,1.471,0.9,1.4,0
						c-0.018-0.219-0.02-0.431-0.005-0.649C38.995,84.293,37.595,84.299,37.538,85.195L37.538,85.195z"/>
				</g>
			</g>
			<g>
				<g>
					<path fill="#F178AC" d="M37.986,83.595c-0.119,0.253-0.223,0.509-0.306,0.775c-0.269,0.865,1.083,1.232,1.35,0.373
						c0.047-0.152,0.097-0.297,0.165-0.441C39.576,83.489,38.369,82.778,37.986,83.595L37.986,83.595z"/>
				</g>
			</g>
			<g>
				<g>
					<path fill="#F178AC" d="M38.925,85.646c0.034,0.376,0.091,0.742,0.191,1.107c0.237,0.869,1.587,0.5,1.35-0.373
						c-0.066-0.244-0.118-0.481-0.14-0.734C40.246,84.755,38.845,84.747,38.925,85.646L38.925,85.646z"/>
				</g>
			</g>
			<g>
				<g>
					<path fill="#F178AC" d="M39.064,84.136c-0.063,0.279-0.103,0.56-0.134,0.844c-0.041,0.38,0.35,0.7,0.7,0.7
						c0.413,0,0.659-0.321,0.7-0.7c0.017-0.16,0.048-0.314,0.083-0.471C40.612,83.629,39.262,83.256,39.064,84.136L39.064,84.136z"
						/>
				</g>
			</g>
			<g>
				<g>
					<path fill="#F178AC" d="M40.994,85.872c0.006,0.24,0.013,0.481,0.022,0.722c0.037,0.899,1.437,0.903,1.4,0
						c-0.01-0.24-0.017-0.481-0.022-0.722C42.374,84.971,40.974,84.969,40.994,85.872L40.994,85.872z"/>
				</g>
			</g>
			<g>
				<g>
					<path fill="#F178AC" d="M41,84.423c-0.005,0.241-0.009,0.483-0.01,0.725c-0.005,0.903,1.396,0.902,1.4,0
						c0.001-0.241,0.005-0.483,0.01-0.725C42.42,83.52,41.02,83.521,41,84.423L41,84.423z"/>
				</g>
			</g>
			<g>
				<g>
					<path fill="#F178AC" d="M42.85,85.635c0.024,0.336,0.027,0.669,0.01,1.006c-0.045,0.902,1.354,0.898,1.4,0
						c0.017-0.337,0.014-0.67-0.01-1.006C44.187,84.739,42.786,84.733,42.85,85.635L42.85,85.635z"/>
				</g>
			</g>
			<g>
				<g>
					<path fill="#F178AC" d="M42.65,84.554c0.061,0.231,0.111,0.463,0.154,0.699c0.159,0.888,1.508,0.51,1.35-0.373
						c-0.042-0.235-0.093-0.467-0.154-0.699C43.771,83.309,42.42,83.68,42.65,84.554L42.65,84.554z"/>
				</g>
			</g>
			<g>
				<g>
					<path fill="#F178AC" d="M44.461,85.389c-0.008,0.262-0.032,0.512-0.082,0.769c-0.171,0.882,1.178,1.259,1.35,0.373
						c0.074-0.379,0.121-0.757,0.133-1.142C45.889,84.485,44.488,84.488,44.461,85.389L44.461,85.389z"/>
				</g>
			</g>
			<g>
				<g>
					<path fill="#F178AC" d="M44.311,84.219c0.058,0.223,0.102,0.445,0.135,0.674c0.055,0.378,0.528,0.58,0.861,0.488
						c0.402-0.11,0.543-0.483,0.489-0.861c-0.033-0.228-0.077-0.45-0.135-0.674C45.435,82.973,44.085,83.344,44.311,84.219
						L44.311,84.219z"/>
				</g>
			</g>
			<g>
				<g>
					<path fill="#F178AC" d="M45.602,84.502c-0.007,0.243-0.027,0.481-0.059,0.722c-0.05,0.379,0.356,0.7,0.7,0.7
						c0.419,0,0.65-0.322,0.7-0.7c0.032-0.24,0.051-0.479,0.059-0.722C47.03,83.599,45.63,83.602,45.602,84.502L45.602,84.502z"/>
				</g>
			</g>
			<g>
				<g>
					<path fill="#F178AC" d="M45.5,83.32c0.028,0.178,0.044,0.354,0.056,0.533c0.059,0.896,1.459,0.901,1.4,0
						c-0.02-0.305-0.059-0.604-0.107-0.906c-0.061-0.377-0.524-0.581-0.861-0.488C45.591,82.568,45.439,82.943,45.5,83.32
						L45.5,83.32z"/>
				</g>
			</g>
			<g>
				<g>
					<path fill="#F178AC" d="M66.304,75.95c-0.085,0.264-0.179,0.522-0.284,0.779c-0.291,0.707,0.31,1.538,0.978,1.722
						c0.804,0.222,1.432-0.272,1.722-0.978c0.105-0.256,0.2-0.515,0.284-0.779c0.232-0.727-0.264-1.525-0.978-1.722
						C67.268,74.764,66.535,75.224,66.304,75.95L66.304,75.95z"/>
				</g>
			</g>
			<g>
				<g>
					<path fill="#F178AC" d="M66.579,74.563c-0.016,0.199-0.039,0.389-0.073,0.585c-0.133,0.751,0.19,1.506,0.978,1.722
						c0.683,0.188,1.589-0.226,1.722-0.978c0.078-0.44,0.138-0.884,0.175-1.329c0.063-0.762-0.685-1.4-1.4-1.4
						C67.169,73.162,66.642,73.803,66.579,74.563L66.579,74.563z"/>
				</g>
			</g>
			<g>
				<g>
					<path fill="#F178AC" d="M66.409,72.43c0.105,0.446,0.155,0.751,0.181,1.191c0.045,0.762,0.604,1.4,1.4,1.4
						c0.729,0,1.444-0.638,1.4-1.4c-0.038-0.651-0.132-1.301-0.282-1.936c-0.175-0.742-1.007-1.175-1.722-0.978
						C66.631,70.915,66.233,71.688,66.409,72.43L66.409,72.43z"/>
				</g>
			</g>
			<g>
				<g>
					<path fill="#F178AC" d="M62.964,77.189c-0.054,0.229-0.112,0.457-0.176,0.685c-0.489,1.742,2.213,2.48,2.699,0.744
						c0.064-0.227,0.123-0.455,0.176-0.685c0.173-0.742-0.22-1.514-0.978-1.722C63.973,76.016,63.136,76.446,62.964,77.189
						L62.964,77.189z"/>
				</g>
			</g>
			<g>
				<g>
					<path fill="#F178AC" d="M63.173,74.758c0.011,0.472-0.002,0.94-0.042,1.41c-0.064,0.762,0.687,1.4,1.4,1.4
						c0.813,0,1.335-0.641,1.4-1.4c0.04-0.47,0.052-0.938,0.042-1.41c-0.018-0.763-0.624-1.4-1.4-1.4
						C63.823,73.357,63.156,73.995,63.173,74.758L63.173,74.758z"/>
				</g>
			</g>
			<g>
				<g>
					<path fill="#F178AC" d="M63.062,73.588c0.037,0.229,0.045,0.293,0.063,0.467c0.08,0.759,0.577,1.4,1.4,1.4
						c0.702,0,1.479-0.64,1.4-1.4c-0.043-0.405-0.098-0.81-0.164-1.211c-0.124-0.754-1.046-1.164-1.722-0.978
						C63.246,72.084,62.938,72.836,63.062,73.588L63.062,73.588z"/>
				</g>
			</g>
			<g>
				<g>
					<path fill="#F178AC" d="M55.084,77.435c-0.027,0.438-0.059,0.877-0.093,1.315c-0.059,0.762,0.682,1.4,1.4,1.4
						c0.808,0,1.342-0.64,1.4-1.4c0.033-0.438,0.064-0.877,0.093-1.315c0.048-0.763-0.674-1.4-1.4-1.4
						C55.685,76.034,55.133,76.673,55.084,77.435L55.084,77.435z"/>
				</g>
			</g>
			<g>
				<g>
					<path fill="#F178AC" d="M55.209,73.921c-0.008,0.781-0.029,1.563-0.063,2.343c-0.032,0.763,0.662,1.4,1.4,1.4
						c0.788,0,1.367-0.639,1.4-1.4c0.032-0.78,0.054-1.562,0.063-2.343c0.008-0.764-0.644-1.4-1.4-1.4
						C55.84,72.521,55.217,73.158,55.209,73.921L55.209,73.921z"/>
				</g>
			</g>
			<g>
				<g>
					<path fill="#F178AC" d="M50.294,76.308c0.025,0.839,0.129,1.675,0.292,2.498c0.148,0.749,1.027,1.169,1.722,0.978
						c0.775-0.213,1.126-0.974,0.978-1.722c-0.115-0.583-0.173-1.16-0.19-1.754c-0.023-0.763-0.62-1.4-1.4-1.4
						C50.948,74.907,50.271,75.545,50.294,76.308L50.294,76.308z"/>
				</g>
			</g>
			<g>
				<g>
					<path fill="#F178AC" d="M50.632,73.102c-0.16,0.727-0.263,1.466-0.317,2.208c-0.055,0.762,0.68,1.4,1.4,1.4
						c0.805,0,1.345-0.64,1.4-1.4c0.036-0.5,0.107-0.969,0.216-1.464c0.164-0.744-0.213-1.512-0.978-1.722
						C51.647,71.93,50.795,72.355,50.632,73.102L50.632,73.102z"/>
				</g>
			</g>
			<g>
				<g>
					<path fill="#F178AC" d="M46.225,77.426c0.09,0.367,0.198,0.727,0.325,1.082c0.256,0.718,0.945,1.191,1.722,0.978
						c0.694-0.19,1.234-1.003,0.978-1.722c-0.127-0.356-0.234-0.715-0.324-1.082c-0.182-0.741-1.002-1.176-1.722-0.978
						C46.452,75.91,46.043,76.686,46.225,77.426L46.225,77.426z"/>
				</g>
			</g>
			<g>
				<g>
					<path fill="#F178AC" d="M45.932,74.951c0.004,0.33,0.022,0.657,0.055,0.986c0.076,0.759,0.58,1.4,1.4,1.4
						c0.706,0,1.476-0.64,1.4-1.4c-0.033-0.329-0.051-0.656-0.055-0.986c-0.009-0.763-0.63-1.4-1.4-1.4
						C46.575,73.551,45.922,74.188,45.932,74.951L45.932,74.951z"/>
				</g>
			</g>
			<g>
				<g>
					<path fill="#F178AC" d="M46.335,72.037c-0.178,0.646-0.283,1.301-0.357,1.968c-0.084,0.76,0.7,1.4,1.4,1.4
						c0.827,0,1.316-0.643,1.4-1.4c0.042-0.38,0.145-0.817,0.257-1.224C49.517,71.038,46.815,70.299,46.335,72.037L46.335,72.037z"
						/>
				</g>
			</g>
			<g>
				<g>
					<path fill="#F178AC" d="M59.657,76.706c-0.031,0.633-0.075,1.264-0.134,1.895c-0.069,0.761,0.69,1.4,1.4,1.4
						c0.816,0,1.33-0.641,1.4-1.4c0.058-0.631,0.102-1.262,0.134-1.895c0.038-0.763-0.666-1.4-1.4-1.4
						C60.266,75.306,59.696,75.944,59.657,76.706L59.657,76.706z"/>
				</g>
			</g>
			<g>
				<g>
					<path fill="#F178AC" d="M59.686,73.787c0.016,0.584,0.019,1.168,0.008,1.753c-0.013,0.764,0.647,1.4,1.4,1.4
						c0.773,0,1.387-0.638,1.4-1.4c0.01-0.585,0.007-1.169-0.008-1.753c-0.021-0.763-0.622-1.4-1.4-1.4
						C60.338,72.387,59.666,73.024,59.686,73.787L59.686,73.787z"/>
				</g>
			</g>
			<path fill="#E34173" d="M56.37,42.448c0,0-2.834-3.954-5.726-0.814c-3.211,3.482,5.726,6.976,5.726,6.976s4.402-1.22,5.822-5.057
				C63.762,39.311,57.155,39.25,56.37,42.448z"/>
			<g>
				<g>
					<path fill="#F178AC" d="M69.985,49.279c-0.047,0.838-0.092,1.676-0.135,2.514c-0.046,0.902,1.354,0.898,1.4,0
						c0.043-0.838,0.088-1.676,0.135-2.514C71.436,48.377,70.035,48.382,69.985,49.279L69.985,49.279z"/>
				</g>
			</g>
			<g>
				<g>
					<path fill="#F178AC" d="M69.362,49.264c-0.045,0.822-0.091,1.645-0.132,2.467c-0.045,0.902,1.355,0.898,1.4,0
						c0.041-0.822,0.087-1.645,0.132-2.467C70.812,48.361,69.412,48.366,69.362,49.264L69.362,49.264z"/>
				</g>
			</g>
			<g>
				<g>
					<path fill="#F178AC" d="M68.304,37.15c0.504,0.406,0.892,0.877,1.084,1.502c0.265,0.86,1.616,0.493,1.35-0.372
						c-0.26-0.845-0.756-1.566-1.443-2.12C68.598,35.6,67.601,36.583,68.304,37.15L68.304,37.15z"/>
				</g>
			</g>
			<g>
				<g>
					<path fill="#F178AC" d="M67.523,37.46c0.505,0.405,0.894,0.876,1.085,1.501c0.263,0.861,1.614,0.494,1.35-0.372
						c-0.258-0.846-0.756-1.567-1.444-2.12c-0.298-0.238-0.698-0.292-0.99,0C67.276,36.718,67.226,37.221,67.523,37.46L67.523,37.46
						z"/>
				</g>
			</g>
			<g>
				<g>
					<path fill="#F178AC" d="M38.692,40.466c0.186-0.627,0.522-1.123,1.028-1.537c0.699-0.572-0.297-1.557-0.99-0.99
						c-0.684,0.56-1.138,1.313-1.388,2.155C37.085,40.962,38.436,41.33,38.692,40.466L38.692,40.466z"/>
				</g>
			</g>
			<g>
				<g>
					<path fill="#F178AC" d="M39.3,41.029c0.187-0.627,0.522-1.124,1.028-1.538c0.699-0.572-0.298-1.557-0.99-0.99
						c-0.684,0.56-1.137,1.314-1.388,2.156C37.692,41.524,39.043,41.893,39.3,41.029L39.3,41.029z"/>
				</g>
			</g>
			<g>
				<g>
					<path fill="#F178AC" d="M48.085,55.249c1.132-0.389,2.285-0.68,3.482-0.765c0.896-0.064,0.901-1.465,0-1.4
						c-1.323,0.095-2.601,0.386-3.854,0.815C46.865,54.19,47.229,55.543,48.085,55.249L48.085,55.249z"/>
				</g>
			</g>
			<g>
				<g>
					<path fill="#F178AC" d="M48.37,55.922c1.06-0.364,2.143-0.644,3.261-0.75c0.891-0.085,0.898-1.486,0-1.4
						c-1.246,0.119-2.45,0.395-3.633,0.801C47.149,54.863,47.513,56.216,48.37,55.922L48.37,55.922z"/>
				</g>
			</g>
			<g>
				<g>
					<path fill="#F178AC" d="M45.545,80.305c-0.046,0.522-0.18,1.025-0.419,1.493c-0.41,0.803,0.798,1.511,1.209,0.707
						c0.357-0.7,0.541-1.42,0.611-2.2C47.025,79.405,45.625,79.413,45.545,80.305L45.545,80.305z"/>
				</g>
			</g>
			<g>
				<g>
					<path fill="#F178AC" d="M44.712,80.171c-0.034,0.523-0.142,1.036-0.366,1.513c-0.38,0.813,0.826,1.523,1.209,0.707
						c0.333-0.713,0.506-1.436,0.557-2.22C46.171,79.27,44.771,79.274,44.712,80.171L44.712,80.171z"/>
				</g>
			</g>
			<g>
				<g>
					<path fill="#F178AC" d="M67.834,63.98c0.181,0.83,0.212,1.873,0.075,2.711c-0.144,0.884,1.205,1.262,1.35,0.373
						c0.18-1.104,0.164-2.362-0.075-3.457C68.991,62.726,67.642,63.1,67.834,63.98L67.834,63.98z"/>
				</g>
			</g>
			<g>
				<g>
					<path fill="#F178AC" d="M66.999,64.09c0.216,0.9,0.227,1.981,0.104,2.898c-0.119,0.893,1.282,0.881,1.4,0
						c0.139-1.04,0.091-2.25-0.154-3.271C68.139,62.84,66.789,63.212,66.999,64.09L66.999,64.09z"/>
				</g>
			</g>
		</g>
	</g>
</g>
</svg>
