<?xml version="1.0" encoding="utf-8"?>
<!-- Generator: Adobe Illustrator 16.0.0, SVG Export Plug-In . SVG Version: 6.00 Build 0)  -->
<!DOCTYPE svg PUBLIC "-//W3C//DTD SVG 1.1//EN" "http://www.w3.org/Graphics/SVG/1.1/DTD/svg11.dtd">
<svg version="1.1" xmlns="http://www.w3.org/2000/svg" xmlns:xlink="http://www.w3.org/1999/xlink" x="0px" y="0px" width="100px"
	 height="100px" viewBox="0 0 100 100" enable-background="new 0 0 100 100" xml:space="preserve">
<g id="Layer_1" display="none">
	<rect x="7.375" y="7" display="inline" fill="#3A77BC" width="84.875" height="84.875"/>
</g>
<g id="Layer_2">
	<g>
		<g>
			<linearGradient id="SVGID_1_" gradientUnits="userSpaceOnUse" x1="51.3887" y1="21.5757" x2="51.3887" y2="18.3726">
				<stop  offset="0" style="stop-color:#769BA4"/>
				<stop  offset="1" style="stop-color:#5C738C"/>
			</linearGradient>
			<path fill="url(#SVGID_1_)" d="M45.275,18.575c0,0,5.424,3.693,12.229,0.443h1.166c0,0-1.56,2.911-7.695,2.522
				c-4.129-0.262-6.867-3.167-6.867-3.167L45.275,18.575z"/>
			<linearGradient id="SVGID_2_" gradientUnits="userSpaceOnUse" x1="36.0703" y1="59.6201" x2="36.0703" y2="24.8208">
				<stop  offset="0" style="stop-color:#DDE5DB"/>
				<stop  offset="1" style="stop-color:#8196A5"/>
			</linearGradient>
			<polygon fill="url(#SVGID_2_)" points="37.561,59.135 34.322,59.62 34.322,37.88 34.868,36.093 34.897,24.893 37.263,24.82 
				37.311,36.282 37.819,37.806 			"/>
			<linearGradient id="SVGID_3_" gradientUnits="userSpaceOnUse" x1="36.7876" y1="27.5801" x2="36.7876" y2="23.168">
				<stop  offset="0" style="stop-color:#DDE5DB"/>
				<stop  offset="1" style="stop-color:#8196A5"/>
			</linearGradient>
			<path fill="url(#SVGID_3_)" d="M34.949,27.58l3.114-0.116c0,0,1.714-2.09,0.01-4.296h-3.326
				C34.748,23.168,35.402,25.531,34.949,27.58z"/>
			<linearGradient id="SVGID_4_" gradientUnits="userSpaceOnUse" x1="34.8979" y1="27.584" x2="34.8979" y2="23.168">
				<stop  offset="0" style="stop-color:#3F6481"/>
				<stop  offset="1" style="stop-color:#5C738C"/>
			</linearGradient>
			<ellipse fill="url(#SVGID_4_)" cx="34.898" cy="25.375" rx="0.886" ry="2.208"/>
			<linearGradient id="SVGID_5_" gradientUnits="userSpaceOnUse" x1="37.4736" y1="23.6743" x2="37.4736" y2="11.5313">
				<stop  offset="0" style="stop-color:#DDE5DB"/>
				<stop  offset="1" style="stop-color:#8196A5"/>
			</linearGradient>
			<path fill="url(#SVGID_5_)" d="M35.215,23.168c0,0,1.336,1.14,2.858,0l1.659-11.637h-2.944L35.215,23.168z"/>
			<linearGradient id="SVGID_6_" gradientUnits="userSpaceOnUse" x1="38.4585" y1="13.1089" x2="38.4585" y2="8.6978">
				<stop  offset="0" style="stop-color:#DDE5DB"/>
				<stop  offset="1" style="stop-color:#8196A5"/>
			</linearGradient>
			<path fill="url(#SVGID_6_)" d="M36.619,13.109l3.115-0.116c0,0,1.714-2.09,0.01-4.295h-3.325
				C36.418,8.698,37.072,11.061,36.619,13.109z"/>
			<linearGradient id="SVGID_7_" gradientUnits="userSpaceOnUse" x1="36.5679" y1="13.1128" x2="36.5679" y2="8.6978">
				<stop  offset="0" style="stop-color:#3F6481"/>
				<stop  offset="1" style="stop-color:#5C738C"/>
			</linearGradient>
			<ellipse fill="url(#SVGID_7_)" cx="36.568" cy="10.905" rx="0.886" ry="2.208"/>
			<linearGradient id="SVGID_8_" gradientUnits="userSpaceOnUse" x1="42.5679" y1="15.0063" x2="42.5679" y2="9.1782">
				<stop  offset="0" style="stop-color:#DDE5DB"/>
				<stop  offset="1" style="stop-color:#8196A5"/>
			</linearGradient>
			<path fill="url(#SVGID_8_)" d="M39.088,9.178c0,0-1.092,0.268-1.27,1.727c-0.178,1.459,1.009,1.93,1.009,1.93l7.684,2.171
				l0.823-4.726L39.088,9.178z"/>
			<linearGradient id="SVGID_9_" gradientUnits="userSpaceOnUse" x1="43.9136" y1="18.4814" x2="43.9136" y2="8.2739">
				<stop  offset="0" style="stop-color:#769BA4"/>
				<stop  offset="1" style="stop-color:#5C738C"/>
			</linearGradient>
			<path fill="url(#SVGID_9_)" d="M42.891,17.895c0,0-0.967-5.195,0.445-9.484l1.923-0.137c0,0-0.883,5.321-0.876,10.208
				L42.891,17.895z"/>
			<linearGradient id="SVGID_10_" gradientUnits="userSpaceOnUse" x1="52.6865" y1="19.0391" x2="52.6865" y2="8.2549">
				<stop  offset="0" style="stop-color:#DDE5DB"/>
				<stop  offset="1" style="stop-color:#8196A5"/>
			</linearGradient>
			<path fill="url(#SVGID_10_)" d="M45.259,8.274c0,0,9.647-0.29,15.985,1.375c0,0,0.297,5.864-1.355,9.338
				c0,0-8.279,0.29-15.505-0.506C44.383,18.481,43.36,12.093,45.259,8.274z"/>
			<linearGradient id="SVGID_11_" gradientUnits="userSpaceOnUse" x1="53.6465" y1="18.6719" x2="53.6465" y2="8.8979">
				<stop  offset="0" style="stop-color:#A6C5B9"/>
				<stop  offset="1" style="stop-color:#728A9A"/>
			</linearGradient>
			<path fill="url(#SVGID_11_)" d="M45.966,8.898c0,0,10.044,0.028,15.745,1.629c0,0,0.681,5.267-1.193,8.145
				c0,0-11.293-0.271-14.877-0.76C45.64,17.912,45.07,15.006,45.966,8.898z"/>
			<linearGradient id="SVGID_12_" gradientUnits="userSpaceOnUse" x1="46.0278" y1="17.9971" x2="46.0278" y2="8.8979">
				<stop  offset="0" style="stop-color:#769BA4"/>
				<stop  offset="1" style="stop-color:#5C738C"/>
			</linearGradient>
			<path fill="url(#SVGID_12_)" d="M45.966,8.898l0.815,0.01c0,0-0.679,4.643-0.408,9.089l-0.733-0.085
				C45.64,17.912,44.632,13.378,45.966,8.898z"/>
			
				<linearGradient id="SVGID_13_" gradientUnits="userSpaceOnUse" x1="53.1172" y1="-15.813" x2="67.4189" y2="-15.813" gradientTransform="matrix(0.9988 0.0483 -0.0644 1.3325 -7.1294 31.8662)">
				<stop  offset="0" style="stop-color:#8196A5"/>
				<stop  offset="1" style="stop-color:#DDE5DB"/>
			</linearGradient>
			<path fill="url(#SVGID_13_)" d="M61.227,14.051c-0.086,1.741-3.351,2.997-7.295,2.807c-3.943-0.19-7.073-1.757-6.989-3.498
				c0.084-1.741,3.351-2.997,7.294-2.806C58.181,10.745,61.311,12.311,61.227,14.051z"/>
			
				<ellipse transform="matrix(0.9988 0.0483 -0.0483 0.9988 0.7233 -2.5766)" fill="#FFFFFF" cx="53.712" cy="13.688" rx="6.778" ry="3.156"/>
			<linearGradient id="SVGID_14_" gradientUnits="userSpaceOnUse" x1="45.2749" y1="20.0723" x2="59.3066" y2="20.0723">
				<stop  offset="0" style="stop-color:#DDE5DB"/>
				<stop  offset="1" style="stop-color:#8196A5"/>
			</linearGradient>
			<path fill="url(#SVGID_14_)" d="M46.781,18.688c0,0,5.084,3.581,11.889,0.331l0.637,0.021c0,0-2.283,2.937-7.839,2.483
				c-3.656-0.298-6.193-2.946-6.193-2.946L46.781,18.688z"/>
			<g>
				<path fill="#3F6481" d="M36.252,36.471c-1.007,0-1.419-0.282-1.441-0.297l0.113-0.161l-0.057,0.081l0.056-0.081
					c0.007,0.005,0.667,0.443,2.372,0.173l0.03,0.194C36.911,36.445,36.555,36.471,36.252,36.471z"/>
			</g>
			<g>
				<path fill="#3F6481" d="M37.954,18.138c-1.351,0-1.965-1.236-1.972-1.251l0.176-0.085c0.033,0.067,0.82,1.638,2.636,0.98
					l0.067,0.185C38.529,18.088,38.226,18.138,37.954,18.138z"/>
			</g>
			<linearGradient id="SVGID_15_" gradientUnits="userSpaceOnUse" x1="34.8975" y1="29.2441" x2="37.311" y2="29.2441">
				<stop  offset="0.004" style="stop-color:#323B65"/>
				<stop  offset="0.0954" style="stop-color:#3A4069"/>
				<stop  offset="0.2529" style="stop-color:#4D5075"/>
				<stop  offset="0.4576" style="stop-color:#6E6C8B"/>
				<stop  offset="0.7016" style="stop-color:#A09DB2"/>
				<stop  offset="0.9762" style="stop-color:#F5F5F7"/>
				<stop  offset="0.9921" style="stop-color:#FFFFFF"/>
			</linearGradient>
			<path opacity="0.67" fill="url(#SVGID_15_)" d="M34.897,30.996c0,0,0.759-1.357,2.385-1.52l0.028-1.983l-2.414,0.092V30.996z"/>
			<linearGradient id="SVGID_16_" gradientUnits="userSpaceOnUse" x1="36.3188" y1="13.9883" x2="39.478" y2="13.9883">
				<stop  offset="0.004" style="stop-color:#323B65"/>
				<stop  offset="0.0954" style="stop-color:#3A4069"/>
				<stop  offset="0.2529" style="stop-color:#4D5075"/>
				<stop  offset="0.4576" style="stop-color:#6E6C8B"/>
				<stop  offset="0.7016" style="stop-color:#A09DB2"/>
				<stop  offset="0.9762" style="stop-color:#F5F5F7"/>
				<stop  offset="0.9921" style="stop-color:#FFFFFF"/>
			</linearGradient>
			<path opacity="0.67" fill="url(#SVGID_16_)" d="M36.319,15.006c0,0,1.179-1.17,2.139-1.221c0.96-0.051,0.866,0.61,0.866,0.61
				l0.154-1.425l-2.91,0.143L36.319,15.006z"/>
			<linearGradient id="SVGID_17_" gradientUnits="userSpaceOnUse" x1="36.0703" y1="59.3193" x2="36.0703" y2="36.6885">
				<stop  offset="0" style="stop-color:#010101"/>
				<stop  offset="1" style="stop-color:#996747"/>
			</linearGradient>
			<path opacity="0.5" fill="url(#SVGID_17_)" d="M34.322,37.88c0,0,1.438,0.432,1.999,0.416v21.023l0.669-0.151l0.321-20.872
				l0.508-0.49l-0.508-1.118c0,0-1.634,0.072-2.625,0L34.322,37.88z"/>
			<linearGradient id="SVGID_18_" gradientUnits="userSpaceOnUse" x1="37.3188" y1="26.9243" x2="37.3188" y2="24.2002">
				<stop  offset="0" style="stop-color:#010101"/>
				<stop  offset="1" style="stop-color:#996747"/>
			</linearGradient>
			<path opacity="0.5" fill="url(#SVGID_18_)" d="M36.319,24.2h1.965c0,0,0.208,1.721-0.385,2.724h-1.11
				C36.788,26.924,36.634,25.061,36.319,24.2z"/>
			
				<radialGradient id="SVGID_19_" cx="3.2539" cy="61.5723" r="0.0957" gradientTransform="matrix(0 -69.8518 -121.2012 0 7518.0625 241.25)" gradientUnits="userSpaceOnUse">
				<stop  offset="0" style="stop-color:#FEF6AC"/>
				<stop  offset="0.0957" style="stop-color:#E6DE9E"/>
				<stop  offset="0.269" style="stop-color:#B8B183"/>
				<stop  offset="0.5002" style="stop-color:#7A755C"/>
				<stop  offset="0.7771" style="stop-color:#3B3930"/>
				<stop  offset="1" style="stop-color:#010101"/>
			</radialGradient>
			<ellipse fill="url(#SVGID_19_)" cx="55.413" cy="13.989" rx="11.563" ry="6.665"/>
		</g>
		<g>
			<linearGradient id="SVGID_20_" gradientUnits="userSpaceOnUse" x1="39.7837" y1="49.0332" x2="39.7837" y2="42.0913">
				<stop  offset="0" style="stop-color:#8196A5"/>
				<stop  offset="1" style="stop-color:#BBCCCD"/>
			</linearGradient>
			<path fill="url(#SVGID_20_)" d="M50.193,42.221c-2.345,2.491-4.675,4.094-6.799,5.113c-0.335,0.16-0.663,0.307-0.987,0.438
				c-4.65,1.912-8.085,1.082-8.085,1.082c-2.961-1.917-4.948-6.762-4.948-6.762s0.021,0.007,0.06,0.019
				c2.167,0.697,5.435,1.139,5.435,1.139L50.193,42.221z"/>
			<linearGradient id="SVGID_21_" gradientUnits="userSpaceOnUse" x1="39.7832" y1="43.25" x2="39.7832" y2="41.2437">
				<stop  offset="0" style="stop-color:#C1CAD2"/>
				<stop  offset="1" style="stop-color:#EFF5DA"/>
			</linearGradient>
			<path fill="url(#SVGID_21_)" d="M29.373,42.091c0,0,8.776-0.991,14.256-0.83c0,0,4.052-0.081,6.564,0.958
				c0,0-4.31,0.799-15.326,1.03C34.868,43.25,32,43.038,29.373,42.091z"/>
			<linearGradient id="SVGID_22_" gradientUnits="userSpaceOnUse" x1="39.3208" y1="42.9004" x2="39.3208" y2="41.5811">
				<stop  offset="0" style="stop-color:#99A0AD"/>
				<stop  offset="1" style="stop-color:#8196A5"/>
			</linearGradient>
			<path fill="url(#SVGID_22_)" d="M30.791,42.22c0,0,2.36,0.5,4.077,0.681c0,0,10.726-0.14,12.983-0.958
				c0,0-2.912-0.382-6.522-0.36C38.009,41.603,32.449,42.079,30.791,42.22z"/>
			<linearGradient id="SVGID_23_" gradientUnits="userSpaceOnUse" x1="36.3838" y1="49.0332" x2="36.3838" y2="42.0913">
				<stop  offset="0.004" style="stop-color:#323B65"/>
				<stop  offset="0.0954" style="stop-color:#3A4069"/>
				<stop  offset="0.2529" style="stop-color:#4D5075"/>
				<stop  offset="0.4576" style="stop-color:#6E6C8B"/>
				<stop  offset="0.7016" style="stop-color:#A09DB2"/>
				<stop  offset="0.9762" style="stop-color:#F5F5F7"/>
				<stop  offset="0.9921" style="stop-color:#FFFFFF"/>
			</linearGradient>
			<path opacity="0.3" fill="url(#SVGID_23_)" d="M43.394,47.334l-0.987,0.438c-4.65,1.912-8.085,1.082-8.085,1.082
				c-2.961-1.917-4.948-6.762-4.948-6.762s0.021,0.007,0.06,0.019c0.465,0.156,3.521,1.158,4.889,1.139c0,0-0.226,3.634,1.164,4.703
				C36.874,49.021,43.394,47.334,43.394,47.334z"/>
			<path fill="#F5F7DB" d="M38.714,43.139c0,0,3.33,0.122,4.915-0.238C43.629,42.9,40.745,42.877,38.714,43.139z"/>
			<linearGradient id="SVGID_24_" gradientUnits="userSpaceOnUse" x1="37.3286" y1="41.6465" x2="37.3286" y2="37.3682">
				<stop  offset="0" style="stop-color:#036BA5"/>
				<stop  offset="1" style="stop-color:#2DB5AD"/>
			</linearGradient>
			<path fill="url(#SVGID_24_)" d="M35.326,41.573c0,0,2.417,0.289,4.006-0.28v-3.662c0,0-2.034-0.673-3.81,0.135L35.326,41.573z"/>
			<linearGradient id="SVGID_25_" gradientUnits="userSpaceOnUse" x1="37.4268" y1="37.9487" x2="37.4268" y2="37.2051">
				<stop  offset="0" style="stop-color:#48C2C4"/>
				<stop  offset="1" style="stop-color:#5FC4B4"/>
			</linearGradient>
			<path fill="url(#SVGID_25_)" d="M35.522,37.767c0,0,1.905,0.489,3.81-0.135C39.332,37.631,37.8,36.588,35.522,37.767z"/>
			<linearGradient id="SVGID_26_" gradientUnits="userSpaceOnUse" x1="40.3198" y1="40.4995" x2="40.3198" y2="39.627">
				<stop  offset="0" style="stop-color:#3F6481"/>
				<stop  offset="1" style="stop-color:#5C738C"/>
			</linearGradient>
			<ellipse fill="url(#SVGID_26_)" cx="40.32" cy="40.064" rx="1.063" ry="0.436"/>
			<linearGradient id="SVGID_27_" gradientUnits="userSpaceOnUse" x1="36.8921" y1="39.2725" x2="42.3374" y2="39.2725">
				<stop  offset="0" style="stop-color:#8196A5"/>
				<stop  offset="1" style="stop-color:#DDE5DB"/>
			</linearGradient>
			<path fill="url(#SVGID_27_)" d="M37.21,38.407c0,0-0.576,0.492-0.179,1.343l2.737,0.537l2.568-0.251v-0.528l-3.056-1.1
				C39.282,38.407,38.362,38.071,37.21,38.407z"/>
			<linearGradient id="SVGID_28_" gradientUnits="userSpaceOnUse" x1="39.6147" y1="39.8433" x2="42.3374" y2="39.8433">
				<stop  offset="0" style="stop-color:#414E47"/>
				<stop  offset="1" style="stop-color:#010101"/>
			</linearGradient>
			<path opacity="0.5" fill="url(#SVGID_28_)" d="M39.769,40.287l-0.154-0.78c0,0,1.458-0.242,2.723,0v0.528L39.769,40.287z"/>
			<linearGradient id="SVGID_29_" gradientUnits="userSpaceOnUse" x1="35.9731" y1="55.085" x2="35.9731" y2="48.854">
				<stop  offset="0.0079" style="stop-color:#FFFFFF"/>
				<stop  offset="0.0238" style="stop-color:#F5F5F7"/>
				<stop  offset="0.2984" style="stop-color:#A09DB2"/>
				<stop  offset="0.5424" style="stop-color:#6E6C8B"/>
				<stop  offset="0.7471" style="stop-color:#4D5075"/>
				<stop  offset="0.9046" style="stop-color:#3A4069"/>
				<stop  offset="0.996" style="stop-color:#323B65"/>
			</linearGradient>
			<path opacity="0.67" fill="url(#SVGID_29_)" d="M34.322,48.854v6.231c0,0,2.667-0.326,3.303-1.271v-4.843L34.322,48.854z"/>
		</g>
		<g>
			<linearGradient id="SVGID_30_" gradientUnits="userSpaceOnUse" x1="45.6719" y1="58.4229" x2="45.6719" y2="49.6426">
				<stop  offset="0" style="stop-color:#5C738C"/>
				<stop  offset="1" style="stop-color:#769BA4"/>
			</linearGradient>
			<path fill="url(#SVGID_30_)" d="M44.784,58.423c0,0-1.043-0.022-1.516-1.211c0,0-0.886-0.534-2.118-0.383
				c0,0,4.519-5.724,6.445-6.92c0,0,1.5-0.462,2.598-0.17L44.784,58.423z"/>
			<linearGradient id="SVGID_31_" gradientUnits="userSpaceOnUse" x1="47.3228" y1="58.4395" x2="47.3228" y2="50.0293">
				<stop  offset="0" style="stop-color:#DDE5DB"/>
				<stop  offset="1" style="stop-color:#8196A5"/>
			</linearGradient>
			<path fill="url(#SVGID_31_)" d="M43.629,57.153l5.125-6.486c1.315-1.245,2.595-0.524,2.186,0.914l-3.803,5.055
				C46.733,58.868,43.629,59.015,43.629,57.153z"/>
			<linearGradient id="SVGID_32_" gradientUnits="userSpaceOnUse" x1="43.688" y1="51.8496" x2="43.688" y2="49.2324">
				<stop  offset="0" style="stop-color:#48C2C4"/>
				<stop  offset="1" style="stop-color:#5FC4B4"/>
			</linearGradient>
			<path fill="url(#SVGID_32_)" d="M37.877,51.85h-4.665c0,0-0.286-0.54,0.454-1.382c0,0,14.291-2.059,20.55-0.861L37.877,51.85z"/>
			<linearGradient id="SVGID_33_" gradientUnits="userSpaceOnUse" x1="37.877" y1="50.9185" x2="54.2939" y2="50.9185">
				<stop  offset="0" style="stop-color:#036BA5"/>
				<stop  offset="1" style="stop-color:#2DB5AD"/>
			</linearGradient>
			<path fill="url(#SVGID_33_)" d="M53.634,52.363c0,0,0.928-1.17,0.583-2.757c0,0-4.08-0.785-15.467,0.952
				c0,0-0.873,0.322-0.873,1.291C37.877,51.85,48.228,52.594,53.634,52.363z"/>
			
				<linearGradient id="SVGID_34_" gradientUnits="userSpaceOnUse" x1="39.1021" y1="60.3467" x2="39.1021" y2="54.5186" gradientTransform="matrix(0.9999 0.017 -0.017 0.9999 1.0293 0.8359)">
				<stop  offset="0" style="stop-color:#5C738C"/>
				<stop  offset="1" style="stop-color:#769BA4"/>
			</linearGradient>
			<path fill="url(#SVGID_34_)" d="M36.029,61.44c0,0,0.73-3.454,2.685-5.436l3.565,0.061c0,0-1.683,2.157-2.751,5.782L36.029,61.44
				z"/>
			
				<linearGradient id="SVGID_35_" gradientUnits="userSpaceOnUse" x1="39.5283" y1="56.874" x2="51.1445" y2="56.874" gradientTransform="matrix(0.9999 0.017 -0.017 0.9999 1.0293 0.8359)">
				<stop  offset="0" style="stop-color:#8196A5"/>
				<stop  offset="1" style="stop-color:#DDE5DB"/>
			</linearGradient>
			<path fill="url(#SVGID_35_)" d="M39.528,61.848c0,0,7.305-0.637,11.025-1.698c0,0,1.165-2.417,0.437-5.048
				c0,0-4.268-0.218-8.921,0.987C42.068,56.089,40.485,58.391,39.528,61.848z"/>
			
				<linearGradient id="SVGID_36_" gradientUnits="userSpaceOnUse" x1="44.7446" y1="54.5459" x2="44.7446" y2="53.1201" gradientTransform="matrix(0.9999 0.017 -0.017 0.9999 1.0293 0.8359)">
				<stop  offset="0" style="stop-color:#C1CAD2"/>
				<stop  offset="1" style="stop-color:#DDE5DB"/>
			</linearGradient>
			<path fill="url(#SVGID_36_)" d="M50.989,55.102c0,0-1.489-0.249-2.869-0.336c0,0-5.83-0.043-9.406,1.239l3.354,0.084
				C42.068,56.089,46.962,55.016,50.989,55.102z"/>
			<linearGradient id="SVGID_37_" gradientUnits="userSpaceOnUse" x1="15.9556" y1="85.9492" x2="62.4619" y2="85.9492">
				<stop  offset="0" style="stop-color:#769BA4"/>
				<stop  offset="1" style="stop-color:#5C738C"/>
			</linearGradient>
			<path fill="url(#SVGID_37_)" d="M62.462,81.059c0,0-14.311,0.445-20.687-0.954l-9.965,0.954c0,0-6.868,1.12-12.515,3.46
				c0,0-2.605,1.764-3.339,4.464c3.189,2.727,11.295,3.229,20.176,2.522L62.462,81.059z"/>
			<linearGradient id="SVGID_38_" gradientUnits="userSpaceOnUse" x1="36.1313" y1="86.2813" x2="67.5811" y2="86.2813">
				<stop  offset="0" style="stop-color:#DDE5DB"/>
				<stop  offset="1" style="stop-color:#8196A5"/>
			</linearGradient>
			<path fill="url(#SVGID_38_)" d="M39.464,86.384l10.438-3.452l12.56-1.873c0,0,3.191,2.748,5.119,6.245l-31.45,4.201
				C36.131,91.505,37.241,88.209,39.464,86.384z"/>
			<linearGradient id="SVGID_39_" gradientUnits="userSpaceOnUse" x1="51.0693" y1="81.7686" x2="51.0693" y2="65.2979">
				<stop  offset="0" style="stop-color:#3F6481"/>
				<stop  offset="1" style="stop-color:#5C738C"/>
			</linearGradient>
			<path fill="url(#SVGID_39_)" d="M56.308,81.769c0,0-9.632-0.136-15.941-1.528c0,0,3.46-10.809,6.874-14.942h14.533L56.308,81.769
				z"/>
			<linearGradient id="SVGID_40_" gradientUnits="userSpaceOnUse" x1="56.3164" y1="71.6768" x2="56.3164" y2="65.2979">
				<stop  offset="0" style="stop-color:#3F6481"/>
				<stop  offset="1" style="stop-color:#5C738C"/>
			</linearGradient>
			<polygon fill="url(#SVGID_40_)" points="72.415,65.298 65.487,71.677 65.938,70.26 59.705,69.811 42.723,70.448 40.218,66.52 
				56.041,66.52 			"/>
			<linearGradient id="SVGID_41_" gradientUnits="userSpaceOnUse" x1="58.9863" y1="63.625" x2="30.2808" y2="63.625">
				<stop  offset="0" style="stop-color:#5C738C"/>
				<stop  offset="1" style="stop-color:#769BA4"/>
			</linearGradient>
			<path fill="url(#SVGID_41_)" d="M56.604,66.641c0,0-21.075-1.421-26.322-2.483l0.562-3.547c0,0,17.165-0.045,28.143,0.533
				C58.986,61.144,57.426,64.186,56.604,66.641z"/>
			<linearGradient id="SVGID_42_" gradientUnits="userSpaceOnUse" x1="56.6035" y1="61.9541" x2="73.4385" y2="61.9541">
				<stop  offset="0" style="stop-color:#8196A5"/>
				<stop  offset="1" style="stop-color:#DDE5DB"/>
			</linearGradient>
			<path fill="url(#SVGID_42_)" d="M73.348,56.978c0,0,0.52,3.948-0.933,8.32c0,0-7.222,2.458-15.812,1.343
				c0,0,1.165-3.904,2.383-5.497C58.986,61.144,71.374,58.508,73.348,56.978z"/>
			<linearGradient id="SVGID_43_" gradientUnits="userSpaceOnUse" x1="54.3691" y1="83.166" x2="58.457" y2="83.166">
				<stop  offset="0" style="stop-color:#3F6481"/>
				<stop  offset="1" style="stop-color:#5C738C"/>
			</linearGradient>
			<path fill="url(#SVGID_43_)" d="M54.369,82.266c0,0,1.895,1.864,4.088,2.298l-2.149-2.795L54.369,82.266z"/>
			<linearGradient id="SVGID_44_" gradientUnits="userSpaceOnUse" x1="61.0859" y1="84.665" x2="61.0859" y2="69.8105">
				<stop  offset="0" style="stop-color:#DDE5DB"/>
				<stop  offset="1" style="stop-color:#8196A5"/>
			</linearGradient>
			<path fill="url(#SVGID_44_)" d="M65.938,70.26c0,0-0.671,2.157-3.476,10.799c-1.115,5.804-6.94,3.505-6.154,0.71
				c0,0,1.999-7.688,3.397-11.958L65.938,70.26z"/>
			<linearGradient id="SVGID_45_" gradientUnits="userSpaceOnUse" x1="45.3789" y1="70.998" x2="65.9375" y2="70.998">
				<stop  offset="0.004" style="stop-color:#323B65"/>
				<stop  offset="0.0954" style="stop-color:#3A4069"/>
				<stop  offset="0.2529" style="stop-color:#4D5075"/>
				<stop  offset="0.4576" style="stop-color:#6E6C8B"/>
				<stop  offset="0.7016" style="stop-color:#A09DB2"/>
				<stop  offset="0.9762" style="stop-color:#F5F5F7"/>
				<stop  offset="0.9921" style="stop-color:#FFFFFF"/>
			</linearGradient>
			<path opacity="0.67" fill="url(#SVGID_45_)" d="M45.379,75.429l13.078-1.509l5.7,1.899l1.78-5.56l-6.232-0.449
				c0,0-2.156-1.344-3.102-3.17l-6.41-0.465C50.193,66.176,46,73.504,45.379,75.429z"/>
			<linearGradient id="SVGID_46_" gradientUnits="userSpaceOnUse" x1="74.9336" y1="37.5093" x2="74.9336" y2="27.8906">
				<stop  offset="0" style="stop-color:#046990"/>
				<stop  offset="1" style="stop-color:#0775A2"/>
			</linearGradient>
			<path fill="url(#SVGID_46_)" d="M76.059,35.541l1.853,1.969c0,0,1.767-9.619-6.123-9.619L76.059,35.541z"/>
			<linearGradient id="SVGID_47_" gradientUnits="userSpaceOnUse" x1="70.292" y1="35.8877" x2="69.8192" y2="28.0044">
				<stop  offset="0" style="stop-color:#0B7EAE"/>
				<stop  offset="1" style="stop-color:#5FC4B4"/>
			</linearGradient>
			<path fill="url(#SVGID_47_)" d="M63.622,35.154c0,0,6.471-1.552,12.437,0.386c0,0,2.73-6.494-3.134-7.556
				S63.622,35.154,63.622,35.154z"/>
			<linearGradient id="SVGID_48_" gradientUnits="userSpaceOnUse" x1="70.7666" y1="38.043" x2="70.7666" y2="34.0986">
				<stop  offset="0" style="stop-color:#015076"/>
				<stop  offset="1" style="stop-color:#015B87"/>
			</linearGradient>
			<path fill="url(#SVGID_48_)" d="M63.622,35.154l0.862,0.952c0,0,5.403,3.166,13.427,1.403l-1.853-1.969
				C76.059,35.541,69.636,32.572,63.622,35.154z"/>
			<linearGradient id="SVGID_49_" gradientUnits="userSpaceOnUse" x1="32.2905" y1="79.0127" x2="32.2905" y2="75.4287">
				<stop  offset="0" style="stop-color:#015076"/>
				<stop  offset="1" style="stop-color:#015B87"/>
			</linearGradient>
			<path fill="url(#SVGID_49_)" d="M20.239,75.429c0,0,1.087,0.982,3.893,2.444c0,0,6.255,2.868,20.209-0.494l-2.732-1.95H20.239z"
				/>
			<linearGradient id="SVGID_50_" gradientUnits="userSpaceOnUse" x1="52.7861" y1="59.4688" x2="52.7861" y2="55.54">
				<stop  offset="0" style="stop-color:#48C2C4"/>
				<stop  offset="1" style="stop-color:#5FC4B4"/>
			</linearGradient>
			<path fill="url(#SVGID_50_)" d="M33.158,57.458c0,0,6.93-1.375,19.438-1.918l19.818,0.121c0,0-5.698,2.684-16.374,2.693
				C56.041,58.354,41.12,61.382,33.158,57.458z"/>
			<linearGradient id="SVGID_51_" gradientUnits="userSpaceOnUse" x1="38.2056" y1="77.0928" x2="38.2056" y2="57.458">
				<stop  offset="0" style="stop-color:#036BA5"/>
				<stop  offset="1" style="stop-color:#2DB5AD"/>
			</linearGradient>
			<path fill="url(#SVGID_51_)" d="M33.158,57.458c0,0-8.479,4.926-12.919,17.971c0,0,6.661,3.745,21.37,0
				c0,0,5.821-12.93,14.563-17.088C56.172,58.341,37.196,59.554,33.158,57.458z"/>
			<linearGradient id="SVGID_52_" gradientUnits="userSpaceOnUse" x1="64.8066" y1="56.083" x2="64.8066" y2="35.9395">
				<stop  offset="0" style="stop-color:#036BA5"/>
				<stop  offset="1" style="stop-color:#2DB5AD"/>
			</linearGradient>
			<path fill="url(#SVGID_52_)" d="M52.597,55.54c0,0,1.77-10.731,8.367-17.785c0,0,5.588-4.07,16.053-0.025l-5.157,18.353
				C71.859,56.083,62.034,55.531,52.597,55.54z"/>
			<linearGradient id="SVGID_53_" gradientUnits="userSpaceOnUse" x1="57.1348" y1="77.3789" x2="57.1348" y2="55.6611">
				<stop  offset="0" style="stop-color:#046990"/>
				<stop  offset="1" style="stop-color:#0775A2"/>
			</linearGradient>
			<path fill="url(#SVGID_53_)" d="M72.415,55.661c0,0,0.557,0.99,0,2.697c0,0-3.972,2.613-14.808,3.322
				c0,0-6.037,2.3-13.266,15.698c0,0-1.99-0.451-2.732-1.95c0,0,4.984-12.375,14.432-17.074
				C56.041,58.354,69.433,56.958,72.415,55.661z"/>
			<linearGradient id="SVGID_54_" gradientUnits="userSpaceOnUse" x1="57.8262" y1="62.7451" x2="72.7334" y2="62.7451">
				<stop  offset="0.004" style="stop-color:#323B65"/>
				<stop  offset="0.0954" style="stop-color:#3A4069"/>
				<stop  offset="0.2529" style="stop-color:#4D5075"/>
				<stop  offset="0.4576" style="stop-color:#6E6C8B"/>
				<stop  offset="0.7016" style="stop-color:#A09DB2"/>
				<stop  offset="0.9762" style="stop-color:#F5F5F7"/>
				<stop  offset="0.9921" style="stop-color:#FFFFFF"/>
			</linearGradient>
			<path opacity="0.67" fill="url(#SVGID_54_)" d="M62.476,59.47c0,0-2.252,1.056-4.649,6.453c0,0,5.207,0.708,14.907-1.69
				l-0.07-0.375L62.476,59.47z"/>
			<linearGradient id="SVGID_55_" gradientUnits="userSpaceOnUse" x1="75.0469" y1="58.3584" x2="75.0469" y2="37.7305">
				<stop  offset="0" style="stop-color:#046990"/>
				<stop  offset="1" style="stop-color:#0775A2"/>
			</linearGradient>
			<path fill="url(#SVGID_55_)" d="M77.017,37.73c0,0,0.288,0.124,1.219,1.674c0,0-3.545,17.184-5.82,18.955l-0.556-2.275
				C71.859,56.083,73.883,42.179,77.017,37.73z"/>
			<linearGradient id="SVGID_56_" gradientUnits="userSpaceOnUse" x1="68.9395" y1="35.7275" x2="71.8154" y2="35.7275">
				<stop  offset="0" style="stop-color:#DDE5DB"/>
				<stop  offset="1" style="stop-color:#8196A5"/>
			</linearGradient>
			<path fill="url(#SVGID_56_)" d="M68.939,35.939l0.169-0.607c0,0,1.609-0.417,2.707,0.366l-0.079,0.537
				C71.736,36.235,70.609,36.054,68.939,35.939z"/>
			<linearGradient id="SVGID_57_" gradientUnits="userSpaceOnUse" x1="59.5977" y1="45.2671" x2="71.0449" y2="45.2671">
				<stop  offset="0" style="stop-color:#FFFFFF"/>
				<stop  offset="0.996" style="stop-color:#8053A2"/>
			</linearGradient>
			<path opacity="0.3" fill="url(#SVGID_57_)" d="M59.598,42.091c0,0,4.354-4.634,8.966-3.96c4.613,0.673,1.381,14.34,1.381,14.34
				H69.59C69.59,52.471,75.017,32.321,59.598,42.091z"/>
			
				<linearGradient id="SVGID_58_" gradientUnits="userSpaceOnUse" x1="33.251" y1="3.2197" x2="42.272" y2="3.2197" gradientTransform="matrix(0.949 -0.3153 0.3153 0.949 33.0361 41.0669)">
				<stop  offset="0" style="stop-color:#FFFFFF"/>
				<stop  offset="0.996" style="stop-color:#8053A2"/>
			</linearGradient>
			<path opacity="0.3" fill="url(#SVGID_58_)" d="M65.529,33.409c0,0,2.105-3.823,5.783-4.755c3.675-0.93,2.927,5.223,2.927,5.223
				l-0.276,0.092C73.963,33.969,74.108,24.977,65.529,33.409z"/>
			<linearGradient id="SVGID_59_" gradientUnits="userSpaceOnUse" x1="63.002" y1="53.8145" x2="63.002" y2="42.0913">
				<stop  offset="0" style="stop-color:#414E47"/>
				<stop  offset="1" style="stop-color:#010101"/>
			</linearGradient>
			<path opacity="0.5" fill="url(#SVGID_59_)" d="M59.598,42.091c0,0-4.467,6.288-2.819,9.643c1.649,3.354,9.348,1.923,12.812,0.737
				c0,0-9.8,1.752-10.824-2.554C57.739,45.61,59.598,42.091,59.598,42.091z"/>
			<linearGradient id="SVGID_60_" gradientUnits="userSpaceOnUse" x1="52.5967" y1="52.5918" x2="73.0752" y2="52.5918">
				<stop  offset="0.004" style="stop-color:#8053A2"/>
				<stop  offset="1" style="stop-color:#FFFFFF"/>
			</linearGradient>
			<path opacity="0.3" fill="url(#SVGID_60_)" d="M52.941,53.9c0,0,14.088-0.792,20.134-4.668l-0.919,5.001l-2.95,1.718
				c0,0-12.528-0.628-16.609-0.411L52.941,53.9z"/>
			<linearGradient id="SVGID_61_" gradientUnits="userSpaceOnUse" x1="62.9619" y1="65.2979" x2="62.9619" y2="59.4697">
				<stop  offset="0" style="stop-color:#5C738C"/>
				<stop  offset="1" style="stop-color:#769BA4"/>
			</linearGradient>
			<path fill="url(#SVGID_61_)" d="M59.883,64.949c0,0,0.671-3.466,2.593-5.479h3.565c0,0-1.646,2.186-2.652,5.828L59.883,64.949z"
				/>
			<linearGradient id="SVGID_62_" gradientUnits="userSpaceOnUse" x1="63.3887" y1="61.8262" x2="75.0049" y2="61.8262">
				<stop  offset="0" style="stop-color:#8196A5"/>
				<stop  offset="1" style="stop-color:#DDE5DB"/>
			</linearGradient>
			<path fill="url(#SVGID_62_)" d="M63.389,65.298c0,0,7.293-0.762,10.993-1.886c0,0,1.123-2.437,0.353-5.054
				c0,0-4.271-0.146-8.902,1.139C65.832,59.497,64.288,61.826,63.389,65.298z"/>
			<linearGradient id="SVGID_63_" gradientUnits="userSpaceOnUse" x1="68.6055" y1="59.4971" x2="68.6055" y2="58.0723">
				<stop  offset="0" style="stop-color:#C1CAD2"/>
				<stop  offset="1" style="stop-color:#DDE5DB"/>
			</linearGradient>
			<path fill="url(#SVGID_63_)" d="M74.734,58.358c0,0-1.492-0.225-2.875-0.286c0,0-5.831,0.056-9.384,1.397l3.356,0.027
				C65.832,59.497,70.704,58.339,74.734,58.358z"/>
			<linearGradient id="SVGID_64_" gradientUnits="userSpaceOnUse" x1="71.4453" y1="60.0713" x2="71.4453" y2="51.291">
				<stop  offset="0" style="stop-color:#5C738C"/>
				<stop  offset="1" style="stop-color:#769BA4"/>
			</linearGradient>
			<path fill="url(#SVGID_64_)" d="M70.557,60.071c0,0-1.042-0.022-1.514-1.211c0,0-0.886-0.535-2.119-0.384
				c0,0,4.521-5.724,6.446-6.919c0,0,1.499-0.463,2.598-0.17L70.557,60.071z"/>
			<linearGradient id="SVGID_65_" gradientUnits="userSpaceOnUse" x1="73.0977" y1="60.0869" x2="73.0977" y2="51.6768">
				<stop  offset="0" style="stop-color:#DDE5DB"/>
				<stop  offset="1" style="stop-color:#8196A5"/>
			</linearGradient>
			<path fill="url(#SVGID_65_)" d="M69.403,58.801l5.124-6.485c1.315-1.245,2.595-0.524,2.187,0.914l-3.804,5.054
				C72.508,60.516,69.403,60.662,69.403,58.801z"/>
			<g>
				<path fill="#FFFFFF" d="M53.247,89.232c-0.013-0.041-1.29-4.358-3.298-6.384l-5.525-0.472l-5.406,0.75
					c-0.01,0.001-0.02,0.001-0.029,0l-7.996-1.188c-0.048-0.008-0.084-0.049-0.086-0.097c-0.001-0.05,0.034-0.094,0.082-0.102
					l3.108-0.604l-0.743-0.127l0.034-0.199l1.288,0.22c0.048,0.008,0.084,0.049,0.084,0.098c0.001,0.05-0.034,0.091-0.082,0.1
					l-3.074,0.599l7.399,1.099l5.415-0.748l5.583,0.475c0.024,0.003,0.047,0.013,0.063,0.031c2.062,2.049,3.363,6.452,3.376,6.495
					L53.247,89.232z"/>
			</g>
			<linearGradient id="SVGID_66_" gradientUnits="userSpaceOnUse" x1="69.4609" y1="53.4971" x2="69.4609" y2="50.8804">
				<stop  offset="0" style="stop-color:#48C2C4"/>
				<stop  offset="1" style="stop-color:#5FC4B4"/>
			</linearGradient>
			<path fill="url(#SVGID_66_)" d="M63.651,53.497h-4.665c0,0-0.285-0.539,0.455-1.381c0,0,14.292-2.06,20.549-0.861L63.651,53.497z
				"/>
			<linearGradient id="SVGID_67_" gradientUnits="userSpaceOnUse" x1="63.6514" y1="52.5664" x2="80.0674" y2="52.5664">
				<stop  offset="0" style="stop-color:#036BA5"/>
				<stop  offset="1" style="stop-color:#2DB5AD"/>
			</linearGradient>
			<path fill="url(#SVGID_67_)" d="M79.408,54.012c0,0,0.927-1.171,0.582-2.757c0,0-4.078-0.786-15.466,0.952
				c0,0-0.873,0.321-0.873,1.29C63.651,53.497,74.002,54.241,79.408,54.012z"/>
			<g>
				<path fill="#3F6481" d="M53.074,89.256c-0.014-0.041-1.209-4.201-3.217-6.227l-5.525-0.473l-5.406,0.751
					c-0.009,0-0.02,0-0.029,0l-7.995-1.188c-0.049-0.009-0.085-0.049-0.086-0.098s0.033-0.092,0.082-0.101l3.175-0.619l-1.146-0.254
					l0.044-0.197l1.619,0.358c0.047,0.011,0.08,0.052,0.079,0.1c0,0.048-0.034,0.09-0.082,0.099l-3.074,0.598l7.399,1.1l5.414-0.749
					l5.584,0.478c0.024,0,0.046,0.011,0.063,0.028c2.062,2.051,3.282,6.298,3.294,6.341L53.074,89.256z"/>
			</g>
			<g>
				<path fill="#FFFFFF" d="M41.198,90.834c-0.007-0.036-0.701-3.626-1.632-4.567l-5.812-0.43c-0.148,0.035-1.59,0.417-2.752,2.201
					c-0.021,0.032-0.059,0.051-0.099,0.045l-10.532-1.486c-0.029-0.004-0.055-0.021-0.071-0.045
					c-0.015-0.023-0.02-0.055-0.011-0.084c0.017-0.055,0.393-1.291,1.439-2.179l-1.618,0.004l0-0.201l1.911-0.005
					c0.045,0.003,0.083,0.028,0.096,0.07c0.013,0.042-0.001,0.086-0.037,0.112c-0.976,0.71-1.432,1.796-1.559,2.145l10.348,1.461
					c1.263-1.902,2.794-2.226,2.859-2.238c0.009-0.003,0.019-0.003,0.027-0.003l5.863,0.435c0.023,0.001,0.045,0.013,0.062,0.028
					c0.99,0.943,1.687,4.546,1.716,4.699L41.198,90.834z"/>
			</g>
			<g>
				<path fill="#3F6481" d="M41.052,90.854c-0.008-0.036-0.701-3.436-1.632-4.374l-5.809-0.43c-0.148,0.041-1.453,0.447-2.608,2.222
					c-0.021,0.033-0.059,0.053-0.099,0.045L20.225,86.81c-0.055-0.006-0.093-0.057-0.086-0.111c0.008-0.06,0.196-1.37,1.218-2.271
					l-1.694,0.045l-0.005-0.202l1.994-0.053c0.052,0.002,0.084,0.026,0.099,0.068s0,0.088-0.036,0.114
					c-0.987,0.717-1.287,1.883-1.356,2.227l10.511,1.484c1.26-1.902,2.651-2.247,2.71-2.26c0.01-0.002,0.021-0.004,0.03-0.002
					l5.863,0.435c0.023,0.002,0.045,0.011,0.062,0.027c0.99,0.945,1.687,4.358,1.716,4.503L41.052,90.854z"/>
			</g>
			<g>
				<path fill="#FFFFFF" d="M62.728,80.747l-2.712-2.761c-0.026-0.024-0.035-0.062-0.026-0.098l1.175-4.264
					c0.01-0.035,0.036-0.062,0.069-0.069l4.18-1.159l0.055,0.194l-4.125,1.143L60.2,77.887l2.671,2.719L62.728,80.747z"/>
			</g>
			<g>
				<path fill="#FFFFFF" d="M66.224,64.997l-0.168-0.114l1.59-2.378c0.017-0.025,0.044-0.042,0.072-0.046l5.157-0.518
					c0.041-0.006,0.081,0.019,0.099,0.056l0.776,1.574l-0.181,0.089l-0.744-1.512l-5.038,0.508L66.224,64.997z"/>
			</g>
			<g>
				<polygon fill="#3F6481" points="62.553,80.628 59.799,77.827 61.003,73.451 61.059,73.435 65.239,72.277 65.291,72.474 
					61.168,73.615 60.024,77.77 62.696,80.486 				"/>
			</g>
			<g>
				<polygon fill="#3F6481" points="66.022,65.046 65.85,64.938 67.522,62.289 72.728,61.716 73.53,63.633 73.344,63.712 
					72.6,61.934 67.642,62.479 				"/>
			</g>
			<linearGradient id="SVGID_68_" gradientUnits="userSpaceOnUse" x1="70.0391" y1="54.8916" x2="76.1084" y2="54.8916">
				<stop  offset="0.004" style="stop-color:#323B65"/>
				<stop  offset="0.0954" style="stop-color:#3A4069"/>
				<stop  offset="0.2529" style="stop-color:#4D5075"/>
				<stop  offset="0.4576" style="stop-color:#6E6C8B"/>
				<stop  offset="0.7016" style="stop-color:#A09DB2"/>
				<stop  offset="0.9762" style="stop-color:#F5F5F7"/>
				<stop  offset="0.9921" style="stop-color:#FFFFFF"/>
			</linearGradient>
			<polygon opacity="0.67" fill="url(#SVGID_68_)" points="70.039,54.766 72.338,55.085 74.718,55.883 76.108,54.033 70.827,53.9 
							"/>
			<linearGradient id="SVGID_69_" gradientUnits="userSpaceOnUse" x1="15.9556" y1="88.1113" x2="38.2056" y2="88.1113">
				<stop  offset="0" style="stop-color:#996747"/>
				<stop  offset="1" style="stop-color:#010101"/>
			</linearGradient>
			<path opacity="0.5" fill="url(#SVGID_69_)" d="M19.294,84.519c0,0,11.905-0.768,18.911,2.982c0,0-2.074,3.245-2.074,4.004
				c0,0-15.074,1.463-20.176-2.522C15.956,88.982,16.333,87.02,19.294,84.519z"/>
			<linearGradient id="SVGID_70_" gradientUnits="userSpaceOnUse" x1="38.7471" y1="87.6934" x2="67.5811" y2="87.6934">
				<stop  offset="0" style="stop-color:#010101"/>
				<stop  offset="1" style="stop-color:#996747"/>
			</linearGradient>
			<path opacity="0.5" fill="url(#SVGID_70_)" d="M43.097,90.574c0,0-6.463-3.25-3.633-4.19c8.271,2.446,21.137,0.681,26.474-1.571
				l1.644,2.491L43.097,90.574z"/>
			<linearGradient id="SVGID_71_" gradientUnits="userSpaceOnUse" x1="63.3887" y1="62.6846" x2="75.0225" y2="62.6846">
				<stop  offset="0" style="stop-color:#010101"/>
				<stop  offset="1" style="stop-color:#996747"/>
			</linearGradient>
			<path opacity="0.5" fill="url(#SVGID_71_)" d="M75.001,60.071c0,0-4.926,2.768-11.073,3.554l-0.539,1.673
				c0,0,8.528-1.068,10.993-1.886C74.382,63.412,75.162,61.367,75.001,60.071z"/>
			<linearGradient id="SVGID_72_" gradientUnits="userSpaceOnUse" x1="64.7471" y1="56.0049" x2="64.7471" y2="35.8726">
				<stop  offset="0" style="stop-color:#010101"/>
				<stop  offset="1" style="stop-color:#414E47"/>
			</linearGradient>
			<path opacity="0.5" fill="url(#SVGID_72_)" d="M60.964,37.755c0,0-2.259,11.686,3.844,17.906l2.116,0.344
				c0,0-0.765-13.136,2.016-20.066C68.939,35.939,64.674,35.335,60.964,37.755z"/>
			<linearGradient id="SVGID_73_" gradientUnits="userSpaceOnUse" x1="28.6631" y1="67.4932" x2="40.6831" y2="67.4932">
				<stop  offset="0" style="stop-color:#FFFFFF"/>
				<stop  offset="0.996" style="stop-color:#8053A2"/>
			</linearGradient>
			<path opacity="0.3" fill="url(#SVGID_73_)" d="M28.663,64.157c0,0,4.571-4.865,9.415-4.157c4.843,0.706,1.45,15.057,1.45,15.057
				h-0.374C39.154,75.057,44.852,53.9,28.663,64.157z"/>
			<path fill="#87CFC3" d="M64.748,57.261c0,0-9.043,0.674-10.455,1.162c0,0-5.47,4.318-7.813,8.508c0,0,4.681-6.104,9.562-8.576
				L64.748,57.261z"/>
			<path fill="#87CFC3" d="M45.379,68.509c0,0-1.712,1.912-2.175,3.624C43.204,72.133,45.026,70.365,45.379,68.509z"/>
			<path fill="#9BD6C6" d="M63.73,52.906c0,0,1.361-0.353,1.681-0.841C65.411,52.065,64.023,51.835,63.73,52.906z"/>
			<path fill="#9BD6C6" d="M75.222,28.935c0,0,1.391,2.173,1.365,4.657C76.587,33.592,77.277,30.191,75.222,28.935z"/>
			<path fill="#87CFC3" d="M45.188,58.689c0,0,6.09-0.645,7.24-0.162C52.428,58.527,46.878,59.202,45.188,58.689z"/>
			<path fill="#9BD6C6" d="M38.078,51.123c0,0,0.029-0.657,1.267-0.654C39.345,50.469,38.536,51.081,38.078,51.123z"/>
			<path fill="#F5F7DB" d="M37.344,88.916c0,0,1.355-2.413,2.047-2.763c0.692-0.351,5.303-1.499,5.303-1.499
				s-4.811,1.628-5.217,1.904C39.071,86.837,37.344,88.916,37.344,88.916z"/>
			<path fill="#F5F7DB" d="M56.748,80.104l1.479-5.381C58.228,74.724,57.688,79.166,56.748,80.104z"/>
			<path fill="#F5F7DB" d="M63.814,63.854c0,0,1.486-3.489,2.827-4.535l-0.81,0.178C65.832,59.497,64.656,61.417,63.814,63.854z"/>
			<path fill="#9BD6C6" d="M75.308,41.261c0,0-1.583,3.674-1.649,5.792C73.658,47.054,75.005,43.717,75.308,41.261z"/>
			<linearGradient id="SVGID_74_" gradientUnits="userSpaceOnUse" x1="46.0981" y1="67.2764" x2="46.0981" y2="58.6152">
				<stop  offset="0" style="stop-color:#010101"/>
				<stop  offset="1" style="stop-color:#414E47"/>
			</linearGradient>
			<path opacity="0.5" fill="url(#SVGID_74_)" d="M40.672,58.615c0,0,4.809,4.159,5.558,8.661l5.294-6.419
				c0,0-1.417-1.693-2.225-2.175C49.3,58.683,42.051,58.719,40.672,58.615z"/>
			<linearGradient id="SVGID_75_" gradientUnits="userSpaceOnUse" x1="32.2378" y1="76.4668" x2="32.2378" y2="64.1572">
				<stop  offset="0" style="stop-color:#414E47"/>
				<stop  offset="1" style="stop-color:#010101"/>
			</linearGradient>
			<path opacity="0.5" fill="url(#SVGID_75_)" d="M28.663,64.157c0,0-4.69,6.604-2.959,10.125c1.73,3.521,9.814,2.02,13.45,0.774
				c0,0-10.289,1.84-11.365-2.681C26.713,67.853,28.663,64.157,28.663,64.157z"/>
		</g>
		<path fill="#F5F7DB" d="M43.85,42.873c0,0,1.121-0.205,1.883-0.142C45.733,42.73,44.636,42.952,43.85,42.873z"/>
	</g>
</g>
</svg>
